<svg viewBox="0 0 75 48" fill="none" xmlns="http://www.w3.org/2000/svg">
<g clip-path="url(#clip0_1529_2413)">
<path d="M0.957369 47.4096V39.1929H6.27164V39.9289C6.27164 39.9289 5.92188 39.7567 4.22006 39.7567H2.23634V42.9358H5.593V43.4996H2.23634V46.8458H4.3349C5.98452 46.8458 6.38648 46.6736 6.38648 46.6736V47.4096H0.952148H0.957369Z" fill="#33322B"/>
<path d="M35.4897 46.6788V47.4149H30.3477V39.1981H31.6266V46.8511H33.4329C35.0825 46.8511 35.4844 46.6788 35.4844 46.6788H35.4897Z" fill="#33322B"/>
<path d="M60.4535 46.6787V47.4148H55.3115V39.198H56.5905V46.851H58.3967C60.0463 46.851 60.4483 46.6787 60.4483 46.6787H60.4535Z" fill="#33322B"/>
<path d="M67.0102 46.6787V47.4148H61.8682V39.198H63.1471V46.851H64.9534C66.603 46.851 67.0049 46.6787 67.0049 46.6787H67.0102Z" fill="#33322B"/>
<path d="M8.86621 47.4096V39.1929H11.6016C12.557 39.1929 13.3087 39.3965 13.8673 39.7984C14.4206 40.2004 14.7025 40.7642 14.7025 41.4846C14.7025 42.0223 14.5407 42.4764 14.2118 42.8471C13.8829 43.2125 13.4235 43.4735 12.8389 43.6197C13.6062 45.0187 14.4206 46.2873 15.2767 47.4096H13.7159L11.5808 43.7606H10.1504V47.4096H8.87143H8.86621ZM11.4033 39.7567H10.1452V43.1968H11.4033C12.0141 43.1968 12.4943 43.0507 12.8389 42.7531C13.1886 42.4556 13.3609 42.0327 13.3609 41.4846C13.3609 40.9365 13.1886 40.5136 12.8389 40.2108C12.4891 39.9081 12.0088 39.7567 11.4033 39.7567Z" fill="#33322B"/>
<path d="M17.4121 47.4096V39.1929H20.4294C21.3691 39.1929 22.0791 39.3704 22.5593 39.7201C23.0396 40.0699 23.2797 40.5762 23.2797 41.234C23.2797 42.2102 22.7681 42.8419 21.7397 43.1238C22.3818 43.249 22.8673 43.4892 23.2014 43.8442C23.5355 44.1991 23.7026 44.6585 23.7026 45.2223C23.7026 45.9271 23.4468 46.4648 22.93 46.8406C22.4132 47.2165 21.6614 47.4044 20.6748 47.4044H17.4121V47.4096ZM21.5257 42.466C21.8285 42.1945 21.9799 41.8082 21.9799 41.3175C21.9799 40.8268 21.8285 40.4405 21.5257 40.1691C21.2229 39.8976 20.7896 39.7567 20.2311 39.7567H18.6911V42.8784H20.2311C20.7949 42.8784 21.2282 42.7427 21.5257 42.466ZM21.8702 46.4021C22.1991 46.1098 22.361 45.6869 22.361 45.1388C22.361 44.5907 22.1991 44.173 21.8702 43.8755C21.5414 43.5831 21.0768 43.437 20.4712 43.437H18.6859V46.8406H20.4712C21.0715 46.8406 21.5414 46.6944 21.8702 46.4021Z" fill="#33322B"/>
<path d="M26.1562 47.4096V39.1929H27.4352V47.4096H26.1562Z" fill="#33322B"/>
<path d="M46.9328 47.4096V43.4996H42.4382V47.4096H41.1592V39.1929H42.4382V42.9358H46.9328V39.1929H48.2118V47.4096H46.9328Z" fill="#33322B"/>
<path d="M51.1191 47.4096V39.1929H52.3981V47.4096H51.1191Z" fill="#33322B"/>
<path d="M70.857 39.6314C69.7294 39.6314 69.2491 40.6232 69.4162 41.187C69.6929 42.1214 70.4707 42.3825 71.5461 42.774C72.1516 42.9932 73.8743 43.6719 74.0205 44.9769C74.2397 46.8876 72.2821 47.6602 71.0501 47.5923C69.2387 47.4931 68.2051 46.115 68.2051 46.115L68.5809 45.3894C68.5809 45.3894 69.6354 46.9711 71.2015 46.9711C72.3291 46.9711 73.1487 46.2872 72.8772 45.358C72.6267 44.5071 71.6244 44.1104 70.6273 43.745C69.5154 43.343 68.393 42.6644 68.2677 41.5629C68.1163 40.2578 69.223 38.9318 71.071 39.0101C72.7102 39.078 73.5507 40.3257 73.5507 40.3257L73.1748 41.0513C73.1748 41.0513 72.3552 39.6314 70.8465 39.6314H70.857Z" fill="#33322B"/>
<path d="M66.4832 27.5979V33.3507H50.5508C50.0758 35.3396 48.092 35.8146 47.1889 35.8146C46.1605 35.8146 43.7227 35.1987 43.7227 32.4215V30.4743H45.0016V32.7869C45.0016 34.3425 45.9674 35.2509 47.1889 35.2509C48.4105 35.2509 49.3762 34.3373 49.3762 32.7869V25.1339H50.6552V32.4215C50.6552 32.5467 50.6552 32.6668 50.6396 32.7869H57.2954V27.5979H58.5744V32.7869H65.2094V27.5979H66.4884H66.4832Z" fill="#33322B"/>
<path d="M70.3936 27.5978H69.1147V32.7868C69.1147 34.1493 68.4465 34.8958 67.3711 35.4596L67.6895 35.8145C68.6292 35.5535 70.3936 34.7966 70.3936 32.4213V27.5978Z" fill="#33322B"/>
<path d="M35.814 29.2162C35.1144 28.7098 34.1696 28.4592 32.9637 28.4592H32.828V27.5927H30.6615C29.4609 27.5927 28.5108 27.8485 27.8165 28.3548C27.1169 28.8612 26.7672 29.5659 26.7672 30.4743C26.7672 31.3826 27.1169 32.0821 27.8165 32.5885C27.9104 32.6616 28.0148 32.7242 28.1192 32.7869H19.8033V27.5979H18.5243V32.7869H11.8893V25.1339H10.6103V32.7869H3.9649C3.97534 32.672 3.98056 32.5467 3.98056 32.4215V27.5979H2.70159V32.7869C2.70159 34.1494 2.03339 34.8959 0.958008 35.4597L1.27645 35.8146C2.08037 35.5902 3.48985 35.0055 3.87616 33.3507H36.858V31.3356C36.858 30.4325 36.5083 29.7278 35.814 29.2162ZM30.9121 32.7817C29.8941 32.7817 29.1998 32.4476 28.7613 32.0717C28.3228 31.6906 28.1036 31.1581 28.1036 30.4743C28.1036 29.7904 28.3228 29.2527 28.7613 28.8716C29.1998 28.4958 29.8941 28.1617 30.9121 28.1617H31.549V32.7869H30.9121V32.7817ZM32.828 32.7817V29.023C33.7885 29.0439 34.5037 29.3676 34.9265 29.733C35.365 30.1141 35.5843 30.6466 35.5843 31.3356V32.7869H32.8332L32.828 32.7817Z" fill="#33322B"/>
<path d="M57.9394 34.5556L57.1494 35.3456L57.9394 36.1355L58.7293 35.3456L57.9394 34.5556Z" fill="#33322B"/>
<path d="M3.33877 24.8518L2.54883 25.6417L3.33877 26.4317L4.12871 25.6417L3.33877 24.8518Z" fill="#33322B"/>
<path d="M65.2069 34.5542L64.417 35.3441L65.2069 36.1341L65.9969 35.3441L65.2069 34.5542Z" fill="#33322B"/>
<path d="M56.2597 34.5592L55.4697 35.3491L56.2597 36.1391L57.0496 35.3491L56.2597 34.5592Z" fill="#33322B"/>
<path d="M19.1806 34.5533L18.3906 35.3433L19.1806 36.1332L19.9705 35.3433L19.1806 34.5533Z" fill="#33322B"/>
<path d="M17.5009 34.5569L16.7109 35.3468L17.5009 36.1367L18.2908 35.3468L17.5009 34.5569Z" fill="#33322B"/>
<path d="M74.0426 25.1339H72.7637V33.3507H74.0426V25.1339Z" fill="#33322B"/>
<path d="M47.9404 10.5173L42.6731 15.7846C42.8923 15.1478 43.0124 14.49 43.0333 13.8166L46.3325 10.5173L44.1974 8.38224L42.2502 10.3294C42.078 9.98487 41.8796 9.64556 41.6551 9.3219L43.3256 7.6514C41.2323 6.2367 38.4603 6.59168 36.3983 8.6537L35.9963 9.05566L35.1924 8.25173L35.5943 7.84977C38.3507 5.09345 42.3599 4.94206 44.9178 7.50001L47.9351 10.5173H47.9404Z" fill="#33322B"/>
<path d="M34.8322 12.4176L35.2342 12.8195L36.0381 12.0156L35.6362 11.6136C33.5741 9.55163 33.2192 6.77965 34.6339 4.68631L36.3043 6.35681C36.6332 6.12711 36.9673 5.92874 37.3119 5.76169L35.3647 3.81452L37.4998 1.67941L40.799 4.97865C41.4672 4.99953 42.1302 5.11959 42.7671 5.33885L37.4998 0.0767822L34.4825 3.09412C31.9245 5.65206 32.0707 9.66126 34.8322 12.4176Z" fill="#33322B"/>
<path d="M40.1673 8.61717L39.7653 8.21521L38.9614 9.01914L39.3634 9.4211C41.4254 11.4831 41.7804 14.2551 40.3657 16.3484L38.6952 14.6779C38.3663 14.9076 38.0322 15.106 37.6876 15.2731L39.6348 17.2202L37.4997 19.3553L34.2005 16.0561C33.5323 16.0352 32.8693 15.9152 32.2324 15.6959L37.4997 20.9632L40.517 17.9459C43.075 15.3879 42.9288 11.3787 40.1673 8.62239V8.61717Z" fill="#33322B"/>
<path d="M39.3997 13.185L39.8017 12.783L38.9978 11.9791L38.5958 12.3811C36.5338 14.4431 33.7618 14.7981 31.6685 13.3834L33.339 11.7129C33.1093 11.384 32.9109 11.0499 32.7438 10.7053L30.7967 12.6525L28.6616 10.5174L31.9608 7.21818C31.9817 6.54998 32.1017 5.887 32.321 5.25012L27.0537 10.5174L30.071 13.5347C32.629 16.0927 36.6382 15.9465 39.3945 13.185H39.3997Z" fill="#33322B"/>
</g>
<defs>
<clipPath id="clip0_1529_2413">
<rect width="73.0842" height="47.5204" fill="white" transform="translate(0.958008 0.0767822)"/>
</clipPath>
</defs>
</svg>
