<svg viewBox="0 0 81 46" fill="none" xmlns="http://www.w3.org/2000/svg">
<path d="M30.1904 33.0695C29.9775 32.7502 29.7013 32.4782 29.3788 32.2703C29.0129 32.0465 28.6177 31.8747 28.2045 31.7599C27.6912 31.6212 27.1666 31.5286 26.6368 31.4833C26.022 31.428 25.3703 31.3972 24.6018 31.3972H23.0893C22.1548 31.3972 21.3248 31.4341 20.6301 31.5018C20.0076 31.558 19.3907 31.6649 18.7856 31.8215C18.3087 31.9433 17.8528 32.136 17.4331 32.3932C17.0855 32.6128 16.783 32.8966 16.5416 33.2293C16.3189 33.5498 16.1622 33.9114 16.0805 34.293C16.0075 34.6698 15.9704 35.0527 15.9698 35.4366C15.9682 35.7904 15.9928 36.1438 16.0436 36.494C16.0897 36.8547 16.2045 37.2033 16.3818 37.5208C16.5752 37.8549 16.8396 38.1424 17.1564 38.3631C17.5311 38.6203 17.9469 38.8115 18.386 38.9286C18.9623 39.0823 19.5505 39.1872 20.1444 39.2422C20.8145 39.3098 21.6322 39.3467 22.6036 39.3467H24.6817C25.337 39.3387 25.9921 39.3736 26.6429 39.4512C26.9879 39.4813 27.324 39.5773 27.6328 39.7341C27.7828 39.8132 27.8986 39.9443 27.9586 40.103C28.0404 40.3907 28.0777 40.6892 28.0693 40.9882C28.0811 41.2769 28.0286 41.5646 27.9156 41.8305C27.8072 42.0338 27.6371 42.1974 27.4299 42.2978C27.0416 42.4779 26.626 42.5922 26.2003 42.636C25.501 42.726 24.7964 42.7671 24.0915 42.7589H22.0749C21.3371 42.7589 20.71 42.7589 20.2304 42.7097C19.8733 42.695 19.5206 42.6245 19.1853 42.5007C19.0174 42.4364 18.8779 42.3143 18.7918 42.1564C18.6823 41.8811 18.634 41.5853 18.6504 41.2895V40.7116H15.9883V41.2895C15.9867 41.6752 16.0217 42.0602 16.0928 42.4393C16.1613 42.8082 16.3035 43.1594 16.5108 43.4721C16.7208 43.7896 16.9926 44.0615 17.3101 44.2714C17.6738 44.5076 18.0721 44.686 18.4905 44.8001C19.0022 44.9382 19.5246 45.0328 20.0522 45.0829C20.6362 45.1382 21.3248 45.169 22.0933 45.169H24.1099C24.8678 45.1755 25.6253 45.1365 26.3785 45.0522C26.9607 44.9906 27.5354 44.8711 28.0939 44.6956C28.5438 44.5584 28.9692 44.3509 29.3542 44.0808C29.6871 43.847 29.9712 43.5505 30.1904 43.2078C30.3972 42.8801 30.543 42.5176 30.6207 42.1379C30.691 41.7588 30.726 41.3739 30.7252 40.9882C30.7276 40.6225 30.7071 40.2571 30.6638 39.8939C30.6201 39.5281 30.5141 39.1725 30.3502 38.8426C30.1757 38.5087 29.9352 38.2138 29.6432 37.9757C29.3004 37.6993 28.9082 37.4906 28.4873 37.3609C27.9629 37.1966 27.4232 37.0854 26.8765 37.0289C26.1453 36.9546 25.4106 36.9197 24.6755 36.9244H22.5975C21.9396 36.9244 21.3678 36.9244 20.8944 36.8814C20.5085 36.8633 20.1243 36.8181 19.7447 36.7461C19.5169 36.707 19.2955 36.6366 19.0869 36.537C18.9797 36.487 18.8851 36.4135 18.8102 36.3219C18.7485 36.2312 18.7067 36.1285 18.6873 36.0206C18.6543 35.8174 18.6399 35.6116 18.6443 35.4058C18.6318 35.131 18.6845 34.8571 18.798 34.6065C18.9181 34.4168 19.0974 34.2721 19.3082 34.1946C19.7461 34.0193 20.2087 33.9135 20.6793 33.8811C21.4844 33.8043 22.2929 33.7694 23.1016 33.7765H24.614C25.3518 33.7765 25.9789 33.7766 26.4585 33.8258C26.8197 33.84 27.1765 33.9105 27.516 34.0348C27.6822 34.0929 27.8205 34.2114 27.9033 34.3668C28.0153 34.6349 28.0637 34.9253 28.0447 35.2152V35.7931H30.7068V35.2152C30.7117 34.8315 30.6767 34.4482 30.6023 34.0716C30.5307 33.7142 30.3908 33.3739 30.1904 33.0695Z" fill="#33322B"/>
<path d="M77.9627 31.6479V41.4849L67.6892 31.6479H64.2278V44.5158L56.9116 31.6479H54.0773L47.0377 43.981L38.7071 38.1464L48.1013 31.6479H43.7977L35.9957 36.9353H34.7354V31.6479H32.0732V44.8602H34.7354V39.3269H36.0019L44.0498 44.8602H49.5831L51.1631 42.0935H59.9488L61.5165 44.8602H66.8838V34.7773L77.7967 44.8602H80.6125V31.6233L77.9627 31.6479ZM52.5464 39.7019L55.559 34.4084L58.5716 39.7204L52.5464 39.7019Z" fill="#33322B"/>
<path d="M0.697266 31.6492V34.0592V42.4452V44.8614H3.10731H13.9341V42.4452H3.10731V39.4573H11.8991V37.0472H3.10731V34.0592H13.9341V31.6492H3.10731H0.697266Z" fill="#33322B"/>
<path d="M32.083 28.2069V23.811L44.0349 18.2408V22.6367L32.083 28.2069Z" fill="#33322B"/>
<path d="M32.083 19.4137V15.0178L44.0349 9.44763V13.8435L32.083 19.4137Z" fill="#33322B"/>
<path d="M32.083 10.6217V6.23197L44.0349 0.65564V5.05154L32.083 10.6217Z" fill="#33322B"/>
<path d="M44.0352 22.6344L48.013 24.4911V20.0953L44.0352 18.2385V22.6344Z" fill="#33322B"/>
<path d="M44.0352 13.8434L48.013 15.7001V11.3042L44.0352 9.44751V13.8434Z" fill="#33322B"/>
<path d="M44.0352 5.05142L48.013 6.90814V2.51225L44.0352 0.655518V5.05142Z" fill="#33322B"/>
</svg>
