<svg viewBox="0 0 80 46" fill="none" xmlns="http://www.w3.org/2000/svg">
<path fill-rule="evenodd" clip-rule="evenodd" d="M3.17296 39.7153V42.2081H3.36021C3.60114 42.2175 3.84146 42.1774 4.06632 42.0903C4.25682 42.0012 4.41682 41.858 4.52635 41.6785C4.67103 41.4438 4.75724 41.1778 4.77776 40.9028H4.94358V43.9947H4.77776C4.7809 43.7803 4.73815 43.5677 4.65235 43.3712C4.56654 43.1747 4.43967 42.9988 4.28027 42.8553C4.0092 42.6708 3.68812 42.5737 3.36021 42.5771H3.17296V44.4387C3.15899 44.6347 3.17708 44.8317 3.22647 45.0218C3.27532 45.1099 3.34999 45.1808 3.44043 45.2251C3.57765 45.2884 3.72811 45.3177 3.87907 45.3106H4.09306V45.4765H0.685547V45.3106H0.904855C1.06147 45.3166 1.21728 45.2854 1.35957 45.2197C1.44838 45.1726 1.51686 45.0946 1.55213 45.0004C1.59992 44.8264 1.61799 44.6455 1.60561 44.4655V40.4695C1.61997 40.2736 1.60191 40.0765 1.55213 39.8864C1.50643 39.796 1.43081 39.7242 1.33815 39.6831C1.20356 39.6172 1.05461 39.586 0.904855 39.5923H0.685547V39.4264H6.18463V41.1703H5.98671C5.97181 40.8385 5.85192 40.5201 5.64434 40.2609C5.42708 40.0443 5.14913 39.8988 4.8473 39.8437C4.4934 39.7895 4.13527 39.7681 3.77744 39.7795L3.17296 39.7153Z" fill="#33322B"/>
<path fill-rule="evenodd" clip-rule="evenodd" d="M10.5701 43.7229H8.26988L7.99706 44.3113C7.91874 44.4643 7.8732 44.6319 7.86332 44.8034C7.85875 44.8806 7.87714 44.9573 7.91618 45.024C7.95522 45.0906 8.01314 45.1442 8.08263 45.1779C8.28888 45.2501 8.50603 45.2863 8.72456 45.2849V45.4507H6.55273V45.2849C6.76919 45.2607 6.97194 45.1668 7.13047 45.0174C7.35384 44.7393 7.53417 44.4291 7.6654 44.0973L9.9977 39.2509H10.0886L12.437 44.231C12.561 44.5582 12.7421 44.8607 12.9719 45.1244C13.1048 45.2246 13.2656 45.2807 13.432 45.2849V45.4507H10.2812V45.2849H10.4096C10.5932 45.2994 10.7775 45.2662 10.9445 45.1886C10.9781 45.1656 11.0051 45.1343 11.0229 45.0977C11.0407 45.0611 11.0487 45.0205 11.0462 44.98C11.0474 44.9235 11.0383 44.8674 11.0194 44.8142C10.9774 44.6993 10.9292 44.5868 10.875 44.4771L10.5701 43.7229ZM10.4096 43.3912L9.43603 41.2996L8.44106 43.3912H10.4096Z" fill="#33322B"/>
<path fill-rule="evenodd" clip-rule="evenodd" d="M19.7972 43.3153L19.5512 45.4551H13.7686V45.2893H13.9825C14.1409 45.2952 14.2984 45.2641 14.4426 45.1983C14.5289 45.1481 14.5965 45.0711 14.6351 44.979C14.6771 44.804 14.6933 44.6237 14.6833 44.444V40.4481C14.6954 40.2525 14.6791 40.0561 14.6351 39.8651C14.5855 39.7757 14.5087 39.7045 14.4158 39.6618C14.2812 39.5958 14.1323 39.5645 13.9825 39.5708H13.7686V39.405H17.2403V39.5708H16.9568C16.7995 39.5644 16.6432 39.5976 16.5021 39.6671C16.4134 39.7135 16.3434 39.7891 16.3042 39.8811C16.2572 40.0662 16.2391 40.2575 16.2506 40.4481V44.3157C16.2383 44.5172 16.2581 44.7195 16.3095 44.9148C16.3568 45.0043 16.4376 45.0716 16.5342 45.102C16.7264 45.1371 16.9221 45.1497 17.1172 45.1395H17.6522C17.9481 45.1499 18.2425 45.0931 18.5134 44.9736C18.7546 44.848 18.9605 44.6641 19.1126 44.4387C19.32 44.1058 19.4802 43.7458 19.5886 43.3688L19.7972 43.3153Z" fill="#33322B"/>
<path fill-rule="evenodd" clip-rule="evenodd" d="M26.7214 39.2329V41.3191H26.5342C26.4246 40.8206 26.147 40.3749 25.7478 40.0567C25.3729 39.767 24.911 39.6124 24.4372 39.618C24.0405 39.6142 23.6516 39.7277 23.3192 39.9444C22.9907 40.1481 22.7315 40.4465 22.5757 40.8003C22.3676 41.2737 22.2636 41.7863 22.2708 42.3034C22.2655 42.8075 22.3396 43.3094 22.4901 43.7905C22.6083 44.1945 22.8518 44.5504 23.1855 44.8069C23.5458 45.0461 23.9731 45.1642 24.4051 45.1439C24.7943 45.1509 25.1795 45.0647 25.5285 44.8925C25.9347 44.6731 26.2973 44.3812 26.5984 44.0312V44.5661C26.2711 44.897 25.8822 45.1605 25.4536 45.3418C25.0125 45.5064 24.5442 45.5862 24.0735 45.5772C23.4331 45.5901 22.7982 45.4565 22.2173 45.1867C21.6977 44.9475 21.2617 44.5581 20.9655 44.0687C20.6815 43.5992 20.5316 43.0608 20.5322 42.512C20.5337 41.9284 20.7006 41.3571 21.0137 40.8645C21.3362 40.349 21.7929 39.9311 22.3349 39.6555C22.8773 39.3691 23.4816 39.2203 24.0949 39.2222C24.5922 39.2312 25.0843 39.3253 25.5499 39.5004C25.7297 39.577 25.9184 39.6309 26.1116 39.6609C26.2089 39.6629 26.3031 39.6263 26.3737 39.5592C26.462 39.4682 26.5151 39.3487 26.5235 39.2222L26.7214 39.2329Z" fill="#33322B"/>
<path fill-rule="evenodd" clip-rule="evenodd" d="M31.0575 39.2871C31.5148 39.2516 31.9745 39.3087 32.4093 39.4548C32.844 39.6009 33.2448 39.8332 33.5878 40.1377C33.9026 40.4209 34.1525 40.7687 34.3205 41.1574C34.4885 41.5461 34.5707 41.9664 34.5613 42.3897C34.5724 43.133 34.314 43.8551 33.8338 44.4225C33.5033 44.8141 33.0862 45.1232 32.6154 45.3257C32.1447 45.5281 31.6333 45.6181 31.1217 45.5886C30.6135 45.6187 30.1051 45.5343 29.6339 45.3418C29.1626 45.1492 28.7406 44.8533 28.3989 44.476C27.8974 43.9 27.6269 43.1587 27.6393 42.3951C27.6302 41.9703 27.714 41.5486 27.885 41.1596C28.0559 40.7705 28.3098 40.4236 28.629 40.143C28.9554 39.8444 29.3387 39.6146 29.756 39.4676C30.1733 39.3205 30.616 39.2591 31.0575 39.2871ZM31.1164 39.576C30.8321 39.5718 30.5526 39.6499 30.3116 39.8008C30.0705 39.9517 29.8782 40.1689 29.7577 40.4265C29.4692 41.0541 29.3388 41.7429 29.3779 42.4325C29.3146 43.2424 29.5194 44.0508 29.9609 44.7327C30.0951 44.9069 30.269 45.0464 30.4682 45.1395C30.6674 45.2326 30.886 45.2765 31.1057 45.2677C31.3984 45.2779 31.6874 45.1996 31.9348 45.043C32.2427 44.815 32.4726 44.4974 32.5928 44.1336C32.7652 43.602 32.8449 43.0447 32.8282 42.486C32.8563 41.8756 32.7748 41.265 32.5875 40.6833C32.4724 40.3459 32.258 40.0513 31.9723 39.8381C31.7202 39.6658 31.4217 39.5744 31.1164 39.576Z" fill="#33322B"/>
<path fill-rule="evenodd" clip-rule="evenodd" d="M37.3671 39.3732L40.5767 43.1445V40.5286C40.6038 40.2704 40.5435 40.0104 40.4055 39.7904C40.3029 39.6954 40.1809 39.6236 40.0479 39.5802C39.9149 39.5368 39.7741 39.5228 39.6352 39.539V39.3732H41.7749V39.539C41.5909 39.5565 41.4106 39.6016 41.24 39.6728C41.1419 39.731 41.0651 39.8191 41.0206 39.9242C40.9555 40.1187 40.9283 40.3239 40.9404 40.5286V45.5998H40.7799L36.3721 40.5393V44.4015C36.3549 44.532 36.3693 44.6647 36.414 44.7885C36.4587 44.9123 36.5324 45.0235 36.6289 45.113C36.8005 45.235 37.0067 45.2988 37.2173 45.2949H37.3724V45.4607H35.0615V45.2949C35.3278 45.3233 35.595 45.2507 35.8104 45.0916C35.8891 44.9961 35.948 44.8859 35.9838 44.7675C36.0196 44.649 36.0316 44.5246 36.019 44.4015V40.1221L35.88 39.9616C35.781 39.8317 35.6574 39.7227 35.5162 39.6406C35.3716 39.583 35.2172 39.5539 35.0615 39.555V39.3892L37.3671 39.3732Z" fill="#33322B"/>
<path fill-rule="evenodd" clip-rule="evenodd" d="M51.2728 39.2324V41.3721H51.0962C50.9172 40.8382 50.5794 40.3716 50.128 40.0348C49.7194 39.7374 49.2265 39.5781 48.7211 39.5801C48.2824 39.5645 47.8517 39.7005 47.5015 39.9652C47.1654 40.2401 46.9256 40.6148 46.8168 41.0351C46.6824 41.492 46.6139 41.9657 46.6135 42.442C46.6043 42.9626 46.6802 43.4811 46.8382 43.9772C46.9519 44.3747 47.2043 44.7183 47.5496 44.9455C47.9034 45.1561 48.3096 45.2618 48.7211 45.2504C48.8826 45.2516 49.0439 45.2373 49.2026 45.2076C49.3748 45.1724 49.5446 45.1259 49.7108 45.0685V43.8061C49.7234 43.649 49.7053 43.4909 49.6573 43.3407C49.6051 43.256 49.5287 43.189 49.438 43.1481C49.3119 43.0918 49.1748 43.0644 49.0368 43.0679H48.887V42.9234H52.0538V43.0893C51.8802 43.0875 51.7078 43.1183 51.5456 43.1802C51.4503 43.2304 51.3749 43.3116 51.3316 43.4102C51.2934 43.5458 51.2789 43.6869 51.2888 43.8274V45.0632C50.8682 45.2374 50.4308 45.3683 49.9836 45.4537C49.5238 45.5447 49.0561 45.5895 48.5874 45.5874C48.0639 45.6021 47.542 45.5224 47.0468 45.352C46.6604 45.2039 46.2994 44.9963 45.9769 44.7369C45.6816 44.4968 45.4347 44.2027 45.2494 43.8703C45.0211 43.4446 44.9051 42.9678 44.9124 42.4848C44.9061 42.0469 44.9952 41.6129 45.1735 41.2129C45.3518 40.8129 45.615 40.4565 45.9448 40.1685C46.6573 39.5307 47.5889 39.1933 48.5446 39.227C48.8385 39.2237 49.1322 39.2469 49.4219 39.2966C49.6536 39.3452 49.8809 39.4132 50.1013 39.4999C50.2742 39.5712 50.4532 39.6267 50.6362 39.6657C50.7274 39.667 50.8162 39.6367 50.8876 39.5801C50.9862 39.4813 51.0596 39.3602 51.1016 39.227L51.2728 39.2324Z" fill="#33322B"/>
<path fill-rule="evenodd" clip-rule="evenodd" d="M54.7733 42.6838V44.3849C54.7581 44.5939 54.7799 44.8039 54.8375 45.0054C54.8899 45.0965 54.9707 45.1679 55.0675 45.2087C55.2645 45.2707 55.4712 45.2961 55.6773 45.2836V45.4494H52.3447V45.2836C52.5509 45.2961 52.7575 45.2707 52.9545 45.2087C53.0504 45.1658 53.1294 45.0925 53.1792 45.0001C53.2402 44.8011 53.2638 44.5925 53.2488 44.3849V40.4424C53.2637 40.2331 53.2401 40.0227 53.1792 39.8219C53.1305 39.7299 53.0509 39.6579 52.9545 39.6186C52.7583 39.5528 52.5513 39.5256 52.3447 39.5384V39.3726H55.3724C55.9526 39.3526 56.5329 39.4047 57.1002 39.5277C57.4452 39.6118 57.7566 39.7983 57.9936 40.0627C58.2228 40.3306 58.3463 40.6729 58.3413 41.0255C58.3438 41.2389 58.2968 41.4499 58.204 41.642C58.1112 41.8342 57.9751 42.0022 57.8064 42.1328C57.5343 42.3449 57.2149 42.4881 56.8756 42.5501L58.4429 44.6096C58.5748 44.7875 58.7216 44.9539 58.8816 45.107C59.0165 45.1979 59.1738 45.2497 59.3363 45.2568V45.4227H57.2875L55.1852 42.6571L54.7733 42.6838ZM54.7733 39.7042V42.3789H55.0461C55.3833 42.3927 55.7207 42.3549 56.0464 42.2666C56.2693 42.1997 56.4597 42.053 56.5814 41.8547C56.7196 41.6184 56.7865 41.3471 56.7739 41.0737C56.7883 40.8879 56.7649 40.7011 56.7052 40.5246C56.6454 40.3481 56.5506 40.1854 56.4263 40.0466C56.1062 39.8004 55.7051 39.6838 55.3029 39.7203L54.7733 39.7042Z" fill="#33322B"/>
<path fill-rule="evenodd" clip-rule="evenodd" d="M63.0459 39.287C63.5023 39.2516 63.9612 39.3088 64.3951 39.4549C64.8289 39.6011 65.2288 39.8333 65.5708 40.1376C65.8854 40.4207 66.1349 40.7685 66.3021 41.1573C66.4693 41.5461 66.5501 41.9666 66.539 42.3897C66.5501 43.1329 66.2917 43.855 65.8115 44.4224C65.4805 44.8134 65.0632 45.1221 64.5926 45.3245C64.122 45.5268 63.6109 45.6172 63.0994 45.5885C62.5912 45.619 62.0826 45.5348 61.6113 45.3422C61.14 45.1496 60.718 44.8536 60.3766 44.4759C59.8728 43.9012 59.6019 43.1591 59.617 42.395C59.6072 41.9706 59.6902 41.5492 59.8602 41.1602C60.0302 40.7712 60.2831 40.4241 60.6013 40.143C60.93 39.8428 61.316 39.6123 61.7361 39.4652C62.1562 39.3181 62.6017 39.2575 63.0459 39.287ZM63.1048 39.5759C62.8195 39.5707 62.5389 39.6483 62.2968 39.7992C62.0547 39.9502 61.8616 40.168 61.7407 40.4264C61.4541 41.0547 61.3238 41.7429 61.3609 42.4324C61.2991 43.243 61.5059 44.0513 61.9493 44.7327C62.0831 44.9072 62.257 45.047 62.4563 45.1401C62.6556 45.2332 62.8743 45.2769 63.094 45.2676C63.3852 45.2788 63.6727 45.2004 63.9178 45.0429C64.2289 44.8181 64.4595 44.4993 64.5758 44.1335C64.7508 43.6025 64.8305 43.0448 64.8112 42.486C64.8379 41.876 64.7582 41.266 64.5758 40.6833C64.4587 40.347 64.2447 40.0528 63.9606 39.838C63.7083 39.6664 63.4099 39.575 63.1048 39.5759Z" fill="#33322B"/>
<path fill-rule="evenodd" clip-rule="evenodd" d="M67.1293 39.373H70.4941V39.5389H70.3282C70.1461 39.5243 69.9631 39.5517 69.7933 39.6191C69.7062 39.6617 69.6349 39.731 69.59 39.817C69.537 40.0302 69.5172 40.2504 69.5312 40.4697V43.4599C69.508 43.8218 69.5533 44.1848 69.6649 44.5298C69.7632 44.7154 69.9139 44.8679 70.0982 44.9684C70.3332 45.0935 70.5971 45.1544 70.8632 45.145C71.1778 45.155 71.4889 45.0771 71.7618 44.9203C72.0074 44.7797 72.2035 44.5667 72.3235 44.3105C72.4752 43.8744 72.5389 43.4126 72.5107 42.9518V40.475C72.5226 40.2764 72.4916 40.0775 72.4198 39.8919C72.3693 39.7884 72.2867 39.704 72.1844 39.6512C71.9914 39.5716 71.7832 39.5351 71.5746 39.5443V39.3784H73.832V39.5443H73.6929C73.5346 39.5397 73.3779 39.5766 73.2383 39.6512C73.1166 39.7174 73.0233 39.8259 72.9761 39.9561C72.921 40.1287 72.8992 40.3103 72.9119 40.491V42.7966C72.9333 43.3167 72.8811 43.8371 72.7568 44.3426C72.62 44.7088 72.3612 45.0167 72.024 45.2145C71.5417 45.507 70.9823 45.6468 70.4192 45.6157C69.9726 45.6362 69.5266 45.5652 69.1086 45.4071C68.7427 45.2598 68.4322 45.0016 68.2206 44.6689C68.0329 44.2965 67.9444 43.8819 67.9638 43.4653V40.491C67.9801 40.2714 67.9584 40.0507 67.8996 39.8384C67.8539 39.748 67.7783 39.6762 67.6857 39.6352C67.502 39.5713 67.3072 39.5459 67.1133 39.5603L67.1293 39.373Z" fill="#33322B"/>
<path fill-rule="evenodd" clip-rule="evenodd" d="M76.6679 42.7008V44.3859C76.6528 44.5949 76.6745 44.8049 76.7321 45.0064C76.7833 45.0985 76.8645 45.1703 76.9621 45.2097C77.1593 45.2708 77.3659 45.2961 77.572 45.2846V45.4504H74.2607V45.2846C74.4669 45.2971 74.6736 45.2717 74.8706 45.2097C74.9664 45.1668 75.0454 45.0935 75.0952 45.0011C75.1562 44.8021 75.1798 44.5935 75.1648 44.3859V40.4434C75.1797 40.2341 75.1561 40.0237 75.0952 39.8229C75.0465 39.7309 74.967 39.6589 74.8706 39.6196C74.6746 39.5528 74.4673 39.5256 74.2607 39.5394V39.3736H77.1012C77.8039 39.3141 78.5075 39.4769 79.1126 39.8389C79.3006 39.9699 79.4542 40.1443 79.5604 40.3473C79.6666 40.5503 79.7222 40.776 79.7224 41.0051C79.7304 41.382 79.5902 41.7469 79.3319 42.0215C79.04 42.3143 78.6676 42.5136 78.262 42.5939C77.7354 42.6813 77.2015 42.7171 76.6679 42.7008ZM76.6679 39.7266V42.3532H76.9087C77.0732 42.3636 77.2382 42.3404 77.3935 42.2853C77.5489 42.2301 77.6915 42.144 77.8127 42.0322C78.0441 41.7483 78.1571 41.3862 78.1283 41.0211C78.1583 40.6625 78.0448 40.3066 77.8127 40.0315C77.5505 39.807 77.2101 39.6954 76.8659 39.7213L76.6679 39.7266Z" fill="#33322B"/>
<path d="M52.2147 28.2194L52.3858 27.7754L51.9525 27.6256C51.9525 27.6256 52.7121 23.6617 47.4431 21.1101C42.174 18.5585 41.0827 13.6211 41.0827 12.4923L28.2444 0.114014C28.2444 0.114014 27.442 3.20059 31.7375 6.82208L27.458 3.61249C27.458 3.61249 27.2173 7.57635 32.2724 9.91936L27.3831 7.66725C27.3831 7.66725 27.2441 10.7271 32.8127 12.8186L28.2123 11.6204C28.2123 11.6204 29.7261 15.044 34.7491 16.4348L30.0203 15.7554C31.5577 17.718 33.7985 19.0054 36.2683 19.3449L32.9197 19.4572C32.9197 19.4572 34.5245 21.6611 38.3867 21.1101L35.712 21.7574C36.924 22.5629 38.3915 22.8907 39.831 22.6775L43.2867 24.7797C41.9112 24.5399 40.5622 24.1673 39.2586 23.6671C38.3805 23.8841 37.4577 23.8347 36.6079 23.5251C35.758 23.2154 35.0197 22.6596 34.487 21.9285C34.487 21.9285 34.0698 23.8543 36.707 24.646C35.5472 24.5556 34.4607 24.0438 33.6525 23.207C33.6525 23.207 33.8772 24.9295 36.5412 25.8442C36.5412 25.8442 34.5138 25.7319 33.3316 24.7744C33.3637 24.8492 34.4282 27.4116 38.3974 26.9943C38.3974 26.9943 36.4235 27.9893 34.7599 27.7807C35.5276 28.3955 36.4986 28.699 37.4799 28.6306C38.4611 28.5622 39.3806 28.127 40.0557 27.4116C40.2915 27.1071 40.5094 26.7892 40.7083 26.4594L42.848 27.5775C42.2934 27.8538 41.811 28.256 41.4395 28.752C41.068 29.248 40.8176 29.824 40.7083 30.434C41.0358 30.1512 41.3948 29.9071 41.7782 29.7065C41.4426 30.5782 41.3465 31.5239 41.5 32.4453C41.5 32.4453 41.8423 30.8672 42.5698 30.4072C42.5698 30.4072 42.1205 32.012 42.4521 32.9749C42.4521 32.9749 42.9283 32.2635 43.3188 32.119C43.3188 32.119 43.3187 33.7238 43.2545 33.895C43.2545 33.895 43.8537 32.9 44.6186 33.007C44.4498 33.2761 44.343 33.5794 44.306 33.8949C44.269 34.2104 44.3027 34.5302 44.4047 34.8311C44.466 34.9878 44.576 35.1207 44.7186 35.2103C44.8611 35.2998 45.0285 35.3413 45.1963 35.3286C45.3374 35.3059 45.4691 35.2435 45.5762 35.1488C45.6832 35.0541 45.7611 34.931 45.8008 34.7937C45.6627 34.7916 45.5283 34.7487 45.4145 34.6704C45.3007 34.5921 45.2125 34.482 45.1611 34.3538C45.1097 34.2255 45.0973 34.085 45.1256 33.9498C45.1538 33.8145 45.2214 33.6907 45.3198 33.5937C45.4182 33.4968 45.5431 33.4311 45.6787 33.4049C45.8143 33.3787 45.9547 33.3932 46.0821 33.4466C46.2095 33.4999 46.3183 33.5897 46.3949 33.7047C46.4714 33.8197 46.5123 33.9548 46.5123 34.0929C46.4686 34.4901 46.3487 34.8751 46.1593 35.2269C46.2234 35.2269 47.6196 34.692 46.5123 33.2102C46.5123 33.2102 47.7533 32.1404 47.5822 34.6011C47.8173 34.3412 47.999 34.0377 48.1171 33.7078C48.1689 33.5315 48.1776 33.3455 48.1423 33.1652C48.1071 32.9849 48.029 32.8158 47.9147 32.672C47.8003 32.5283 47.6531 32.4142 47.4853 32.3393C47.3176 32.2645 47.1343 32.2312 46.9509 32.2421C46.4698 32.2827 46.0125 32.4693 45.6404 32.777C45.3683 32.6284 45.1368 32.4153 44.9663 32.1564C44.6387 31.6975 44.4626 31.1477 44.4626 30.5838C44.4626 30.0199 44.6387 29.47 44.9663 29.011C45.1191 28.7993 45.2872 28.5991 45.4692 28.4119C45.2706 28.8078 45.1536 29.2396 45.1251 29.6816C45.0966 30.1236 45.1572 30.5669 45.3033 30.985C45.3033 30.985 45.3033 29.776 46.1753 29.6048C46.1753 29.6048 46.7102 29.8402 46.4748 31.338C46.5279 31.2051 46.6231 31.0934 46.7458 31.02C46.8686 30.9465 47.0121 30.9154 47.1542 30.9314C47.0645 31.0944 47.0307 31.2823 47.0579 31.4664H47.1061C47.4959 31.4593 47.874 31.5998 48.1647 31.8597C48.4553 32.1196 48.637 32.4797 48.6734 32.8679C48.7077 33.1643 48.6653 33.4645 48.5504 33.7398C48.5985 33.7398 50.091 33.2049 49.0372 32.135C49.0372 32.135 50.3263 31.9104 50.1766 33.7719C50.1766 33.7719 51.6262 32.4934 50.444 31.8783C50.444 31.8783 50.551 31.7659 51.0378 31.7285C51.5246 31.691 51.546 32.9321 51.225 33.36C51.4502 33.2848 51.6539 33.1564 51.8188 32.9856C51.9551 32.7934 52.0351 32.567 52.0499 32.3319C52.0647 32.0968 52.0138 31.8621 51.9027 31.6544C51.7915 31.4466 51.6247 31.2739 51.4209 31.1557C51.2172 31.0374 50.9845 30.9783 50.7489 30.985C50.1365 30.9868 49.5276 31.0768 48.9409 31.2524C48.9409 31.2524 46.9242 29.4337 47.871 27.3046C47.2962 27.0156 46.6918 26.7896 46.0683 26.6306C46.0683 26.6306 48.3418 25.764 50.2301 29.5941L50.5724 28.3851C50.5724 28.3851 51.99 28.3852 50.7383 29.9525C51.3021 29.9784 51.8671 29.9624 52.4286 29.9044C52.5633 29.7988 52.6682 29.66 52.7332 29.5017C52.7981 29.3434 52.821 29.1709 52.7994 29.0012C52.7779 28.8314 52.7127 28.6701 52.6102 28.5331C52.5077 28.3961 52.3714 28.288 52.2147 28.2194Z" fill="#33322B"/>
<path fill-rule="evenodd" clip-rule="evenodd" d="M53.0069 15.8996C52.6598 15.7967 52.2989 15.748 51.937 15.7551C51.3142 15.7669 50.7048 15.9378 50.1667 16.2513C49.6285 16.5649 49.1794 17.0109 48.8621 17.5469C48.5448 18.0829 48.3698 18.6911 48.3537 19.3137C48.3376 19.9364 48.481 20.5528 48.7702 21.1045C48.369 21.0082 45.0257 20.0827 42.5275 15.8354C42.5275 15.8354 43.8595 17.0818 44.7529 17.0711C44.7529 17.0711 42.4955 15.2256 41.9819 13.0912C41.9819 13.0912 43.4316 14.696 44.9347 14.9956C44.8331 14.9046 41.4042 12.4814 40.6553 9.21828C40.7248 9.31457 42.7041 12.797 45.1701 12.9628C45.1701 12.9628 42.3136 10.4861 41.5058 7.48511C41.5754 7.59744 43.5332 11.1173 46.6358 11.9571C45.9339 11.1472 45.5533 10.1081 45.5659 9.03642C45.5659 9.03642 48.3209 13.594 53.0069 15.8996Z" fill="#33322B"/>
</svg>
