<svg viewBox="0 0 70 22" fill="none" xmlns="http://www.w3.org/2000/svg">
<path d="M17.5581 15.1856L17.1452 15.6501C16.7338 16.1175 16.2043 16.4658 15.6122 16.6584C15.0201 16.8511 14.387 16.8811 13.7793 16.7453C13.1758 16.6286 12.6097 16.3665 12.1302 15.9819C11.6506 15.5972 11.272 15.1015 11.027 14.5377C10.5965 13.6239 10.511 12.5853 10.7862 11.6133C10.9044 11.0247 11.1618 10.4728 11.5369 10.004C11.9119 9.53511 12.3938 9.16287 12.9422 8.91833C13.4573 8.6936 14.0116 8.57284 14.5735 8.563C15.1354 8.55316 15.6937 8.65445 16.2163 8.86101C16.8811 9.07054 17.4592 9.4914 17.8629 10.0596C18.2665 10.6278 18.4736 11.3123 18.4526 12.009C18.4526 14.165 18.4526 16.321 18.4526 18.477C18.4526 18.6089 18.4526 18.6433 18.6189 18.6433H27.1511C27.5972 18.6511 28.0425 18.6009 28.4757 18.4942C29.2947 18.3165 30.0101 17.8217 30.4654 17.118C30.7426 16.6512 30.8892 16.1185 30.8897 15.5756C30.9474 14.9194 30.7773 14.2633 30.4081 13.7177C29.9618 13.1008 29.3493 12.6235 28.642 12.3416C28.1202 12.118 27.5812 11.9517 27.0422 11.7682C26.2624 11.5101 25.4596 11.3037 24.697 11.0285C24.2875 10.8956 23.9131 10.6722 23.6018 10.3748C23.5048 10.2612 23.4369 10.1257 23.4038 9.9801C23.3707 9.83446 23.3735 9.68295 23.4118 9.5386C23.4502 9.39425 23.523 9.26134 23.6239 9.15132C23.7249 9.04129 23.8511 8.95743 23.9917 8.90689C24.2848 8.83893 24.5853 8.80809 24.8862 8.81513H31.4689C31.618 8.81513 31.6523 8.84953 31.6523 8.99862V14.7327C31.645 15.139 31.6835 15.5448 31.767 15.9425C31.901 16.7064 32.2938 17.4009 32.8794 17.9093C33.4704 18.3854 34.2078 18.6427 34.9666 18.6375C35.9701 18.6375 36.9735 18.6375 37.9598 18.6375C38.0687 18.6375 38.086 18.5974 38.086 18.5057V16.7855C38.086 16.5848 38.086 16.5848 37.8853 16.5848C36.9736 16.5848 36.0446 16.5848 35.1329 16.5848C34.8346 16.619 34.5348 16.5348 34.2979 16.3504C34.061 16.166 33.9058 15.8961 33.8657 15.5985C33.8429 15.4621 33.8314 15.324 33.8313 15.1856V8.9757C33.8313 8.84381 33.8657 8.8094 33.9976 8.82661H37.9369C38.0688 8.82661 38.1089 8.78644 38.1089 8.6603V6.91142C38.1089 6.77954 38.0688 6.74514 37.9369 6.74514H34.0148C33.8829 6.74514 33.8485 6.74515 33.8485 6.57313V3.8208C33.8485 3.71185 33.8485 3.67743 33.7166 3.69463H31.8473C31.7154 3.69463 31.6581 3.72904 31.6581 3.87812V6.57313C31.6581 6.74515 31.6008 6.76233 31.4517 6.76233H25.0353C24.3757 6.75217 23.7195 6.85897 23.0972 7.07773C22.3567 7.33649 21.7493 7.87866 21.4085 8.58509C21.0676 9.29151 21.0212 10.1044 21.2795 10.845C21.3196 10.9597 21.3712 11.0743 21.4228 11.189C21.7363 11.7614 22.2082 12.2312 22.7818 12.5423C23.4224 12.8805 24.0946 13.1551 24.7887 13.3622C25.5743 13.626 26.3713 13.884 27.1741 14.1421C27.591 14.2847 27.9793 14.5002 28.3209 14.7785C28.416 14.868 28.4925 14.9754 28.546 15.0945C28.5995 15.2136 28.6289 15.3421 28.6326 15.4726C28.6364 15.6031 28.6143 15.7331 28.5677 15.8551C28.5211 15.977 28.4508 16.0886 28.361 16.1834C28.2621 16.2933 28.1382 16.3779 27.9998 16.43C27.7566 16.514 27.5 16.5528 27.2429 16.5446H20.8494C20.7003 16.5446 20.6602 16.5045 20.6602 16.3554V12.0606C20.6655 11.6763 20.6348 11.2924 20.5685 10.9138C20.4451 10.0607 20.1008 9.25463 19.5697 8.57567C19.0386 7.89671 18.3392 7.36846 17.5409 7.04333C16.119 6.44045 14.5413 6.30979 13.0397 6.6706C12.1224 6.85716 11.2661 7.26944 10.5483 7.87015C9.83046 8.47086 9.2737 9.24103 8.92836 10.111C8.5775 11.0101 8.42492 11.9744 8.48109 12.9379C8.50884 14.1527 8.88283 15.3344 9.55909 16.3439C10.1566 17.2972 11.0303 18.046 12.0638 18.4905C13.0974 18.9351 14.2417 19.0544 15.3447 18.8325C16.1444 18.6836 16.8927 18.3322 17.5179 17.8118C17.5347 17.7988 17.5485 17.7824 17.5584 17.7636C17.5683 17.7448 17.574 17.7241 17.5753 17.7029C17.5753 16.8829 17.5753 16.063 17.5753 15.2086" fill="#33322B"/>
<path d="M38.8301 9.96794V18.483C38.8301 18.6149 38.8645 18.6493 38.9964 18.6493H40.8944C41.0033 18.6493 41.0434 18.6149 41.0434 18.5002V1.4242C41.0434 1.29232 41.0033 1.27515 40.8944 1.27515H39.0365C38.8874 1.27515 38.8473 1.31526 38.8473 1.46434C38.8473 4.33137 38.8473 7.13534 38.8473 9.97942" fill="#33322B"/>
<path d="M47.6261 2.65194L47.5114 2.54299C47.1215 2.17028 46.7144 1.79757 46.3245 1.39618C45.9422 1.02957 45.4379 0.817353 44.9086 0.800414C44.3792 0.783475 43.8623 0.963025 43.4574 1.30445C43.0102 1.69437 42.6031 2.14163 42.173 2.56595C42.0985 2.62329 42.1386 2.65767 42.173 2.71501C42.2074 2.77235 42.4482 2.97305 42.5801 3.12214C42.712 3.27122 42.712 3.23682 42.8037 3.12214C43.1019 2.8297 43.3772 2.54874 43.6983 2.23337C44.0075 1.93889 44.4181 1.77465 44.8451 1.77465C45.2721 1.77465 45.6827 1.93889 45.9919 2.23337C46.3072 2.53154 46.6398 2.80675 46.9552 3.14506C47.0125 3.19667 47.0699 3.2196 47.1215 3.14506C47.2706 2.99597 47.4197 2.84691 47.5516 2.69782C47.5723 2.67388 47.5976 2.65436 47.6261 2.64046" fill="#33322B"/>
<path d="M44.9485 2.66939C44.7527 2.66454 44.5579 2.69909 44.3757 2.77099C44.1934 2.8429 44.0275 2.95069 43.8878 3.08797C43.6469 3.33453 43.4233 3.57536 43.1825 3.79898C43.1251 3.85059 43.1079 3.90795 43.1825 3.96529C43.2577 4.0233 43.3251 4.09074 43.3832 4.16597C43.4577 4.24051 43.4978 4.26345 43.5724 4.16597C43.7387 3.98248 43.9222 3.81619 44.1114 3.62697C44.3095 3.43903 44.5722 3.33425 44.8453 3.33425C45.1184 3.33425 45.3812 3.43903 45.5793 3.62697C45.7112 3.75885 45.8373 3.86781 45.9692 3.9997C46.1011 4.13158 46.1527 4.26345 46.2674 4.24052C46.3821 4.21758 46.4738 4.05702 46.5655 3.98248C46.6573 3.90793 46.6401 3.89075 46.5655 3.8162L45.7857 3.08797C45.5689 2.86523 45.2762 2.73217 44.9658 2.71524" fill="#33322B"/>
<path d="M44.8345 4.40084C44.7194 4.39894 44.6052 4.42149 44.4994 4.46696C44.3937 4.51242 44.2988 4.57978 44.221 4.66462L43.8884 4.99721C43.7221 5.1635 43.7221 5.16347 43.8884 5.32976C43.9629 5.4043 43.9973 5.4043 44.0547 5.32976C44.151 5.21621 44.2565 5.11074 44.3701 5.01439C44.4987 4.88832 44.6716 4.8177 44.8517 4.8177C45.0318 4.8177 45.2048 4.88832 45.3334 5.01439C45.4423 5.12907 45.557 5.22081 45.6659 5.32976C45.7749 5.4387 45.7806 5.4043 45.838 5.32976C45.8953 5.25521 45.8896 5.27817 45.9297 5.23803C45.9698 5.19789 45.9813 5.12909 45.9297 5.07175C45.7634 4.92267 45.6143 4.77357 45.4652 4.62448C45.2904 4.46973 45.062 4.38946 44.8288 4.40084" fill="#33322B"/>
<path d="M46.6984 21.9754C46.5807 21.9228 46.4544 21.8917 46.3257 21.8837C45.6522 21.725 45.0451 21.3602 44.5887 20.8401C44.1324 20.3201 43.8496 19.6706 43.7798 18.9822C43.7713 18.8141 43.7713 18.6458 43.7798 18.4777V6.94649C43.7798 6.7974 43.8199 6.76299 43.969 6.76299H45.7924C45.9415 6.76299 45.9759 6.7974 45.9759 6.94649V18.6267C45.9669 18.8463 46.0245 19.0635 46.1412 19.2498C46.2578 19.436 46.4281 19.5826 46.6296 19.6703C46.8258 19.7704 47.0473 19.8097 47.2659 19.7831C47.4845 19.7565 47.6902 19.6654 47.8567 19.5212C47.9882 19.4168 48.0935 19.2831 48.1642 19.1308C48.2348 18.9785 48.269 18.8118 48.2638 18.644V11.7631C48.2222 10.6607 48.5292 9.57321 49.1411 8.65526C49.5078 8.10444 49.9873 7.63767 50.5477 7.28579C51.1082 6.93391 51.7369 6.70494 52.3923 6.61394C53.4807 6.40779 54.6064 6.55023 55.6091 7.02103C56.3005 7.33751 56.906 7.81505 57.3749 8.41363C57.8437 9.01221 58.1624 9.71441 58.3041 10.4615C58.3965 10.8949 58.4407 11.3372 58.436 11.7803V18.5121C58.436 18.6612 58.4016 18.6784 58.2697 18.6784H56.3889C56.257 18.6784 56.2169 18.644 56.2169 18.5121V11.6312C56.2352 10.8393 55.943 10.0717 55.4027 9.4924C55.1499 9.21751 54.8451 8.99542 54.506 8.839C54.1668 8.68257 53.8001 8.59489 53.4269 8.58103C53.0536 8.56716 52.6814 8.62742 52.3316 8.75826C51.9818 8.8891 51.6614 9.08793 51.3889 9.34331C51.0763 9.63687 50.8285 9.9926 50.6616 10.3876C50.4947 10.7826 50.4124 11.2082 50.4198 11.6369V18.5923C50.4272 19.4085 50.1337 20.1988 49.5953 20.8123C49.0569 21.4258 48.3114 21.8195 47.5012 21.9181C47.5012 21.9181 47.4668 21.9181 47.4496 21.9582L46.6984 21.9754Z" fill="#33322B"/>
<path d="M69.0496 6.82082C68.9152 7.00515 68.7908 7.19656 68.6769 7.39422C68.0634 8.42062 67.5301 9.45847 66.8535 10.4677C66.6413 10.8077 66.3783 11.1132 66.0737 11.3737C65.9598 11.4643 65.8345 11.5395 65.7009 11.5973C66.0368 11.6952 66.3662 11.8139 66.6872 11.9528C67.1126 12.1526 67.4806 12.4565 67.7572 12.8364C68.0339 13.2163 68.2102 13.6598 68.2698 14.126C68.3288 14.49 68.3595 14.8581 68.3615 15.2269V18.4781C68.3615 18.61 68.3214 18.6444 68.1953 18.6444H66.3145C66.1883 18.6444 66.1482 18.61 66.1482 18.4781V15.2269C66.1653 14.7619 66.0282 14.3043 65.7583 13.9253C65.5786 13.7013 65.348 13.5236 65.0857 13.4069C64.8233 13.2901 64.5369 13.2379 64.2502 13.2544H61.8878C61.7617 13.2544 61.7387 13.2888 61.7387 13.4035V18.4781C61.7387 18.6272 61.7043 18.6674 61.5552 18.6444H59.6745C59.5655 18.6444 59.5254 18.6444 59.5254 18.5011V1.40788C59.5254 1.2932 59.5655 1.25879 59.6745 1.25879H61.5724C61.7043 1.25879 61.7387 1.29318 61.7387 1.42506V10.9665C61.7387 11.1156 61.7387 11.15 61.928 11.15C62.3351 11.15 62.7651 11.15 63.1722 11.1156C63.4472 11.0816 63.7102 10.9828 63.9395 10.8273C64.1687 10.6718 64.3578 10.464 64.4911 10.2211C65.1447 9.0743 65.8156 7.99055 66.4808 6.87241C66.5209 6.8208 66.5381 6.76346 66.6298 6.76346C67.4326 6.76346 68.2296 6.76346 69.0324 6.76346V6.8036L69.0496 6.82082Z" fill="#33322B"/>
<path d="M0.129524 7.02097C0.129524 6.7228 0.163914 6.40744 0.18685 6.10927C0.276076 5.0284 0.660918 3.99288 1.29926 3.11608C1.98124 2.23714 2.95942 1.63598 4.05163 1.42453C4.52416 1.33492 5.00419 1.29077 5.48514 1.29266H8.19733C8.34641 1.29266 8.36934 1.33279 8.36934 1.46468V3.30532C8.36934 3.43147 8.32921 3.47159 8.19733 3.47159C7.30855 3.47159 6.43124 3.47159 5.54246 3.47159C4.77652 3.44876 4.02847 3.70559 3.43808 4.19409C2.94283 4.64359 2.6203 5.25211 2.52635 5.9143C2.4585 6.47543 2.43358 7.04093 2.45181 7.60585V8.75266C2.45181 8.88454 2.49195 8.94189 2.64104 8.94189H8.16293C8.40376 8.94189 8.36934 8.90176 8.36934 9.15979V10.966C8.36934 11.0979 8.32921 11.1323 8.19733 11.1323H2.64104C2.47475 11.1323 2.45181 11.1896 2.45181 11.3387V18.5005C2.45181 18.6439 2.4174 18.684 2.26831 18.684H0.112305V7.02097H0.129524Z" fill="#33322B"/>
<path d="M17.5593 15.1872V17.6815C17.5611 17.7033 17.5567 17.7251 17.5465 17.7444C17.5364 17.7636 17.5209 17.7797 17.502 17.7905C16.8781 18.313 16.1293 18.6647 15.3288 18.8111C14.2261 19.0224 13.0854 18.8983 12.0541 18.4547C11.0227 18.0111 10.1481 17.2684 9.54312 16.3226C8.86686 15.313 8.49287 14.1314 8.46512 12.9165C8.41496 11.9518 8.57341 10.9876 8.92961 10.0897C9.26642 9.22556 9.81626 8.46069 10.5281 7.86618C11.2399 7.27167 12.0905 6.86686 13.0008 6.68938C14.5022 6.32569 16.0808 6.45639 17.502 7.06207C18.3029 7.38246 19.0051 7.90849 19.5377 8.58707C20.0703 9.26564 20.4144 10.0727 20.5353 10.9268C20.6002 11.3152 20.6309 11.7085 20.627 12.1023V16.3971C20.627 16.5462 20.6615 16.5806 20.8105 16.5806H27.2097C27.4679 16.5818 27.7248 16.5451 27.9724 16.4717C28.2178 16.3779 28.416 16.1906 28.5235 15.9509C28.631 15.7111 28.639 15.4386 28.5458 15.1929C28.4897 15.0488 28.4014 14.9193 28.2877 14.8145C27.9531 14.5274 27.5626 14.3126 27.1409 14.1837C26.3611 13.9028 25.5583 13.662 24.7613 13.4039C24.0611 13.2089 23.3858 12.9338 22.7486 12.584C22.1779 12.2684 21.7086 11.7971 21.3954 11.225C21.2226 10.8764 21.1202 10.4972 21.0941 10.109C21.068 9.72082 21.1187 9.33126 21.2433 8.9627C21.3679 8.59413 21.564 8.25378 21.8204 7.96109C22.0767 7.66841 22.3882 7.42917 22.7372 7.25704C22.8444 7.20288 22.9556 7.15688 23.0698 7.11943C23.6904 6.90112 24.3442 6.79243 25.0021 6.79829H31.4185C31.5676 6.79829 31.6192 6.76392 31.6192 6.61483V3.91982C31.6192 3.77074 31.6593 3.73059 31.8084 3.73059H33.6835C33.7982 3.73059 33.8153 3.77072 33.8153 3.86246V6.61483C33.8153 6.76392 33.8555 6.78111 33.9816 6.78111H37.9095C38.0356 6.78111 38.0757 6.82123 38.0757 6.94738V8.66759C38.0757 8.79948 38.0356 8.8339 37.9095 8.8339H33.9644C33.8383 8.8339 33.7982 8.83391 33.7982 8.983V15.1414C33.803 15.2778 33.8164 15.4137 33.8383 15.5484C33.8784 15.8449 34.0327 16.114 34.2684 16.2982C34.5041 16.4825 34.8024 16.5673 35.0998 16.5347C36.0115 16.5347 36.9404 16.5347 37.8521 16.5347C38.0585 16.5347 38.0586 16.5347 38.0586 16.7411V18.49C38.0586 18.5818 38.0585 18.6162 37.9266 18.6162C36.9232 18.6162 35.9197 18.6162 34.9335 18.6162C34.1639 18.6318 33.415 18.367 32.8262 17.8712C32.2375 17.3753 31.8493 16.6822 31.7339 15.9212C31.6489 15.5238 31.6123 15.1175 31.6249 14.7113V8.97726C31.6249 8.8339 31.5848 8.79376 31.4357 8.79376H24.8473C24.5465 8.78703 24.246 8.81783 23.9528 8.88549C23.8122 8.93603 23.6861 9.01992 23.5851 9.12995C23.4841 9.23998 23.4113 9.37289 23.3729 9.51724C23.3346 9.66159 23.3318 9.81306 23.3649 9.9587C23.398 10.1043 23.4659 10.2398 23.5629 10.3534C23.8807 10.6451 24.2556 10.8677 24.6638 11.0071C25.4264 11.2881 26.2235 11.4887 27.0033 11.7525C27.5466 11.9145 28.0807 12.1059 28.6031 12.3259C29.3135 12.6024 29.9274 13.0808 30.3692 13.7021C30.7397 14.2492 30.9098 14.9075 30.8509 15.5657C30.8341 16.1062 30.6886 16.635 30.4265 17.1081C29.9668 17.8074 29.2534 18.3008 28.4368 18.4843C28.005 18.5882 27.5621 18.6383 27.118 18.6334H18.58C18.4481 18.6334 18.4137 18.5932 18.4137 18.4671V12.045C18.4415 11.3483 18.2378 10.6621 17.8342 10.0935C17.4306 9.52502 16.85 9.10625 16.1832 8.90271C15.6609 8.69459 15.1024 8.59248 14.5403 8.60232C13.9782 8.61217 13.4237 8.73376 12.909 8.96004C12.359 9.20216 11.8757 9.57368 11.5003 10.0429C11.1249 10.5122 10.8685 11.0653 10.753 11.655C10.5183 12.6258 10.6151 13.6472 11.0283 14.5565C11.2716 15.1219 11.6497 15.6193 12.1295 16.0051C12.6092 16.3909 13.1761 16.6534 13.7806 16.7698C14.3888 16.903 15.0217 16.8712 15.6135 16.6777C16.2053 16.4841 16.7345 16.1358 17.1465 15.6689C17.2784 15.5026 17.4103 15.3535 17.5593 15.1872Z" fill="#33322B"/>
<path d="M38.8297 9.9677V1.4641C38.8297 1.31502 38.8641 1.2749 39.0132 1.2749H40.8767C40.9857 1.2749 41.0258 1.27487 41.0258 1.42396V18.5171C41.0258 18.6261 41.0258 18.6605 40.8767 18.6605H38.9788C38.8469 18.6605 38.8125 18.6261 38.8125 18.4942C38.8125 15.6272 38.8125 12.8061 38.8125 9.97918" fill="#33322B"/>
<path d="M47.6273 2.65257C47.6273 2.68698 47.5699 2.70992 47.5527 2.72712C47.3979 2.86473 47.2541 3.01429 47.1227 3.17439C47.0481 3.24893 47.0137 3.23173 46.9563 3.17439L45.9873 2.26266C45.6794 1.96556 45.2683 1.79954 44.8405 1.79954C44.4126 1.79954 44.0015 1.96556 43.6937 2.26266C43.4012 2.54363 43.1203 2.83607 42.8049 3.15717C42.7132 3.24892 42.6558 3.24892 42.5813 3.15717C42.4554 3.00833 42.3173 2.87025 42.1684 2.74434C42.1168 2.69273 42.0996 2.66979 42.1684 2.59525C42.5985 2.18813 43.0056 1.74087 43.4529 1.33375C43.8577 0.992322 44.3746 0.812772 44.904 0.829711C45.4333 0.84665 45.9377 1.05886 46.3199 1.42548C46.7098 1.79819 47.1169 2.17091 47.5068 2.57229C47.547 2.57229 47.5814 2.62391 47.6215 2.66405" fill="#33322B"/>
<path d="M44.9485 2.66895C45.2627 2.69109 45.5591 2.823 45.7857 3.04164C46.0438 3.28247 46.3075 3.54624 46.5655 3.76987C46.6401 3.84441 46.6401 3.87881 46.5655 3.93615C46.491 3.99349 46.3821 4.19419 46.2674 4.19419C46.1527 4.19419 46.061 4.02791 45.9692 3.95337C45.8775 3.87882 45.7112 3.71252 45.5793 3.58064C45.3812 3.39269 45.1184 3.28795 44.8453 3.28795C44.5722 3.28795 44.3095 3.39269 44.1114 3.58064C43.9279 3.75266 43.7559 3.93615 43.5724 4.15404C43.4978 4.22859 43.4405 4.22859 43.3832 4.15404C43.3268 4.07573 43.2592 4.00619 43.1825 3.94763C43.1079 3.89029 43.1251 3.83296 43.1825 3.78135C43.4233 3.54052 43.6469 3.29393 43.8878 3.0703C44.0275 2.93481 44.1941 2.83014 44.3768 2.76298C44.5596 2.69583 44.7543 2.66768 44.9485 2.68039" fill="#33322B"/>
<path d="M44.8399 4.40111C44.9534 4.39518 45.0669 4.41361 45.1727 4.45515C45.2786 4.49668 45.3742 4.56039 45.4534 4.64197C45.6197 4.79105 45.7688 4.94012 45.9179 5.0892C45.9924 5.14654 46.0096 5.19817 45.9179 5.25551C45.8261 5.31285 45.8605 5.31284 45.8261 5.34724C45.7917 5.38165 45.7115 5.42178 45.6541 5.34724C45.5968 5.2727 45.4305 5.14656 45.3215 5.03188C45.1961 4.90861 45.0272 4.83953 44.8513 4.83953C44.6755 4.83953 44.5066 4.90861 44.3811 5.03188H44.3525C44.2389 5.12822 44.1335 5.23369 44.0371 5.34724C43.9855 5.42178 43.9281 5.42178 43.8708 5.34724C43.7045 5.18095 43.7045 5.18095 43.8708 5.01466L44.2034 4.68211C44.2826 4.59178 44.3807 4.51981 44.4906 4.47128C44.6005 4.42275 44.7197 4.39881 44.8399 4.40111Z" fill="#33322B"/>
</svg>
