<svg viewBox="0 0 68 16" fill="none" xmlns="http://www.w3.org/2000/svg">
<path d="M67.7287 13.2622H65.2734V15.7174H67.7287V13.2622Z" fill="#33322B"/>
<path d="M0.716797 15.7173H4.42683V10.1251V6.78915V0.798828H0.716797V15.7173Z" fill="#33322B"/>
<path d="M8.92773 6.78915V10.1251V15.7173H12.6317V0.798828H8.92773V6.78915Z" fill="#33322B"/>
<path d="M19.3585 0.798828H15.6484V15.7173H19.3585V0.798828Z" fill="#33322B"/>
<path d="M36.3369 12.4895V15.7169H47.6118V12.4895H40.0409H36.3369Z" fill="#33322B"/>
<path d="M46.6465 9.90161V6.74658H40.0409H36.3369V9.90161H40.0409H46.6465Z" fill="#33322B"/>
<path d="M36.3369 4.02625H40.0409H47.6118V0.798828H36.3369V4.02625Z" fill="#33322B"/>
<path d="M21.2393 4.11069H22.0235H25.9989V15.7173H29.709V4.11069H34.4445V0.798828H21.2393V4.11069Z" fill="#33322B"/>
<path d="M59.1989 0.798828L56.2551 5.40769L53.3172 0.798828H48.8652L53.7757 8.36967L48.7988 15.7173H53.0578L56.2973 11.1567L63.651 0.798828H59.1989Z" fill="#33322B"/>
<path d="M59.1015 8.89465L56.8936 12.0014L59.4875 15.7175H63.7405L59.1015 8.89465Z" fill="#33322B"/>
<path d="M7.90348 7.03076H5.44824V9.48601H7.90348V7.03076Z" fill="#33322B"/>
</svg>
