<svg viewBox="0 0 38 60" fill="none" xmlns="http://www.w3.org/2000/svg">
<path d="M7.60888 40.8348V45.4414H2.89624V40.848H0.364258V51.9039H2.92273V47.8011H7.63538V51.9039H10.1939V40.848L7.60888 40.8348Z" fill="#33322B"/>
<path d="M21.8246 40.8348L18.769 45.7463L15.7134 40.8348H12.9561V51.8906H15.4615V44.9178L18.7027 49.8359H18.769L22.0367 44.8648V51.8906H24.5819V40.8348H21.8246Z" fill="#33322B"/>
<path d="M34.6422 40.8347V45.4413H29.9229V40.8479H27.3711V51.9038H29.9229V47.801H34.6422V51.9038H37.2007V40.8479L34.6422 40.8347Z" fill="#33322B"/>
<path d="M5.84919 57.4397V57.8639H7.17483C7.1199 58.1521 6.95839 58.4089 6.72254 58.5834C6.4867 58.7578 6.1938 58.837 5.90219 58.8051C5.53479 58.8051 5.18244 58.6592 4.92264 58.3994C4.66285 58.1396 4.51692 57.7872 4.51692 57.4198C4.51692 57.0524 4.66285 56.7001 4.92264 56.4403C5.18244 56.1805 5.53479 56.0345 5.90219 56.0345C6.13547 56.0306 6.36544 56.0902 6.56744 56.2069C6.76943 56.3237 6.93588 56.4932 7.0489 56.6973L7.45321 56.4587C7.29289 56.1917 7.0652 55.9717 6.79297 55.8204C6.52075 55.6692 6.21356 55.5921 5.90219 55.597C5.41349 55.597 4.94481 55.7912 4.59924 56.1368C4.25368 56.4823 4.05957 56.951 4.05957 57.4397C4.05957 57.9284 4.25368 58.3971 4.59924 58.7427C4.94481 59.0882 5.41349 59.2823 5.90219 59.2823C6.12542 59.3016 6.35022 59.2743 6.56234 59.2022C6.77446 59.13 6.96927 59.0145 7.13442 58.8631C7.29956 58.7116 7.43145 58.5275 7.5217 58.3224C7.61194 58.1173 7.65859 57.8957 7.65868 57.6717V57.4596L5.84919 57.4397Z" fill="#33322B"/>
<path d="M13.091 57.7764C13.3422 57.6956 13.5558 57.5269 13.6923 57.3011C13.8288 57.0753 13.8792 56.8077 13.8339 56.5477C13.7887 56.2878 13.6511 56.0529 13.4463 55.8864C13.2415 55.72 12.9835 55.6332 12.7198 55.6421H11.2881V59.1948H11.7653V57.8692H12.6071L13.4091 59.1948H13.9394L13.091 57.7764ZM11.7653 57.4119V56.0862H12.7198C12.8956 56.0862 13.0642 56.156 13.1885 56.2803C13.3128 56.4046 13.3826 56.5732 13.3826 56.749C13.3826 56.9248 13.3128 57.0934 13.1885 57.2177C13.0642 57.342 12.8956 57.4119 12.7198 57.4119H11.7653Z" fill="#33322B"/>
<path d="M19.1272 55.5747C18.7634 55.5773 18.4084 55.6876 18.1071 55.8916C17.8059 56.0957 17.5718 56.3844 17.4343 56.7213C17.2969 57.0582 17.2623 57.4283 17.3349 57.7848C17.4075 58.1414 17.584 58.4685 17.8422 58.7249C18.1004 58.9812 18.4288 59.1554 18.7859 59.2255C19.1429 59.2955 19.5127 59.2583 19.8487 59.1184C20.1846 58.9786 20.4716 58.7424 20.6735 58.4397C20.8754 58.1369 20.9831 57.7811 20.9831 57.4173C20.984 57.1739 20.9365 56.9328 20.8434 56.708C20.7503 56.4832 20.6134 56.2791 20.4407 56.1077C20.268 55.9362 20.063 55.8008 19.8375 55.7093C19.612 55.6178 19.3706 55.5721 19.1272 55.5747ZM19.1272 58.8026C18.853 58.8039 18.5845 58.7238 18.3558 58.5724C18.1271 58.4209 17.9485 58.205 17.8426 57.952C17.7368 57.699 17.7084 57.4203 17.7611 57.1512C17.8138 56.882 17.9452 56.6345 18.1387 56.4401C18.3322 56.2457 18.579 56.1131 18.8479 56.0591C19.1168 56.0051 19.3957 56.0322 19.6492 56.1369C19.9027 56.2415 20.1194 56.419 20.2719 56.647C20.4245 56.875 20.5059 57.143 20.5059 57.4173C20.5086 57.5994 20.4748 57.7802 20.4065 57.949C20.3382 58.1179 20.2369 58.2713 20.1084 58.4004C19.98 58.5295 19.827 58.6316 19.6585 58.7007C19.49 58.7697 19.3093 58.8044 19.1272 58.8026Z" fill="#33322B"/>
<path d="M26.7715 55.6429V57.9894C26.7524 58.2074 26.6523 58.4104 26.491 58.5582C26.3296 58.7061 26.1187 58.7882 25.8998 58.7882C25.681 58.7882 25.47 58.7061 25.3087 58.5582C25.1473 58.4104 25.0473 58.2074 25.0282 57.9894V55.6429H24.5576V58.0357C24.5576 58.3873 24.6973 58.7245 24.9459 58.9731C25.1945 59.2217 25.5317 59.3614 25.8833 59.3614C26.2348 59.3614 26.572 59.2217 26.8206 58.9731C27.0692 58.7245 27.2089 58.3873 27.2089 58.0357V55.6695L26.7715 55.6429Z" fill="#33322B"/>
<path d="M32.3286 55.6426H31.0029V59.1953H31.5133V57.9293H32.3352C32.4927 57.9413 32.6509 57.9206 32.8 57.8686C32.9491 57.8166 33.0859 57.7344 33.2018 57.627C33.3176 57.5197 33.41 57.3895 33.4732 57.2448C33.5364 57.1001 33.569 56.9439 33.569 56.7859C33.569 56.628 33.5364 56.4718 33.4732 56.3271C33.41 56.1824 33.3176 56.0522 33.2018 55.9449C33.0859 55.8375 32.9491 55.7553 32.8 55.7033C32.6509 55.6513 32.4927 55.6306 32.3352 55.6426H32.3286ZM32.3286 57.4853H31.5133V56.0867H32.3352C32.5089 56.1036 32.6701 56.1846 32.7874 56.3138C32.9047 56.4431 32.9696 56.6114 32.9696 56.7859C32.9696 56.9605 32.9047 57.1288 32.7874 57.2581C32.6701 57.3873 32.5089 57.4683 32.3352 57.4853H32.3286Z" fill="#33322B"/>
<path d="M34.0339 1.93414V17.179H30.8523V3.08744C29.8183 3.41885 28.7578 3.71716 27.6907 3.96241V30.3029C26.6567 30.0775 25.6094 29.8919 24.5555 29.746V4.55888C23.5083 4.71796 22.4544 4.83065 21.3872 4.90356L18.736 8.69495L16.1377 4.91019C15.0706 4.83728 14.0101 4.7246 12.9695 4.57215V29.7593C11.9023 29.9051 10.8484 30.0908 9.80116 30.3161V20.5064V18.8427V3.96904C8.72739 3.7238 7.67353 3.42548 6.6329 3.08744V17.1856H3.47787V1.94077C2.39968 1.49889 1.34357 0.997345 0.30957 0.436157V37.2956C1.34357 36.7521 2.39968 36.2505 3.47787 35.791V20.5461H9.80116L6.6329 22.1302V34.631C7.41503 34.3725 8.20379 34.1472 8.99917 33.9682L9.76139 33.7827H9.80116C10.8948 33.5242 12.0017 33.3187 13.1153 33.153L14.2885 33.0005L14.6 32.9674L15.2164 32.9077H15.6737L16.1311 32.868V11.2269L18.7294 15.1044L21.3806 11.1805V32.868C22.4478 32.9409 23.5017 33.0602 24.5489 33.2127C25.6028 33.3717 26.65 33.5705 27.684 33.8158C28.2077 33.9417 28.7313 34.0743 29.2483 34.2135H29.3212L30.0371 34.419H30.1033L30.8457 34.6509V22.1502L28.4198 20.9372L27.684 20.5726H34.014V35.8175C35.0922 36.2594 36.1483 36.7609 37.1823 37.3221V0.456061C36.1615 0.990736 35.112 1.48342 34.0339 1.93414Z" fill="#33322B"/>
</svg>
