<svg viewBox="0 0 82 25" fill="none" xmlns="http://www.w3.org/2000/svg">
<path d="M29.464 4.95109V13.4467H32.4301C32.8702 13.4094 33.3093 13.5301 33.6685 13.7873C33.7884 13.9028 33.8837 14.0413 33.9488 14.1945C34.0139 14.3477 34.0475 14.5125 34.0475 14.679C34.0475 14.8454 34.0139 15.0102 33.9488 15.1634C33.8837 15.3166 33.7884 15.4551 33.6685 15.5706C33.3093 15.8278 32.8702 15.9485 32.4301 15.9112H24.0334C23.5933 15.9485 23.1542 15.8278 22.795 15.5706C22.6752 15.4551 22.5799 15.3166 22.5147 15.1634C22.4496 15.0102 22.416 14.8454 22.416 14.679C22.416 14.5125 22.4496 14.3477 22.5147 14.1945C22.5799 14.0413 22.6752 13.9028 22.795 13.7873C23.1542 13.5301 23.5933 13.4094 24.0334 13.4467H26.9995V7.44651H25.0118C24.5716 7.48385 24.1325 7.36311 23.7733 7.10595C23.6535 6.99043 23.5582 6.85193 23.4931 6.69872C23.428 6.54552 23.3944 6.38075 23.3944 6.21428C23.3944 6.04781 23.428 5.88304 23.4931 5.72983C23.5582 5.57663 23.6535 5.43813 23.7733 5.3226C24.1317 5.06325 24.5709 4.94029 25.0118 4.97584L29.464 4.95109ZM29.1296 2.88289H26.2069V0.269775H29.1482L29.1296 2.88289Z" fill="#33322B"/>
<path d="M44.733 5.39781C44.9723 5.14379 45.3009 4.99279 45.6495 4.97675C45.8134 4.97265 45.9761 5.00496 46.126 5.07135C46.276 5.13774 46.4093 5.23654 46.5164 5.36066C46.7757 5.71902 46.8987 6.15817 46.8631 6.5991V8.19049C46.8987 8.63142 46.7757 9.07056 46.5164 9.42892C46.4035 9.55172 46.2653 9.64853 46.1114 9.71268C45.9574 9.77683 45.7913 9.80676 45.6247 9.80044C45.314 9.80969 45.0106 9.70634 44.7701 9.50942C44.5491 9.2645 44.4085 8.95752 44.3676 8.63011C44.3319 8.42337 44.2512 8.227 44.1314 8.05477C44.0116 7.88254 43.8555 7.73863 43.6741 7.63318C42.9139 7.22568 42.0593 7.02697 41.1973 7.05731C40.6862 7.03286 40.1755 7.11064 39.6949 7.28608C39.2143 7.46152 38.7735 7.7311 38.3984 8.07903C38.0518 8.41292 37.779 8.81578 37.5977 9.26161C37.4164 9.70743 37.3305 10.1863 37.3457 10.6674C37.326 11.1003 37.4069 11.5319 37.582 11.9284C37.7572 12.3248 38.0218 12.6753 38.3551 12.9523C39.0321 13.5096 40.1529 13.7882 41.7175 13.7882C42.5667 13.8119 43.4145 13.7054 44.2314 13.4724C44.6375 13.3302 45.0104 13.1069 45.3275 12.816C45.5743 12.5519 45.9089 12.3868 46.2687 12.3516C46.4325 12.3503 46.5948 12.3832 46.7451 12.4483C46.8955 12.5133 47.0306 12.6091 47.1418 12.7294C47.2577 12.8446 47.3496 12.9816 47.4123 13.1325C47.475 13.2834 47.5072 13.4452 47.5071 13.6086C47.5071 14.1535 47.1355 14.6675 46.3863 15.1567C45.28 15.8874 43.6576 16.2527 41.5193 16.2527C39.9381 16.3466 38.3686 15.9298 37.0423 15.0638C36.347 14.569 35.785 13.9096 35.4068 13.1446C35.0286 12.3795 34.846 11.5327 34.8751 10.6798C34.8512 9.87014 34.995 9.06435 35.2977 8.31305C35.6003 7.56176 36.0552 6.8812 36.6336 6.31424C37.2429 5.73236 37.9633 5.27943 38.7517 4.98257C39.5401 4.68572 40.3803 4.55106 41.222 4.58664C41.8608 4.58139 42.4982 4.64575 43.123 4.7786C43.688 4.90112 44.2352 5.0946 44.7516 5.35447" fill="#33322B"/>
<path d="M54.1513 4.95015V5.64983C54.4681 5.32207 54.8362 5.04809 55.2412 4.83866C55.5964 4.68418 55.9808 4.60815 56.3681 4.61575C56.7413 4.61783 57.1086 4.70912 57.4393 4.88201C57.828 5.08324 58.1781 5.35158 58.4734 5.67463C58.8615 5.34699 59.298 5.08167 59.7676 4.88821C60.1949 4.71707 60.651 4.62882 61.1113 4.62815C61.9299 4.59626 62.7311 4.86994 63.3591 5.39597C63.7282 5.70274 64.0222 6.08989 64.2186 6.52779C64.415 6.96569 64.5086 7.44273 64.4922 7.92239V13.4458C64.9025 13.4102 65.3107 13.5344 65.6316 13.7925C65.7552 13.9051 65.853 14.0431 65.9182 14.197C65.9834 14.3509 66.0145 14.5171 66.0093 14.6842C66.0148 14.8504 65.9838 15.0158 65.9186 15.1688C65.8533 15.3218 65.7554 15.4586 65.6316 15.5697C65.2724 15.8269 64.8334 15.9476 64.3932 15.9103H62.0463V8.09575C62.0749 7.81758 62.0024 7.53845 61.842 7.30937C61.7585 7.23415 61.6605 7.1767 61.554 7.1405C61.4476 7.10431 61.3349 7.09013 61.2228 7.09882C60.9543 7.09675 60.6904 7.16968 60.4611 7.30937C60.0477 7.63345 59.6828 8.01502 59.3775 8.44251V13.3962C59.7896 13.361 60.1997 13.4851 60.5231 13.743C60.65 13.8627 60.7481 14.0095 60.8103 14.1725C60.8725 14.3355 60.8971 14.5104 60.8822 14.6842C60.8877 14.8504 60.8567 15.0158 60.7914 15.1688C60.7262 15.3218 60.6283 15.4586 60.5045 15.5697C60.1453 15.8269 59.7062 15.9476 59.2661 15.9103H56.9192V8.09575C56.9457 7.8207 56.8709 7.54543 56.7087 7.32173C56.6259 7.24461 56.5283 7.1851 56.4219 7.14678C56.3155 7.10846 56.2024 7.09214 56.0895 7.09882C55.7829 7.10281 55.484 7.19526 55.2288 7.36508C54.8361 7.66714 54.4952 8.03103 54.2194 8.44251V13.3962C54.6334 13.3619 55.045 13.4858 55.3712 13.743C55.4948 13.8556 55.5925 13.9936 55.6577 14.1475C55.7229 14.3014 55.754 14.4676 55.7489 14.6347C55.7544 14.8009 55.7234 14.9663 55.6582 15.1193C55.5929 15.2722 55.4949 15.4091 55.3712 15.5201C55.012 15.7773 54.5729 15.8981 54.1327 15.8607H51.9036C51.4634 15.8981 51.0243 15.7773 50.6651 15.5201C50.5453 15.4046 50.45 15.2661 50.3849 15.1129C50.3197 14.9597 50.2861 14.7949 50.2861 14.6285C50.2861 14.462 50.3197 14.2973 50.3849 14.1441C50.45 13.9909 50.5453 13.8523 50.6651 13.7368C50.9947 13.482 51.408 13.3604 51.8231 13.3962V7.39603C51.4072 7.43012 50.9938 7.30631 50.6651 7.04927C50.5428 6.93571 50.4459 6.79757 50.3808 6.64389C50.3157 6.49021 50.2839 6.32446 50.2874 6.1576C50.2831 5.99096 50.3153 5.82541 50.3816 5.67247C50.4479 5.51953 50.5468 5.38289 50.6713 5.27212C51.0297 5.01277 51.4688 4.88981 51.9098 4.92536L54.1513 4.95015Z" fill="#33322B"/>
<path d="M71.9754 14.5311V17.6272H73.4553C73.8955 17.5898 74.3346 17.7106 74.6937 17.9677C74.8136 18.0833 74.9089 18.2218 74.974 18.375C75.0391 18.5282 75.0727 18.6929 75.0727 18.8594C75.0727 19.0259 75.0391 19.1906 74.974 19.3438C74.9089 19.4971 74.8136 19.6356 74.6937 19.7511C74.3346 20.0082 73.8955 20.129 73.4553 20.0916H69.0836C68.6434 20.129 68.2044 20.0082 67.8452 19.7511C67.7214 19.64 67.6234 19.5032 67.5582 19.3502C67.4929 19.1972 67.462 19.0318 67.4675 18.8656C67.4618 18.697 67.4932 18.5291 67.5595 18.374C67.6259 18.2188 67.7255 18.0801 67.8514 17.9677C68.2105 17.7106 68.6496 17.5898 69.0898 17.6272H69.5108V7.42249H69.0898C68.6496 7.45983 68.2105 7.33906 67.8514 7.08189C67.7315 6.96637 67.6361 6.82787 67.571 6.67466C67.5059 6.52146 67.4724 6.35673 67.4724 6.19026C67.4724 6.02379 67.5059 5.85902 67.571 5.70581C67.6361 5.55261 67.7315 5.41411 67.8514 5.29858C68.2105 5.04142 68.6496 4.92064 69.0898 4.95798H71.9816V5.80015C72.5321 5.41774 73.1376 5.12122 73.7772 4.92083C74.3919 4.72541 75.0333 4.62724 75.6783 4.62982C76.4788 4.61104 77.2749 4.75319 78.0195 5.04782C78.764 5.34245 79.4419 5.78359 80.0128 6.34506C80.5687 6.83913 81.0147 7.44439 81.3219 8.12172C81.6291 8.79905 81.7907 9.53335 81.7961 10.2771C81.7999 11.0705 81.6101 11.8528 81.2432 12.5563C80.8763 13.2599 80.3435 13.8633 79.6908 14.3144C78.8687 14.9363 77.9112 15.3553 76.8965 15.5371C75.8818 15.719 74.8385 15.6586 73.8515 15.3609C73.1999 15.1634 72.5758 14.8846 71.9939 14.5311H71.9754ZM79.3131 10.2895C79.2779 9.82466 79.1381 9.37381 78.9044 8.97053C78.6187 8.42188 78.191 7.95995 77.6659 7.633C77.0649 7.27076 76.3737 7.08614 75.6721 7.10049C75.1099 7.07967 74.551 7.19424 74.0423 7.43455C73.5337 7.67485 73.0903 8.03385 72.7494 8.48133C72.3019 9.00008 72.0422 9.65452 72.0125 10.339C72.0395 10.7158 72.1475 11.0824 72.3292 11.4137C72.5109 11.745 72.7619 12.0332 73.0652 12.2586C73.8013 12.8618 74.7235 13.1914 75.6752 13.1914C76.6268 13.1914 77.5491 12.8618 78.2851 12.2586C78.5908 12.029 78.8427 11.7355 79.0234 11.3987C79.2041 11.0618 79.3094 10.6896 79.3317 10.308" fill="#33322B"/>
<path fill-rule="evenodd" clip-rule="evenodd" d="M19.9703 0.195557H10.0256V10.1402H0.0810547V20.0848H19.9703V0.195557Z" fill="#33322B"/>
<path d="M8.6138 0.195557H0.0810547V8.72836H8.6138V0.195557Z" fill="#33322B"/>
<path d="M0.28125 24.2036V21.7267H0.615651V24.2036H0.28125Z" fill="#33322B"/>
<path d="M1.30566 24.2026V22.345H1.56569V22.5245C1.65697 22.4374 1.76683 22.3722 1.88694 22.3336C2.00704 22.2949 2.13428 22.284 2.25921 22.3016C2.37874 22.2993 2.49792 22.316 2.6122 22.3512C2.69742 22.3819 2.76951 22.4409 2.81652 22.5184C2.86276 22.5921 2.89432 22.6741 2.90941 22.7598C2.9204 22.8648 2.9204 22.9707 2.90941 23.0756V24.2212H2.58121V23.1437C2.58493 23.086 2.58493 23.0281 2.58121 22.9704C2.58121 22.927 2.58126 22.8775 2.5503 22.828C2.53832 22.7837 2.51224 22.7446 2.47599 22.7165C2.438 22.6861 2.39344 22.6649 2.34591 22.6546C2.27776 22.6334 2.20675 22.623 2.13539 22.6236C2.05711 22.6138 1.97762 22.6214 1.90266 22.6461C1.82769 22.6707 1.75916 22.7117 1.70197 22.766C1.61889 22.8877 1.57955 23.034 1.59048 23.1809V24.2212L1.30566 24.2026Z" fill="#33322B"/>
<path d="M3.42969 22.6226V22.3254H3.77029L3.826 21.7928L4.08609 21.7433V22.3254H4.58142V22.6226H4.08609V23.6442C4.08146 23.7158 4.09872 23.7871 4.1356 23.8486C4.16656 23.8919 4.24086 23.9105 4.35851 23.9105H4.58142V24.2016H4.29661C4.22388 24.2202 4.14757 24.2199 4.07498 24.2008C4.00239 24.1816 3.93594 24.1441 3.88193 24.092C3.82792 24.0398 3.78814 23.9747 3.76643 23.9029C3.74472 23.831 3.74179 23.7548 3.75789 23.6814V22.6164L3.42969 22.6226Z" fill="#33322B"/>
<path d="M5.88308 24.24C5.74934 24.2415 5.61601 24.2249 5.48677 24.1904C5.38944 24.1642 5.29869 24.1178 5.22047 24.0542C5.15265 23.9951 5.09963 23.9209 5.06567 23.8375C5.02391 23.7535 4.99469 23.6637 4.97897 23.5712C4.97185 23.4682 4.97185 23.3647 4.97897 23.2616C4.97719 23.1327 4.98969 23.0039 5.01616 22.8777C5.0396 22.7681 5.08601 22.6647 5.15237 22.5743C5.2202 22.4721 5.32054 22.3957 5.43718 22.3576C5.58193 22.3049 5.73521 22.2797 5.8892 22.2833C5.98704 22.2831 6.08468 22.2935 6.18029 22.3142C6.25412 22.3333 6.32494 22.3625 6.3908 22.4009C6.44852 22.4369 6.49722 22.4856 6.53321 22.5433C6.56693 22.5964 6.59595 22.6524 6.61991 22.7106C6.63978 22.7795 6.65424 22.8499 6.66322 22.9211C6.66837 22.9953 6.66837 23.0698 6.66322 23.144V23.3917H5.27618C5.27601 23.5449 5.32847 23.6936 5.42479 23.8127C5.48665 23.8677 5.55954 23.9088 5.63855 23.9334C5.71756 23.9579 5.80097 23.9653 5.88308 23.9551C5.99818 23.9589 6.1131 23.9443 6.2236 23.9118C6.31618 23.8802 6.40223 23.8319 6.4775 23.7694L6.6509 23.9985C6.43034 24.1649 6.15918 24.2502 5.88308 24.24ZM5.88308 22.5743C5.72736 22.5614 5.57248 22.6079 5.44958 22.7044C5.35582 22.8158 5.30141 22.9551 5.29478 23.1007H6.37221C6.37221 23.0264 6.37221 22.9706 6.37221 22.9273C6.37005 22.8797 6.3574 22.8332 6.33509 22.7911C6.3224 22.7454 6.29657 22.7045 6.26079 22.6734C6.21992 22.6376 6.1711 22.6122 6.11838 22.5991C6.03582 22.5763 5.9499 22.5679 5.86448 22.5743H5.88308Z" fill="#33322B"/>
<path d="M7.20703 24.2032V22.3456H7.46713L7.50432 22.5747C7.55721 22.4922 7.63543 22.4292 7.72723 22.3951C7.85793 22.3462 7.99629 22.321 8.13586 22.3208V22.6552C8.05342 22.6481 7.97041 22.6576 7.89171 22.6831C7.81301 22.7086 7.74022 22.7496 7.67764 22.8038C7.58044 22.9242 7.53186 23.0766 7.54143 23.231V24.2218L7.20703 24.2032Z" fill="#33322B"/>
<path d="M8.60156 24.2025V22.3448H8.86166V22.5244C8.95295 22.4373 9.06273 22.372 9.18283 22.3334C9.30294 22.2948 9.43025 22.2839 9.55518 22.3015C9.67471 22.2992 9.7939 22.3159 9.90818 22.351C9.9934 22.3818 10.0655 22.4408 10.1125 22.5182C10.1587 22.592 10.1903 22.674 10.2054 22.7597C10.2133 22.8648 10.2133 22.9704 10.2054 23.0755V24.2211H9.87718V23.1436C9.87718 23.0693 9.87718 23.0136 9.87718 22.9703C9.87718 22.9269 9.87718 22.8774 9.87718 22.8279C9.86521 22.7836 9.83913 22.7444 9.80288 22.7164C9.76489 22.686 9.72041 22.6648 9.67287 22.6545C9.60473 22.6333 9.53364 22.6228 9.46228 22.6235C9.38399 22.6136 9.30451 22.6213 9.22955 22.646C9.15458 22.6706 9.08605 22.7115 9.02886 22.7659C8.94578 22.8876 8.90644 23.0338 8.91737 23.1808V24.2211L8.60156 24.2025Z" fill="#33322B"/>
<path d="M11.4309 24.2402C11.242 24.2589 11.0532 24.2034 10.9046 24.0854C10.8481 24.0151 10.8063 23.9342 10.7817 23.8475C10.757 23.7608 10.7499 23.6701 10.7609 23.5807C10.7718 23.4912 10.8006 23.4048 10.8455 23.3267C10.8904 23.2485 10.9504 23.1801 11.0222 23.1256C11.3322 23.0087 11.6639 22.9602 11.9944 22.9832H12.0996C12.1067 22.8712 12.0714 22.7606 12.0006 22.6736C11.89 22.6037 11.7591 22.5732 11.629 22.5869C11.4317 22.5866 11.2385 22.6424 11.0718 22.7479L10.8984 22.494C11.0008 22.4302 11.1111 22.3803 11.2266 22.3454C11.367 22.3023 11.5132 22.2814 11.66 22.2835C11.789 22.2807 11.9178 22.2932 12.0439 22.3206C12.1336 22.3421 12.214 22.392 12.273 22.463C12.3295 22.5284 12.368 22.6073 12.3845 22.6921C12.396 22.8054 12.396 22.9195 12.3845 23.0327V23.7014C12.3698 23.7604 12.3698 23.822 12.3845 23.881C12.437 23.8965 12.4929 23.8965 12.5454 23.881V24.1721H12.4092C12.3337 24.1773 12.2583 24.16 12.1925 24.1225C12.1401 24.0798 12.1031 24.021 12.0872 23.9553C12.0066 24.0495 11.9056 24.124 11.7919 24.1734C11.6782 24.2227 11.5547 24.2456 11.4309 24.2402ZM11.4804 23.9553C11.6486 23.9681 11.8157 23.9197 11.951 23.8191C12.0046 23.7599 12.0455 23.6904 12.071 23.6147C12.0966 23.5391 12.1063 23.459 12.0996 23.3794V23.2618H12.0129C11.8058 23.2562 11.5986 23.2686 11.3937 23.2989C11.2943 23.3101 11.2 23.3487 11.1213 23.4104C11.0674 23.4765 11.0408 23.5607 11.047 23.6457C11.0438 23.6888 11.0499 23.7321 11.0649 23.7727C11.0798 23.8133 11.1033 23.8502 11.1337 23.881C11.2352 23.9507 11.3576 23.9835 11.4804 23.9739V23.9553Z" fill="#33322B"/>
<path d="M12.8984 22.6226V22.3254H13.239L13.2947 21.7928L13.5548 21.7433V22.3254H14.0502V22.6226H13.5548V23.6442C13.5501 23.7158 13.5675 23.7871 13.6044 23.8486C13.6044 23.8919 13.7096 23.9105 13.8273 23.9105H14.0502V24.2016H13.7716C13.6947 24.2108 13.6167 24.2046 13.5423 24.1833C13.4679 24.162 13.3984 24.1261 13.3381 24.0777C13.2528 23.9641 13.2131 23.8228 13.2266 23.6814V22.6164L12.8984 22.6226Z" fill="#33322B"/>
<path d="M14.6113 22.1136V21.7173H14.9395V22.1136H14.6113ZM14.6113 24.2189V22.3613H14.9395V24.2189H14.6113Z" fill="#33322B"/>
<path d="M17.1178 23.9727C16.9145 24.1289 16.6653 24.2136 16.4089 24.2136C16.1525 24.2136 15.9032 24.1289 15.6999 23.9727C15.5585 23.753 15.4834 23.4972 15.4834 23.2359C15.4834 22.9746 15.5585 22.7188 15.6999 22.499C15.9032 22.3428 16.1525 22.2582 16.4089 22.2582C16.6653 22.2582 16.9145 22.3428 17.1178 22.499C17.2592 22.7188 17.3344 22.9746 17.3344 23.2359C17.3344 23.4972 17.2592 23.753 17.1178 23.9727ZM15.9537 23.7498C16.0112 23.8105 16.0819 23.8571 16.1603 23.8861C16.2387 23.9151 16.3227 23.9257 16.4058 23.917C16.4899 23.9262 16.5749 23.9159 16.6544 23.8869C16.7339 23.8579 16.8056 23.811 16.864 23.7498C16.9663 23.6012 17.0144 23.4219 17.0002 23.2421C17.0145 23.0641 16.9663 22.8868 16.864 22.7405C16.8056 22.6793 16.7339 22.6325 16.6544 22.6035C16.5749 22.5745 16.4899 22.5641 16.4058 22.5733C16.3227 22.5646 16.2387 22.5752 16.1603 22.6042C16.0819 22.6332 16.0112 22.6798 15.9537 22.7405C15.8492 22.886 15.7988 23.0634 15.8113 23.2421C15.793 23.4309 15.8435 23.6201 15.9537 23.7746V23.7498Z" fill="#33322B"/>
<path d="M17.8633 24.2025V22.3448H18.1233V22.5244C18.2146 22.4373 18.3244 22.372 18.4446 22.3334C18.5647 22.2948 18.6919 22.2839 18.8168 22.3015C18.9364 22.2986 19.0557 22.3154 19.1698 22.351C19.2557 22.3834 19.3293 22.4419 19.3803 22.5182C19.4247 22.5923 19.4541 22.6743 19.467 22.7597C19.478 22.8647 19.478 22.9705 19.467 23.0755V24.2211H19.1388V23.1436C19.1425 23.0859 19.1425 23.028 19.1388 22.9703C19.1369 22.9213 19.1264 22.8732 19.1079 22.8279C19.098 22.7842 19.0741 22.7451 19.0398 22.7164C19.0001 22.6849 18.9533 22.6636 18.9035 22.6545C18.8355 22.6328 18.7644 22.6223 18.693 22.6235C18.6148 22.6145 18.5355 22.6226 18.4607 22.6472C18.3858 22.6717 18.3173 22.7123 18.2596 22.7659C18.1795 22.8889 18.1404 23.0342 18.1481 23.1808V24.2211L17.8633 24.2025Z" fill="#33322B"/>
<path d="M20.6939 24.2402C20.505 24.259 20.3162 24.2034 20.1675 24.0854C20.117 24.0295 20.0783 23.9639 20.0538 23.8926C20.0293 23.8213 20.0196 23.7458 20.0251 23.6706C20.0131 23.5645 20.0311 23.4572 20.0771 23.3608C20.123 23.2645 20.1951 23.183 20.2852 23.1257C20.5974 23.0089 20.931 22.9603 21.2636 22.9833H21.3627C21.3698 22.8713 21.3344 22.7607 21.2636 22.6736C21.1538 22.6019 21.0222 22.5712 20.892 22.5869C20.6967 22.5868 20.5055 22.6427 20.3409 22.7479L20.1675 22.494C20.2677 22.4302 20.376 22.3803 20.4895 22.3454C20.63 22.3028 20.7762 22.2819 20.923 22.2835C21.054 22.2805 21.185 22.2929 21.3131 22.3207C21.4022 22.3437 21.4821 22.3934 21.5422 22.4631C21.5987 22.5284 21.6371 22.6074 21.6537 22.6922C21.6648 22.8055 21.6648 22.9195 21.6537 23.0328V23.7015C21.6382 23.7604 21.6382 23.8222 21.6537 23.8811C21.7039 23.8976 21.7582 23.8976 21.8085 23.8811V24.1721H21.6723C21.5967 24.1774 21.5213 24.1601 21.4555 24.1226C21.4054 24.0789 21.3707 24.0203 21.3565 23.9554C21.2746 24.0497 21.1725 24.1243 21.0577 24.1736C20.943 24.2229 20.8186 24.2457 20.6939 24.2402ZM20.7496 23.9554C20.9177 23.9682 21.0849 23.9198 21.2202 23.8192C21.3226 23.6965 21.3737 23.539 21.3627 23.3795V23.2619H21.2512C21.0441 23.2555 20.8368 23.268 20.632 23.299C20.5325 23.3102 20.4382 23.3488 20.3595 23.4105C20.3306 23.442 20.3085 23.4792 20.2946 23.5197C20.2807 23.5602 20.2755 23.6031 20.279 23.6458C20.2753 23.6895 20.2817 23.7335 20.2979 23.7743C20.314 23.8151 20.3393 23.8517 20.3719 23.8811C20.481 23.9597 20.6164 23.993 20.7496 23.974V23.9554Z" fill="#33322B"/>
<path d="M22.8244 24.2085C22.7648 24.2151 22.7046 24.2085 22.6479 24.1892C22.5912 24.17 22.5394 24.1385 22.4962 24.097C22.4254 23.9844 22.3929 23.8519 22.4033 23.7193V21.583H22.7253V23.6822C22.7169 23.7473 22.7322 23.8132 22.7686 23.8679C22.7686 23.8679 22.8491 23.9113 22.9358 23.9113H23.0101V24.2023L22.8244 24.2085Z" fill="#33322B"/>
<path d="M25.5876 24.2409C25.417 24.2553 25.2453 24.234 25.0833 24.1786C24.9213 24.1232 24.7725 24.0348 24.6464 23.9189C24.4249 23.6479 24.3162 23.302 24.343 22.953C24.3291 22.7776 24.3505 22.6013 24.4058 22.4344C24.4611 22.2674 24.5492 22.1132 24.665 21.9808C24.9236 21.753 25.2622 21.6372 25.6062 21.6588C25.7712 21.6505 25.9361 21.6752 26.0914 21.7316C26.2467 21.7879 26.389 21.8748 26.5102 21.987L26.2687 22.2347C26.0871 22.0713 25.8504 21.9828 25.6062 21.987C24.987 21.987 24.6836 22.309 24.6836 22.953C24.6626 23.2151 24.7448 23.475 24.9127 23.6775C25.0047 23.7643 25.1141 23.8307 25.2336 23.8723C25.3531 23.914 25.4801 23.9298 25.6062 23.9189C25.7411 23.9252 25.8759 23.9041 26.0025 23.857C26.1074 23.8092 26.2036 23.7443 26.2873 23.6651L26.5288 23.9004C26.403 24.0177 26.2547 24.1083 26.093 24.1668C25.9312 24.2254 25.7593 24.2506 25.5876 24.2409Z" fill="#33322B"/>
<path d="M28.5318 23.9735C28.3299 24.1301 28.0815 24.2152 27.8259 24.2152C27.5703 24.2152 27.322 24.1301 27.12 23.9735C26.9749 23.7551 26.8975 23.4988 26.8975 23.2366C26.8975 22.9744 26.9749 22.7181 27.12 22.4997C27.322 22.3431 27.5703 22.2581 27.8259 22.2581C28.0815 22.2581 28.3299 22.3431 28.5318 22.4997C28.6769 22.7181 28.7544 22.9744 28.7544 23.2366C28.7544 23.4988 28.6769 23.7551 28.5318 23.9735ZM27.3677 23.7506C27.4264 23.8114 27.4981 23.858 27.5775 23.8869C27.6569 23.9159 27.7419 23.9264 27.8259 23.9177C27.9099 23.9255 27.9946 23.9146 28.0738 23.8857C28.1531 23.8568 28.2249 23.8106 28.2841 23.7506C28.3834 23.6006 28.4312 23.4224 28.4203 23.2428C28.4316 23.0652 28.3837 22.8888 28.2841 22.7413C28.2249 22.6812 28.1531 22.6351 28.0738 22.6061C27.9946 22.5772 27.9099 22.5663 27.8259 22.5741C27.7419 22.5654 27.6569 22.5759 27.5775 22.6049C27.4981 22.6338 27.4264 22.6805 27.3677 22.7413C27.2654 22.8875 27.2172 23.0649 27.2315 23.2428C27.2114 23.4309 27.2597 23.62 27.3677 23.7753V23.7506Z" fill="#33322B"/>
<path d="M29.3008 24.2025V22.3449H29.5609V22.5244C29.6476 22.3758 29.8767 22.3015 30.2296 22.3015C30.3687 22.292 30.5082 22.3132 30.6383 22.3635C30.714 22.398 30.7738 22.4599 30.8055 22.5368C30.9108 22.382 31.1522 22.3015 31.5237 22.3015C31.6241 22.2992 31.7242 22.3118 31.821 22.3387C31.8908 22.3589 31.956 22.3925 32.013 22.4378C32.0639 22.483 32.1023 22.5406 32.1244 22.6049C32.1461 22.6738 32.1626 22.7442 32.174 22.8155C32.174 22.8898 32.174 22.9765 32.174 23.0755V24.2211H31.8396V23.1437C31.8434 23.0859 31.8434 23.028 31.8396 22.9703C31.8445 22.9229 31.8445 22.8752 31.8396 22.8279C31.8297 22.7843 31.8057 22.7451 31.7714 22.7164C31.7365 22.6849 31.6938 22.6636 31.6476 22.6545C31.5796 22.6328 31.5084 22.6223 31.437 22.6235C31.3448 22.6206 31.2527 22.6331 31.1646 22.6607C31.0977 22.6842 31.0394 22.7274 30.9974 22.7845C30.9661 22.8386 30.9432 22.897 30.9293 22.9579C30.9218 23.032 30.9218 23.1067 30.9293 23.1808V24.2211H30.6011V23.1437C30.6049 23.0715 30.6049 22.9991 30.6011 22.9269C30.5923 22.8732 30.5756 22.821 30.5516 22.7721C30.5397 22.745 30.5217 22.7209 30.4992 22.7016C30.4767 22.6824 30.4502 22.6684 30.4216 22.6607C30.342 22.6334 30.258 22.6208 30.1739 22.6235C30.0796 22.6211 29.9855 22.6336 29.8952 22.6607C29.8309 22.6859 29.7751 22.7289 29.7342 22.7845C29.7029 22.8386 29.6799 22.897 29.6661 22.9579C29.6586 23.032 29.6586 23.1067 29.6661 23.1808V24.2211L29.3008 24.2025Z" fill="#33322B"/>
<path d="M32.7988 24.2023V22.3446H33.0589V22.5242C33.1455 22.3756 33.3685 22.3013 33.7277 22.3013C33.8667 22.2924 34.0061 22.3135 34.1364 22.3632C34.212 22.3978 34.2717 22.4597 34.3035 22.5366C34.4026 22.3818 34.6441 22.3013 35.0218 22.3013C35.1222 22.299 35.2223 22.3115 35.319 22.3384C35.3883 22.36 35.4533 22.3935 35.511 22.4375C35.5618 22.4816 35.5984 22.5398 35.6162 22.6047C35.6408 22.6727 35.6575 22.7434 35.6658 22.8153C35.6726 22.9018 35.6726 22.9888 35.6658 23.0753V24.2209H35.3376V23.1434C35.3415 23.0857 35.3415 23.0278 35.3376 22.9701C35.3376 22.9267 35.3376 22.8834 35.3376 22.8277C35.3253 22.7851 35.3018 22.7465 35.2695 22.7162C35.233 22.6871 35.1908 22.666 35.1456 22.6543C35.0775 22.6331 35.0065 22.6226 34.9351 22.6233C34.8408 22.6209 34.7468 22.6334 34.6565 22.6605C34.5922 22.6857 34.5364 22.7286 34.4955 22.7843C34.4594 22.8366 34.4341 22.8955 34.4212 22.9577C34.4137 23.0318 34.4137 23.1065 34.4212 23.1806V24.2209H34.0992V23.1434C34.1036 23.0712 34.1036 22.9989 34.0992 22.9267C34.0926 22.8732 34.0781 22.821 34.0559 22.7719C34.0419 22.7451 34.0226 22.7213 33.9992 22.7022C33.9757 22.683 33.9487 22.6688 33.9196 22.6605C33.8421 22.6332 33.7602 22.6206 33.6781 22.6233C33.5838 22.6209 33.4898 22.6334 33.3995 22.6605C33.3342 22.684 33.278 22.7273 33.2384 22.7843C33.2043 22.8369 33.1811 22.8959 33.1703 22.9577C33.1629 23.0318 33.1629 23.1065 33.1703 23.1806V24.2209L32.7988 24.2023Z" fill="#33322B"/>
<path d="M36.3379 22.1136V21.7173H36.6723V22.1136H36.3379ZM36.3379 24.2189V22.3613H36.6599V24.2189H36.3379Z" fill="#33322B"/>
<path d="M37.9671 24.2383C37.6824 24.2477 37.4015 24.17 37.1621 24.0154L37.3293 23.7615C37.5273 23.8867 37.7577 23.9513 37.9919 23.9473C38.1103 23.9558 38.2289 23.9367 38.3386 23.8916C38.3756 23.8683 38.4052 23.835 38.4238 23.7955C38.4425 23.756 38.4495 23.712 38.4439 23.6687C38.447 23.6339 38.4398 23.5989 38.4233 23.5681C38.4068 23.5373 38.3817 23.512 38.351 23.4953C38.2362 23.4465 38.1155 23.4132 37.9919 23.3962L37.7442 23.3467C37.6742 23.3329 37.6058 23.3122 37.5399 23.2848C37.482 23.2628 37.4293 23.2291 37.3851 23.1857C37.3443 23.143 37.3127 23.0924 37.2922 23.0371C37.267 22.9676 37.2544 22.8942 37.255 22.8203C37.2491 22.7442 37.2618 22.6678 37.292 22.5977C37.3222 22.5275 37.369 22.4658 37.4284 22.4178C37.5964 22.3122 37.7943 22.2644 37.9919 22.2816C38.24 22.272 38.486 22.3298 38.704 22.4488L38.5491 22.7151C38.3794 22.6258 38.1899 22.5811 37.9981 22.585C37.8858 22.5767 37.7732 22.5958 37.6699 22.6408C37.6413 22.6608 37.6183 22.6878 37.6032 22.7192C37.588 22.7507 37.5811 22.7855 37.5832 22.8203C37.5787 22.8546 37.5846 22.8894 37.6001 22.9203C37.6155 22.9512 37.6398 22.9767 37.6699 22.9937C37.7749 23.0455 37.888 23.0791 38.0043 23.0928L38.2643 23.1423C38.3321 23.157 38.3984 23.1778 38.4625 23.2043C38.5247 23.225 38.5816 23.2587 38.6296 23.3033C38.6718 23.3425 38.7037 23.3914 38.7225 23.4458C38.749 23.5127 38.7617 23.5843 38.7597 23.6563C38.7687 23.7411 38.7564 23.8269 38.724 23.9058C38.6916 23.9847 38.64 24.0543 38.5739 24.1083C38.3891 24.2109 38.1778 24.2562 37.9671 24.2383Z" fill="#33322B"/>
<path d="M39.899 24.2383C39.6123 24.2478 39.3295 24.1701 39.0879 24.0154L39.255 23.7615C39.4539 23.8848 39.6837 23.9492 39.9176 23.9473C40.038 23.9556 40.1586 23.9366 40.2705 23.8916C40.3064 23.8675 40.3347 23.8339 40.3523 23.7944C40.3698 23.755 40.3758 23.7114 40.3696 23.6687C40.3725 23.6346 40.366 23.6004 40.3507 23.5698C40.3354 23.5392 40.3119 23.5134 40.2829 23.4953C40.1659 23.4467 40.0431 23.4135 39.9176 23.3962L39.6699 23.3467C39.6017 23.3337 39.5353 23.3129 39.4718 23.2848C39.4128 23.2613 39.3584 23.2277 39.3108 23.1857C39.27 23.143 39.2384 23.0924 39.2179 23.0371C39.1927 22.9676 39.1801 22.8942 39.1807 22.8203C39.1758 22.7443 39.1891 22.6683 39.2192 22.5983C39.2493 22.5284 39.2955 22.4665 39.3541 22.4178C39.5221 22.3122 39.72 22.2644 39.9176 22.2816C40.1677 22.2721 40.4158 22.3298 40.6359 22.4488L40.4811 22.7151C40.3092 22.6258 40.1175 22.5811 39.9238 22.585C39.8135 22.5764 39.7028 22.5956 39.6018 22.6408C39.5716 22.6596 39.5471 22.6862 39.5308 22.7178C39.5144 22.7494 39.5069 22.7848 39.5089 22.8203C39.506 22.8544 39.5126 22.8886 39.5279 22.9192C39.5432 22.9498 39.5666 22.9756 39.5956 22.9937C39.7014 23.0436 39.8142 23.077 39.93 23.0928L40.19 23.1423C40.26 23.1561 40.3285 23.1769 40.3944 23.2043C40.456 23.2264 40.5127 23.26 40.5616 23.3033C40.5995 23.3447 40.6288 23.3931 40.6483 23.4458C40.6799 23.5113 40.6948 23.5836 40.6916 23.6563C40.7006 23.7411 40.6883 23.8269 40.6559 23.9058C40.6235 23.9847 40.5719 24.0543 40.5058 24.1083C40.3204 24.2095 40.1096 24.2547 39.899 24.2383Z" fill="#33322B"/>
<path d="M41.2012 22.1136V21.7173H41.5356V22.1136H41.2012ZM41.2012 24.2189V22.3613H41.5232V24.2189H41.2012Z" fill="#33322B"/>
<path d="M43.7205 23.9726C43.5171 24.1288 43.2678 24.2134 43.0114 24.2134C42.755 24.2134 42.5058 24.1288 42.3024 23.9726C42.1611 23.7528 42.0859 23.4971 42.0859 23.2357C42.0859 22.9744 42.1611 22.7187 42.3024 22.4989C42.5058 22.3427 42.755 22.2581 43.0114 22.2581C43.2678 22.2581 43.5171 22.3427 43.7205 22.4989C43.8618 22.7187 43.9369 22.9744 43.9369 23.2357C43.9369 23.4971 43.8618 23.7528 43.7205 23.9726ZM42.5501 23.7497C42.6094 23.8098 42.6812 23.8559 42.7604 23.8848C42.8397 23.9137 42.9243 23.9247 43.0083 23.9169C43.0924 23.926 43.1775 23.9157 43.2569 23.8868C43.3364 23.8578 43.4081 23.8109 43.4666 23.7497C43.5689 23.6011 43.6169 23.4218 43.6028 23.2419C43.617 23.064 43.5689 22.8867 43.4666 22.7404C43.4081 22.6792 43.3364 22.6323 43.2569 22.6033C43.1775 22.5744 43.0924 22.564 43.0083 22.5732C42.9243 22.5654 42.8397 22.5764 42.7604 22.6053C42.6812 22.6342 42.6094 22.6803 42.5501 22.7404C42.4505 22.8879 42.4026 23.0643 42.4139 23.2419C42.3975 23.4298 42.4455 23.6176 42.5501 23.7745V23.7497Z" fill="#33322B"/>
<path d="M44.4658 24.2026V22.345H44.7259V22.5245C44.8172 22.4374 44.927 22.3722 45.0471 22.3336C45.1672 22.2949 45.2945 22.284 45.4194 22.3016C45.539 22.2993 45.6581 22.316 45.7724 22.3512C45.8583 22.3835 45.9319 22.442 45.9829 22.5184C46.0272 22.5924 46.0567 22.6745 46.0696 22.7598C46.0806 22.8648 46.0806 22.9707 46.0696 23.0756V24.2212H45.7414V23.1437C45.7452 23.086 45.7452 23.0281 45.7414 22.9704C45.7466 22.923 45.7466 22.8753 45.7414 22.828C45.7315 22.7844 45.7076 22.7452 45.6733 22.7165C45.6336 22.685 45.5868 22.6638 45.5371 22.6546C45.469 22.6329 45.3979 22.6224 45.3265 22.6236C45.2483 22.6146 45.169 22.6227 45.0942 22.6473C45.0194 22.6719 44.9508 22.7124 44.8931 22.766C44.81 22.8877 44.7707 23.034 44.7816 23.1809V24.2212L44.4658 24.2026Z" fill="#33322B"/>
<path d="M49.1841 23.9736C48.9821 24.1303 48.7338 24.2153 48.4782 24.2153C48.2226 24.2153 47.9742 24.1303 47.7723 23.9736C47.6271 23.7553 47.5498 23.4989 47.5498 23.2367C47.5498 22.9746 47.6271 22.7182 47.7723 22.4999C47.9742 22.3432 48.2226 22.2582 48.4782 22.2582C48.7338 22.2582 48.9821 22.3432 49.1841 22.4999C49.3292 22.7182 49.4066 22.9746 49.4066 23.2367C49.4066 23.4989 49.3292 23.7553 49.1841 23.9736ZM48.02 23.7507C48.0787 23.8115 48.1504 23.8581 48.2298 23.8871C48.3092 23.916 48.3941 23.9266 48.4782 23.9179C48.5622 23.9257 48.6469 23.9147 48.7261 23.8858C48.8053 23.8569 48.8772 23.8108 48.9364 23.7507C49.0356 23.6007 49.0835 23.4225 49.0727 23.2429C49.084 23.0653 49.036 22.8889 48.9364 22.7414C48.8772 22.6813 48.8053 22.6352 48.7261 22.6063C48.6469 22.5773 48.5622 22.5664 48.4782 22.5742C48.3941 22.5655 48.3092 22.576 48.2298 22.605C48.1504 22.6339 48.0787 22.6806 48.02 22.7414C47.9176 22.8876 47.8695 23.065 47.8838 23.2429C47.8636 23.4311 47.912 23.6201 48.02 23.7755V23.7507Z" fill="#33322B"/>
<path d="M49.9346 24.2025V22.3448H50.1947V22.5244C50.286 22.4373 50.3957 22.372 50.5158 22.3334C50.6359 22.2948 50.7633 22.2839 50.8882 22.3015C51.0077 22.2992 51.1269 22.3159 51.2412 22.351C51.3264 22.3818 51.3985 22.4408 51.4455 22.5182C51.4891 22.5933 51.5205 22.6748 51.5384 22.7597C51.5463 22.8648 51.5463 22.9704 51.5384 23.0755V24.2211H51.2102V23.1436C51.2102 23.0693 51.2102 23.0136 51.2102 22.9703C51.2102 22.9269 51.2102 22.8774 51.2102 22.8279C51.1958 22.7847 51.1702 22.7462 51.1359 22.7164C51.0979 22.686 51.0534 22.6648 51.0059 22.6545C50.9376 22.6337 50.8666 22.6233 50.7953 22.6235C50.717 22.6136 50.6375 22.6213 50.5626 22.646C50.4876 22.6706 50.4191 22.7115 50.3619 22.7659C50.2788 22.8876 50.2395 23.0338 50.2504 23.1808V24.2211L49.9346 24.2025Z" fill="#33322B"/>
<path d="M53.1533 24.2036V21.7267H53.5991L54.4413 23.7515L55.2896 21.7267H55.7293V24.2036H55.3949V22.2716L54.5775 24.2036H54.2927L53.4815 22.2778V24.2036H53.1533Z" fill="#33322B"/>
<path d="M56.4111 22.1136V21.7173H56.7393V22.1136H56.4111ZM56.4111 24.2189V22.3613H56.7393V24.2189H56.4111Z" fill="#33322B"/>
<path d="M58.0329 24.2385C57.7461 24.2487 57.463 24.1709 57.2217 24.0156L57.3889 23.7617C57.5878 23.8849 57.8175 23.9494 58.0515 23.9474C58.1718 23.9558 58.2925 23.9367 58.4044 23.8917C58.4402 23.8676 58.4685 23.834 58.486 23.7945C58.5036 23.7551 58.5097 23.7115 58.5035 23.6688C58.5066 23.634 58.4994 23.5991 58.4829 23.5683C58.4664 23.5375 58.4413 23.5121 58.4106 23.4954C58.2961 23.4457 58.1753 23.4124 58.0515 23.3963L57.8038 23.3468C57.7356 23.3338 57.669 23.3131 57.6056 23.2849C57.5459 23.2628 57.4912 23.2291 57.4446 23.1858C57.4038 23.1431 57.3723 23.0925 57.3518 23.0372C57.3266 22.9677 57.3139 22.8944 57.3146 22.8205C57.3087 22.7443 57.3213 22.6679 57.3515 22.5978C57.3817 22.5277 57.4286 22.466 57.488 22.418C57.6559 22.3124 57.8538 22.2645 58.0515 22.2818C58.3015 22.2732 58.5492 22.3308 58.7697 22.4489L58.6087 22.7152C58.4393 22.6251 58.2494 22.5803 58.0576 22.5852C57.9472 22.5746 57.8361 22.5938 57.7357 22.6409C57.7055 22.6597 57.6809 22.6863 57.6645 22.7179C57.6482 22.7495 57.6407 22.785 57.6428 22.8205C57.6399 22.8546 57.6464 22.8887 57.6617 22.9193C57.677 22.9499 57.7005 22.9757 57.7295 22.9938C57.8352 23.0437 57.9479 23.0772 58.0638 23.0929L58.3239 23.1424C58.3937 23.1572 58.462 23.1779 58.5282 23.2044C58.5887 23.2248 58.6438 23.2586 58.6892 23.3034C58.7313 23.3426 58.7632 23.3916 58.7821 23.4459C58.8086 23.5128 58.8213 23.5844 58.8193 23.6564C58.8279 23.7406 58.8161 23.8257 58.7848 23.9044C58.7536 23.9831 58.7038 24.0531 58.6397 24.1084C58.4543 24.2097 58.2435 24.2548 58.0329 24.2385Z" fill="#33322B"/>
<path d="M59.9714 24.2386C59.6848 24.2469 59.4022 24.1693 59.1602 24.0157L59.3336 23.7618C59.5297 23.8862 59.7578 23.9508 59.99 23.9476C60.1103 23.9559 60.2309 23.9369 60.3429 23.8919C60.3799 23.8686 60.4094 23.8353 60.4281 23.7958C60.4467 23.7563 60.4537 23.7123 60.4482 23.669C60.4512 23.6342 60.444 23.5992 60.4275 23.5684C60.411 23.5376 60.3859 23.5123 60.3553 23.4956C60.2385 23.4461 60.1157 23.4128 59.99 23.3965L59.7423 23.347C59.6743 23.3331 59.6078 23.3124 59.5441 23.285C59.4856 23.2673 59.4324 23.2354 59.3892 23.1922C59.346 23.149 59.3141 23.0958 59.2964 23.0373C59.2712 22.9679 59.2586 22.8945 59.2593 22.8206C59.2533 22.7445 59.266 22.6681 59.2962 22.598C59.3264 22.5278 59.3733 22.4661 59.4327 22.4181C59.5982 22.3121 59.7942 22.2642 59.99 22.2819C60.2401 22.2718 60.4882 22.3296 60.7082 22.4491L60.5534 22.7153C60.3834 22.6268 60.1939 22.5821 60.0023 22.5853C59.8899 22.5762 59.7772 22.5954 59.6742 22.641C59.6446 22.6602 59.6209 22.687 59.6056 22.7187C59.5903 22.7504 59.5841 22.7856 59.5875 22.8206C59.583 22.8549 59.5889 22.8897 59.6043 22.9206C59.6198 22.9515 59.6441 22.977 59.6742 22.994C59.7792 23.0458 59.8922 23.0794 60.0085 23.0931L60.2686 23.1426C60.3363 23.1573 60.4026 23.1781 60.4667 23.2045C60.5282 23.2266 60.585 23.2602 60.6339 23.3036C60.6719 23.3461 60.7032 23.3942 60.7268 23.446C60.7533 23.513 60.766 23.5846 60.764 23.6566C60.773 23.7414 60.7607 23.8272 60.7282 23.9061C60.6958 23.985 60.6442 24.0546 60.5782 24.1086C60.393 24.2105 60.182 24.2557 59.9714 24.2386Z" fill="#33322B"/>
<path d="M61.2793 22.1136V21.7173H61.6137V22.1136H61.2793ZM61.2793 24.2189V22.3613H61.6013V24.2189H61.2793Z" fill="#33322B"/>
<path d="M62.25 24.2025V22.3448H62.5101V22.5244C62.6014 22.4373 62.7112 22.372 62.8313 22.3334C62.9514 22.2948 63.0787 22.2839 63.2036 22.3015C63.3232 22.2992 63.4423 22.3159 63.5565 22.351C63.6425 22.3834 63.7161 22.4419 63.7671 22.5182C63.8115 22.5923 63.8409 22.6743 63.8538 22.7597C63.8648 22.8647 63.8648 22.9705 63.8538 23.0755V24.2211H63.5256V23.1436C63.5293 23.0859 63.5293 23.028 63.5256 22.9703C63.5308 22.9229 63.5308 22.8752 63.5256 22.8279C63.5157 22.7842 63.4918 22.7451 63.4575 22.7164C63.4172 22.6861 63.3706 22.6649 63.3212 22.6545C63.2532 22.6328 63.1821 22.6223 63.1107 22.6235C63.0325 22.6145 62.9532 22.6226 62.8784 22.6472C62.8035 22.6717 62.735 22.7123 62.6773 22.7659C62.5942 22.8876 62.5549 23.0338 62.5658 23.1808V24.2211L62.25 24.2025Z" fill="#33322B"/>
<path d="M65.2729 23.5147C65.1699 23.522 65.0664 23.522 64.9633 23.5147C64.9351 23.5449 64.9196 23.5848 64.92 23.6262C64.9175 23.6489 64.9229 23.6718 64.9353 23.6909C64.9477 23.7101 64.9664 23.7244 64.9881 23.7314C65.0887 23.7458 65.1909 23.7458 65.2915 23.7314C65.5378 23.7145 65.7848 23.7505 66.016 23.8367C66.0821 23.8768 66.1357 23.9346 66.1707 24.0035C66.2057 24.0724 66.2208 24.1498 66.2142 24.2268C66.2206 24.3134 66.2033 24.4002 66.164 24.4777C66.1247 24.5551 66.0649 24.6204 65.9912 24.6664C65.7643 24.7766 65.5119 24.8237 65.2605 24.8027C65.025 24.8186 64.7887 24.7849 64.567 24.7036C64.5008 24.67 64.4463 24.6171 64.4109 24.5519C64.3755 24.4866 64.3609 24.4121 64.3689 24.3383C64.3565 24.2293 64.3871 24.1199 64.4542 24.0331C64.5212 23.9464 64.6195 23.8893 64.728 23.8739C64.6916 23.8501 64.6625 23.8166 64.6439 23.7773C64.6253 23.7379 64.618 23.6942 64.6228 23.6509C64.6201 23.5577 64.6484 23.4662 64.7033 23.3909C64.6264 23.3372 64.5648 23.2645 64.5246 23.1798C64.4844 23.0951 64.4671 23.0014 64.4742 22.9079C64.4671 22.819 64.4807 22.7296 64.514 22.6469C64.5473 22.5641 64.5994 22.4903 64.6661 22.4311C64.8486 22.3099 65.0673 22.2552 65.2853 22.2763H65.4092L66.1461 22.171V22.4435H65.8364C65.9171 22.4895 65.9827 22.5578 66.0256 22.6401C66.0684 22.7225 66.0866 22.8155 66.0779 22.9079C66.0851 22.9941 66.0714 23.0807 66.038 23.1604C66.0046 23.2402 65.9524 23.3107 65.886 23.3661C65.7031 23.4807 65.488 23.5328 65.2729 23.5147ZM65.2729 24.5488C65.4355 24.5615 65.5988 24.5361 65.7497 24.4745C65.7908 24.454 65.825 24.4221 65.8481 24.3825C65.8712 24.3429 65.8822 24.2974 65.8798 24.2516C65.8831 24.2096 65.872 24.1677 65.8484 24.1328C65.8248 24.098 65.79 24.0721 65.7497 24.0596C65.5938 24.022 65.4331 24.0074 65.2729 24.0163C65.146 24.0124 65.019 24.0249 64.8952 24.0534C64.8317 24.0629 64.7742 24.0961 64.7342 24.1463C64.7073 24.1888 64.6944 24.2385 64.6971 24.2887C64.6942 24.3322 64.7052 24.3755 64.7286 24.4122C64.7519 24.449 64.7865 24.4773 64.8271 24.4931C64.9711 24.5387 65.1222 24.5576 65.2729 24.5488ZM64.9014 23.168C65.0138 23.2331 65.1437 23.2612 65.2729 23.2485C65.4001 23.2599 65.5278 23.2318 65.6383 23.168C65.6766 23.1382 65.7068 23.0995 65.7262 23.0551C65.7457 23.0108 65.7538 22.9623 65.7497 22.9141C65.753 22.8653 65.744 22.8164 65.7234 22.7721C65.7029 22.7277 65.6715 22.6892 65.6321 22.6602C65.5233 22.5976 65.398 22.5695 65.2729 22.5797C65.1446 22.5695 65.016 22.5952 64.9014 22.654C64.8631 22.685 64.8329 22.7249 64.8135 22.7702C64.7941 22.8156 64.7861 22.8649 64.79 22.9141C64.786 22.9623 64.7941 23.0108 64.8135 23.0551C64.833 23.0995 64.8632 23.1382 64.9014 23.168Z" fill="#33322B"/>
<path d="M67.6953 24.2009V21.7241H68.8161C69.0572 21.7012 69.2981 21.7697 69.4911 21.916C69.5663 21.992 69.624 22.0833 69.6604 22.1839C69.6967 22.2844 69.7108 22.3916 69.7016 22.4981C69.7103 22.6102 69.6961 22.7229 69.6599 22.8293C69.6237 22.9357 69.5663 23.0337 69.4911 23.1173C69.3007 23.2747 69.0559 23.3504 68.8099 23.3278H68.0297V24.2319L67.6953 24.2009ZM68.0297 22.9625H68.8161C68.962 22.9727 69.1067 22.9311 69.2248 22.8448C69.3114 22.7404 69.3588 22.609 69.3588 22.4733C69.3588 22.3376 69.3114 22.2062 69.2248 22.1018C69.0995 22.0221 68.9518 21.9852 68.8037 21.9965H68.0235L68.0297 22.9625Z" fill="#33322B"/>
<path d="M70.934 24.2403C70.8023 24.2419 70.671 24.2252 70.5439 24.1907C70.4466 24.1645 70.3559 24.1181 70.2777 24.0545C70.2061 23.9975 70.1506 23.9228 70.1167 23.8378C70.0741 23.7546 70.0468 23.6644 70.0362 23.5715C70.0257 23.4686 70.0257 23.3648 70.0362 23.2619C70.0344 23.1329 70.0468 23.0042 70.0733 22.878C70.0994 22.7692 70.1457 22.6663 70.2096 22.5746C70.2811 22.4759 70.3802 22.4005 70.4944 22.3579C70.6411 22.3044 70.7965 22.2792 70.9526 22.2836C71.0484 22.2833 71.1439 22.2937 71.2374 22.3145C71.3116 22.3324 71.3827 22.3617 71.448 22.4012C71.5071 22.4354 71.5562 22.4845 71.5904 22.5436C71.6265 22.5953 71.6557 22.6515 71.6771 22.7108C71.6999 22.779 71.7145 22.8497 71.7204 22.9213C71.7256 22.9955 71.7256 23.07 71.7204 23.1442C71.7267 23.2267 71.7267 23.3095 71.7204 23.3919H70.3334C70.3332 23.5452 70.3857 23.6938 70.482 23.813C70.5451 23.866 70.6181 23.9059 70.6967 23.9304C70.7754 23.9548 70.8582 23.9634 70.9402 23.9554C71.0553 23.9596 71.1704 23.945 71.2808 23.9121C71.3734 23.8805 71.4594 23.8322 71.5346 23.7697L71.7142 23.9988C71.4889 24.1652 71.2139 24.2503 70.934 24.2403ZM70.934 22.5746C70.7783 22.5617 70.6235 22.6081 70.5006 22.7046C70.4091 22.8169 70.3569 22.9561 70.352 23.1009H71.4108C71.4151 23.0432 71.4151 22.9852 71.4108 22.9275C71.4027 22.8811 71.3902 22.8355 71.3736 22.7913C71.3613 22.7439 71.3329 22.7023 71.2932 22.6737C71.2539 22.6391 71.2073 22.6137 71.1569 22.5994C71.0782 22.5788 70.9967 22.5704 70.9154 22.5746H70.934Z" fill="#33322B"/>
<path d="M72.2646 24.2018V22.3441H72.5247V22.5732C72.5802 22.4907 72.6604 22.4278 72.7539 22.3937C72.8843 22.3436 73.0228 22.3184 73.1625 22.3194V22.6537C73.08 22.6466 72.997 22.6561 72.9183 22.6817C72.8396 22.7072 72.7668 22.7482 72.7043 22.8023C72.6048 22.9218 72.554 23.0743 72.5619 23.2296V24.2204L72.2646 24.2018Z" fill="#33322B"/>
<path d="M74.2584 24.2386C73.9717 24.2481 73.6889 24.1704 73.4473 24.0157L73.6145 23.7618C73.8133 23.8851 74.043 23.9495 74.277 23.9476C74.3973 23.9559 74.518 23.9369 74.6299 23.8919C74.6657 23.8678 74.6941 23.8341 74.7116 23.7947C74.7292 23.7553 74.7352 23.7117 74.729 23.669C74.7335 23.6347 74.7276 23.5999 74.7122 23.569C74.6967 23.5381 74.6724 23.5125 74.6423 23.4956C74.5253 23.447 74.4025 23.4138 74.277 23.3965L74.0293 23.347C73.9613 23.3331 73.895 23.3124 73.8312 23.285C73.7722 23.2615 73.7177 23.228 73.6702 23.186C73.6294 23.1433 73.5978 23.0927 73.5773 23.0373C73.5521 22.9679 73.5394 22.8945 73.5401 22.8206C73.5349 22.744 73.5485 22.6672 73.5798 22.597C73.6111 22.5269 73.6592 22.4655 73.7197 22.4181C73.8852 22.3121 74.0813 22.2642 74.277 22.2819C74.5271 22.2724 74.7751 22.3301 74.9953 22.4491L74.8405 22.7153C74.6685 22.6261 74.4769 22.5814 74.2832 22.5853C74.1729 22.5767 74.0622 22.5959 73.9612 22.641C73.931 22.6599 73.9065 22.6865 73.8901 22.7181C73.8738 22.7497 73.8662 22.7851 73.8683 22.8206C73.8652 22.8554 73.8724 22.8904 73.8889 22.9212C73.9054 22.952 73.9305 22.9773 73.9612 22.994C74.0662 23.0458 74.1793 23.0794 74.2956 23.0931L74.5556 23.1426C74.6234 23.1573 74.6897 23.1781 74.7538 23.2045C74.8153 23.2266 74.8721 23.2602 74.921 23.3036C74.9588 23.345 74.9883 23.3934 75.0077 23.446C75.0393 23.5116 75.0542 23.5839 75.051 23.6566C75.06 23.7414 75.0477 23.8272 75.0153 23.9061C74.9828 23.985 74.9313 24.0546 74.8652 24.1086C74.6801 24.2105 74.4691 24.2557 74.2584 24.2386Z" fill="#33322B"/>
<path d="M77.0847 23.9726C76.8813 24.1288 76.6321 24.2134 76.3757 24.2134C76.1193 24.2134 75.87 24.1288 75.6667 23.9726C75.5253 23.7528 75.4502 23.4971 75.4502 23.2357C75.4502 22.9744 75.5253 22.7187 75.6667 22.4989C75.87 22.3427 76.1193 22.2581 76.3757 22.2581C76.6321 22.2581 76.8813 22.3427 77.0847 22.4989C77.2298 22.7172 77.3072 22.9736 77.3072 23.2357C77.3072 23.4979 77.2298 23.7543 77.0847 23.9726ZM75.9206 23.7497C75.979 23.8109 76.0507 23.8578 76.1302 23.8868C76.2096 23.9157 76.2947 23.926 76.3788 23.9169C76.4619 23.9255 76.5459 23.915 76.6243 23.886C76.7027 23.857 76.7733 23.8104 76.8308 23.7497C76.9353 23.6019 76.9856 23.4225 76.9732 23.2419C76.9857 23.0633 76.9353 22.8858 76.8308 22.7404C76.7733 22.6797 76.7027 22.6331 76.6243 22.6041C76.5459 22.5751 76.4619 22.5645 76.3788 22.5732C76.2947 22.564 76.2096 22.5744 76.1302 22.6033C76.0507 22.6323 75.979 22.6792 75.9206 22.7404C75.8182 22.8867 75.77 23.064 75.7843 23.2419C75.7642 23.4301 75.8126 23.6191 75.9206 23.7745V23.7497Z" fill="#33322B"/>
<path d="M77.8408 24.2028V22.3452H78.1009V22.5247C78.1907 22.4374 78.2994 22.3719 78.4186 22.3332C78.5378 22.2946 78.6643 22.2838 78.7882 22.3018C78.9098 22.2991 79.0311 22.3158 79.1474 22.3514C79.2326 22.3821 79.3047 22.4411 79.3517 22.5186C79.3953 22.5936 79.4266 22.6751 79.4446 22.76C79.4521 22.8652 79.4521 22.9707 79.4446 23.0758V24.2214H79.1226V23.1439C79.1268 23.0862 79.1268 23.0283 79.1226 22.9706C79.128 22.9233 79.128 22.8755 79.1226 22.8282C79.1082 22.785 79.0826 22.7465 79.0483 22.7167C79.0103 22.6863 78.9658 22.6651 78.9183 22.6548C78.848 22.6336 78.7749 22.6232 78.7015 22.6238C78.6242 22.6145 78.5458 22.6224 78.4719 22.647C78.398 22.6717 78.3305 22.7124 78.2742 22.7662C78.1912 22.8879 78.1519 23.0342 78.1628 23.1811V24.2214L77.8408 24.2028Z" fill="#33322B"/>
<path d="M80.7633 24.2383C80.4766 24.2478 80.1938 24.1701 79.9521 24.0154L80.1193 23.7615C80.3182 23.8848 80.5479 23.9492 80.7819 23.9473C80.9022 23.9556 81.0229 23.9366 81.1348 23.8916C81.1706 23.8675 81.199 23.8339 81.2165 23.7944C81.234 23.755 81.2401 23.7114 81.2339 23.6687C81.2368 23.6346 81.2303 23.6004 81.215 23.5698C81.1997 23.5392 81.1762 23.5134 81.1472 23.4953C81.0302 23.4467 80.9074 23.4135 80.7819 23.3962L80.5342 23.3467C80.466 23.3337 80.3995 23.3129 80.3361 23.2848C80.2764 23.2627 80.2217 23.229 80.1751 23.1857C80.1343 23.143 80.1027 23.0924 80.0822 23.0371C80.0569 22.9676 80.0443 22.8942 80.045 22.8203C80.0401 22.7443 80.0533 22.6683 80.0834 22.5983C80.1136 22.5284 80.1598 22.4665 80.2184 22.4178C80.3863 22.3122 80.5842 22.2644 80.7819 22.2816C81.0319 22.2721 81.28 22.3298 81.5002 22.4488L81.3454 22.7151C81.1734 22.6258 80.9818 22.5811 80.7881 22.585C80.6778 22.5764 80.5671 22.5956 80.4661 22.6408C80.4359 22.6596 80.4114 22.6862 80.395 22.7178C80.3787 22.7494 80.3711 22.7848 80.3732 22.8203C80.3703 22.8544 80.3768 22.8886 80.3921 22.9192C80.4074 22.9498 80.4309 22.9756 80.4599 22.9937C80.5656 23.0436 80.6784 23.077 80.7943 23.0928L81.0543 23.1423C81.1243 23.1561 81.1928 23.1769 81.2587 23.2043C81.3202 23.2264 81.377 23.26 81.4259 23.3033C81.4637 23.3447 81.4932 23.3931 81.5126 23.4458C81.5412 23.5123 81.5559 23.5839 81.5559 23.6563C81.5649 23.7411 81.5526 23.8269 81.5201 23.9058C81.4877 23.9847 81.4362 24.0543 81.3701 24.1083C81.1847 24.2095 80.9739 24.2547 80.7633 24.2383Z" fill="#33322B"/>
</svg>
