<svg viewBox="0 0 57 22" fill="none" xmlns="http://www.w3.org/2000/svg">
<path d="M32.5515 1.30607V0.782593H27.8311V1.30607H28.0928C28.3015 1.30725 28.5012 1.39098 28.6484 1.53895C28.7955 1.68692 28.8781 1.88712 28.8781 2.09579V2.35753V16.519H31.5001V2.37086V2.10911C31.5001 1.90044 31.5827 1.70024 31.7298 1.55227C31.8769 1.4043 32.0767 1.32057 32.2853 1.3194L32.5515 1.30607Z" fill="#33322B"/>
<path d="M34.1239 5.50327V6.03119H34.3856C34.5943 6.03119 34.7945 6.11378 34.9425 6.26092C35.0904 6.40806 35.1742 6.60779 35.1753 6.81647V16.7809C35.1753 18.9504 33.8799 20.7161 32.2871 20.7161H32.0254V21.2397H32.2694C33.7304 21.2385 35.1313 20.6575 36.1644 19.6244C37.1975 18.5913 37.7784 17.1905 37.7796 15.7295V7.07821V6.80758C37.7796 6.59932 37.8623 6.39958 38.0096 6.25231C38.1568 6.10505 38.3566 6.02231 38.5648 6.02231H38.8266V5.49438H34.1239V5.50327Z" fill="#33322B"/>
<path d="M21.5351 5.50327V6.03119H21.7969C22.0051 6.03119 22.2049 6.11393 22.3521 6.26119C22.4994 6.40846 22.5821 6.6082 22.5821 6.81647V7.07821V12.0604C22.5821 13.6487 21.7614 14.9442 20.7454 14.9442C19.7294 14.9442 18.9131 13.6487 18.9131 12.0604V7.07821V6.80758C18.9131 6.59932 18.9958 6.39958 19.1431 6.25231C19.2904 6.10505 19.4901 6.02231 19.6984 6.02231H19.9601V5.49438H15.2396V6.02231H15.5014C15.6053 6.02113 15.7083 6.04061 15.8046 6.07955C15.9009 6.11849 15.9886 6.17613 16.0624 6.24917C16.1363 6.32221 16.1949 6.40915 16.2349 6.50501C16.2749 6.60086 16.2956 6.70371 16.2955 6.80758V7.06932V12.0516C16.2955 13.6398 15.4703 14.9353 14.4588 14.9353C13.4473 14.9353 12.6221 13.6398 12.6221 12.0516V7.06932V6.80758C12.6221 6.59932 12.7048 6.39958 12.8521 6.25231C12.9994 6.10505 13.1991 6.02231 13.4074 6.02231H13.6691V5.49883H8.94419V6.02675H9.21039C9.41865 6.02675 9.61839 6.10949 9.76566 6.25675C9.91292 6.40402 9.99565 6.60376 9.99565 6.81202V7.07377V15.725C9.99565 17.8945 8.70018 19.6602 7.1119 19.6602C5.52361 19.6602 4.22372 17.8856 4.22372 15.725V7.07377V6.80758C4.22489 6.59891 4.30861 6.39918 4.45658 6.25204C4.60455 6.1049 4.80474 6.0223 5.01342 6.02231H5.27518V5.49883H0.554688V6.02675H0.816442C1.02471 6.02675 1.22445 6.10949 1.37171 6.25675C1.51898 6.40402 1.60172 6.60376 1.60172 6.81202V7.07377V15.725C1.6153 17.1438 2.17563 18.5026 3.16602 19.5186C4.15641 20.5346 5.50051 21.1293 6.91846 21.1791C8.33641 21.2288 9.71891 20.7297 10.7781 19.7856C11.8372 18.8415 12.4914 17.5253 12.6043 16.111C13.4278 16.4916 14.3482 16.6106 15.2415 16.452C16.1347 16.2933 16.9578 15.8646 17.5999 15.2237C18.2197 15.8559 19.0145 16.2881 19.882 16.4649C20.7495 16.6417 21.65 16.5549 22.4678 16.2157C23.2855 15.8765 23.9831 15.3004 24.4707 14.5615C24.9584 13.8225 25.2138 12.9546 25.2041 12.0693V7.08709V6.80758C25.2053 6.59891 25.289 6.39918 25.437 6.25204C25.5849 6.1049 25.7851 6.0223 25.9938 6.02231H26.2556V5.49438H21.5351V5.50327Z" fill="#33322B"/>
<path d="M51.1687 5.50308H49.3364L54.0569 0.782593H50.3834L44.0924 7.07802H51.1909C52.7836 7.07802 54.0791 8.85263 54.0791 11.0088C54.0791 13.1649 52.7836 14.944 51.1909 14.944H46.9983C45.4056 14.944 44.1146 13.1694 44.1146 11.0088V2.37086V2.10911C44.1146 1.90044 44.1972 1.70024 44.3443 1.55227C44.4915 1.4043 44.6912 1.32057 44.8999 1.3194H45.135V0.795861H40.4189V1.3194H40.6984C40.9079 1.3194 41.1088 1.4026 41.2568 1.5507C41.4049 1.6988 41.4882 1.89967 41.4882 2.10911V2.37086V11.0221C41.4882 12.4827 42.0681 13.8836 43.1005 14.9168C44.1329 15.95 45.5333 16.5311 46.9939 16.5323H51.1864C51.9229 16.5532 52.6561 16.4262 53.3426 16.1588C54.0292 15.8914 54.6551 15.489 55.1834 14.9755C55.7117 14.462 56.1317 13.8477 56.4184 13.1691C56.7052 12.4904 56.853 11.7611 56.853 11.0243C56.853 10.2876 56.7052 9.55827 56.4184 8.87961C56.1317 8.20094 55.7117 7.58667 55.1834 7.07315C54.6551 6.55962 54.0292 6.15727 53.3426 5.88987C52.6561 5.62247 51.9229 5.49544 51.1864 5.51635L51.1687 5.50308Z" fill="#33322B"/>
</svg>
