<svg viewBox="0 0 81 17" fill="none" xmlns="http://www.w3.org/2000/svg">
<path d="M48.8887 16.3529L40.8254 5.67474V16.3529H37.5322V0.412231H40.7324L48.8231 11.1068V0.412231H52.0834V16.3529H48.8887Z" fill="#33322B"/>
<path d="M57.0227 3.08737V7.00962H64.3639V9.69011H57.0227V13.6725H66.0215V16.353H53.5654V0.412354H66.0215V3.08737H57.0227Z" fill="#33322B"/>
<path d="M75.9297 3.15836V16.3529H72.4833V3.15836H67.5107V0.412231H80.9186V3.15836H75.9297Z" fill="#33322B"/>
<path d="M9.21489 15.8868C8.19012 16.2129 7.13407 16.4311 6.06395 16.5377C5.55512 16.5681 5.04531 16.4977 4.56374 16.3306C4.08217 16.1635 3.63832 15.903 3.25765 15.564C2.91015 15.2077 2.64068 14.7829 2.46644 14.3167C2.2922 13.8505 2.21701 13.3531 2.24564 12.8562V6.83875H0.495117V4.73815H2.24564V1.28638H5.57708V4.73815H8.97967V6.86066H5.57708V12.2216C5.57708 13.3157 6.02018 13.8628 6.90638 13.8628C7.34116 13.8438 7.76908 13.7475 8.17003 13.5783L8.50919 13.4525L9.21489 15.8868Z" fill="#33322B"/>
<path d="M35.6861 4.06721H36.0362V7.0267H35.708C34.6954 6.96478 33.698 7.29591 32.9236 7.95116C32.5763 8.27657 32.304 8.67363 32.1255 9.11475C31.947 9.55587 31.8665 10.0305 31.8897 10.5058V16.3536H28.5254V4.18754H31.8897V5.49497C32.4204 5.0948 33.0088 4.77756 33.6347 4.55408C34.2931 4.29587 34.983 4.1266 35.6861 4.05078" fill="#33322B"/>
<path d="M18.7996 0.795029C18.9309 0.765854 19.0622 0.743975 19.1935 0.729387L18.4058 0.286255L17.9736 0.330061L18.7996 0.795029Z" fill="#33322B"/>
<path d="M18.3099 0.938046C18.4193 0.899753 18.5232 0.866902 18.6326 0.83955L17.7792 0.358154L17.4072 0.429272L18.3099 0.938046Z" fill="#33322B"/>
<path d="M17.536 1.32526C17.6056 1.27281 17.6787 1.22528 17.7549 1.18302L16.7264 0.635986L16.4365 0.734482L17.536 1.32526Z" fill="#33322B"/>
<path d="M17.8929 1.1177C17.9802 1.07482 18.0696 1.0365 18.1609 1.00285L17.2309 0.455811L16.9082 0.543288L17.8929 1.1177Z" fill="#33322B"/>
<path d="M16.9902 1.84054C17.0331 1.78205 17.0807 1.72721 17.1325 1.67647L15.8469 0.954346L15.6172 1.07474L16.9902 1.84054Z" fill="#33322B"/>
<path d="M17.2377 1.56466C17.2924 1.51543 17.3471 1.46078 17.4127 1.41154L16.264 0.771484L16.0068 0.880865L17.2377 1.56466Z" fill="#33322B"/>
<path d="M22.7157 4.80005C22.6604 4.85337 22.5999 4.90103 22.5352 4.94228L24.1763 5.87222C24.2159 5.81403 24.2524 5.7538 24.2857 5.69172L22.7157 4.80005Z" fill="#33322B"/>
<path d="M22.9404 4.08252C22.9514 4.1697 22.9514 4.2579 22.9404 4.34509L24.494 5.21486C24.494 5.13827 24.5269 5.05625 24.5378 4.97967L22.9404 4.08252Z" fill="#33322B"/>
<path d="M22.9071 4.48889C22.8831 4.55861 22.85 4.62483 22.8086 4.68582L24.3786 5.56106C24.4059 5.49542 24.4333 5.4243 24.4552 5.35319L22.9071 4.48889Z" fill="#33322B"/>
<path d="M16.7628 2.13536L16.8831 1.96034L15.4499 1.16162L15.2529 1.2875L16.7628 2.13536Z" fill="#33322B"/>
<path d="M21.5596 1.51501L23.6493 2.68568C23.0789 2.1037 22.3537 1.69742 21.5596 1.51501Z" fill="#33322B"/>
<path d="M19.7737 1.47278L19.4346 1.56032L21.4477 2.68719C21.8709 2.76589 22.2559 2.9834 22.5417 3.30534L24.5275 4.39941C24.5275 4.29548 24.4947 4.19704 24.4728 4.08763L19.7737 1.47278Z" fill="#33322B"/>
<path d="M19.3514 0.280727L20.0844 0.691005C20.2759 0.691005 20.4619 0.691042 20.6314 0.729335H20.6916L19.9969 0.335417C19.778 0.302595 19.5538 0.280716 19.335 0.269775" fill="#33322B"/>
<path d="M21.2398 1.45777C21.0338 1.42281 20.8252 1.40452 20.6162 1.40308L24.1884 3.39978C24.0917 3.23274 23.9819 3.07361 23.8601 2.92386L21.2398 1.45777Z" fill="#33322B"/>
<path d="M22.7834 9.19275C22.6189 9.05875 22.4343 8.95169 22.2363 8.87549L22.7834 9.19275Z" fill="#33322B"/>
<path d="M16.6068 2.44595C16.6068 2.38577 16.6669 2.33103 16.6997 2.27086L15.1243 1.39014L14.9492 1.51594L16.6068 2.44595Z" fill="#33322B"/>
<path d="M22.3675 5.0238C22.2755 5.059 22.1802 5.08467 22.083 5.1004L23.9703 6.15614C24.0195 6.10691 24.0633 6.05225 24.1125 5.99755L22.3675 5.0238Z" fill="#33322B"/>
<path d="M23.293 9.8707C23.2657 9.7989 23.2328 9.72939 23.1945 9.66282L21.2306 8.56875L20.6836 8.42651L23.293 9.8707Z" fill="#33322B"/>
<path d="M19.2357 7.21153L19.3069 7.08573L13.3879 3.77612C13.3879 3.82536 13.3606 3.8746 13.3496 3.91836L19.2357 7.21153Z" fill="#33322B"/>
<path d="M23.3831 10.3564C23.3858 10.3035 23.3858 10.2505 23.3831 10.1977L19.5538 8.07519C19.4141 8.02579 19.2844 7.95166 19.1709 7.85636L13.2246 4.5304V4.67263L23.3831 10.3564Z" fill="#33322B"/>
<path d="M13.1526 8.74475L12.9775 8.86515L16.9271 11.0533C16.9718 10.9997 17.0279 10.9567 17.0912 10.9275L13.1526 8.74475Z" fill="#33322B"/>
<path d="M16.6989 11.3761L16.8138 11.212L12.8149 8.97461L12.6289 9.10042L16.6989 11.3761Z" fill="#33322B"/>
<path d="M19.0988 7.54534C19.11 7.50054 19.1247 7.45666 19.1426 7.41406L13.3002 4.13184C13.2971 4.1792 13.2971 4.22671 13.3002 4.27407L19.0988 7.54534Z" fill="#33322B"/>
<path d="M16.2923 3.92521V3.72829L14.033 2.4646C13.9967 2.50759 13.9638 2.55331 13.9346 2.60136L16.2923 3.92521Z" fill="#33322B"/>
<path d="M16.7631 5.4327C16.7429 5.40479 16.7247 5.37553 16.7084 5.34516C16.6706 5.28876 16.6359 5.23035 16.6045 5.17013L13.4809 3.42505L13.4316 3.56728L16.7631 5.4327Z" fill="#33322B"/>
<path d="M16.4672 2.78712C16.4672 2.72695 16.5109 2.66125 16.5383 2.60108L14.7987 1.63281L14.6455 1.76957L16.4672 2.78712Z" fill="#33322B"/>
<path d="M16.3112 3.51913C16.3112 3.45349 16.3112 3.39333 16.3112 3.32769L14.2434 2.16797L14.123 2.3102L16.3112 3.51913Z" fill="#33322B"/>
<path d="M16.341 4.36289C16.341 4.29178 16.3136 4.22613 16.3082 4.15502L13.8301 2.771C13.7976 2.81521 13.77 2.86292 13.748 2.91323L16.341 4.36289Z" fill="#33322B"/>
<path d="M16.4764 4.84836C16.4491 4.77724 16.4272 4.70071 16.4054 4.6296L13.6702 3.08691L13.6045 3.22915L16.4764 4.84836Z" fill="#33322B"/>
<path d="M13.4836 8.49243C13.4382 8.53866 13.3888 8.58076 13.3359 8.61824L17.7998 11.1182L17.9311 11.1784C18.3364 11.3794 18.7571 11.5477 19.1892 11.6817L13.4836 8.49243Z" fill="#33322B"/>
<path d="M11.2285 11.5125C11.2723 11.6383 11.3215 11.7641 11.3708 11.8845L19.9319 16.6765L20.364 16.6218L11.2285 11.5125Z" fill="#33322B"/>
<path d="M11.4502 12.0581C11.5104 12.2003 11.576 12.3316 11.6471 12.4684L19.24 16.7189H19.7323L11.4502 12.0581Z" fill="#33322B"/>
<path d="M11.0596 10.9634C11.0979 11.0783 11.1307 11.1931 11.169 11.308L20.5616 16.5596C20.6874 16.5596 20.8132 16.5158 20.9336 16.4884L11.0596 10.9634Z" fill="#33322B"/>
<path d="M23.3646 10.6133L13.2061 4.94604C13.2034 4.99342 13.2034 5.04091 13.2061 5.08828L23.3263 10.7446C23.3263 10.7009 23.3263 10.6571 23.3536 10.6133" fill="#33322B"/>
<path d="M16.3695 3.14173C16.3809 3.07902 16.3955 3.01695 16.4133 2.95575L14.5151 1.89453L14.3838 2.03129L16.3695 3.14173Z" fill="#33322B"/>
<path d="M19.3852 0.707868C19.5438 0.707868 19.7079 0.707868 19.8666 0.707868L19.1281 0.292114C18.953 0.292114 18.778 0.292114 18.5811 0.292114L19.3852 0.707868Z" fill="#33322B"/>
<path d="M10.9316 10.4839C10.9316 10.5878 10.9809 10.6972 11.0137 10.8011L21.1393 16.4357L21.4621 16.3426L10.9316 10.4839Z" fill="#33322B"/>
<path d="M11.7373 12.6378L11.8412 12.8293L12.0053 13.0973L18.433 16.6913C18.63 16.6913 18.8214 16.6913 19.0184 16.6913L11.7373 12.6378Z" fill="#33322B"/>
<path d="M12.1338 13.2833C12.2608 13.4728 12.3978 13.6554 12.5441 13.8304L17.4674 16.5655C17.7081 16.6038 17.9542 16.6367 18.2004 16.6586L12.1338 13.2833Z" fill="#33322B"/>
<path d="M24.1678 13.6182L23.9873 13.7112L24.9008 14.2254L25.0267 14.0996L24.1678 13.6182Z" fill="#33322B"/>
<path d="M22.0155 0.948791L22.2453 0.998073L21.7529 0.801147L22.0155 0.948791Z" fill="#33322B"/>
<path d="M24.9362 7.71973L24.8213 7.86744L26.8016 8.96151V8.89587C26.8016 8.85758 26.8016 8.8193 26.8016 8.77554L24.9362 7.71973Z" fill="#33322B"/>
<path d="M14.0283 15.2039C14.4645 15.5083 14.93 15.7685 15.4178 15.9807L14.0283 15.2039Z" fill="#33322B"/>
<path d="M12.7227 14.0446C12.9753 14.3227 13.2477 14.5824 13.5377 14.8214L16.0322 16.2218C16.4041 16.3495 16.7843 16.4518 17.1701 16.5281L12.7227 14.0446Z" fill="#33322B"/>
<path d="M19.4187 6.90557C19.4187 6.86181 19.4679 6.81805 19.4953 6.77429L17.3071 5.54346C17.2102 5.56847 17.1086 5.56847 17.0117 5.54346L19.4187 6.90557Z" fill="#33322B"/>
<path d="M21.7921 5.12158C21.4774 5.09426 21.1721 5.0001 20.8966 4.84539C20.6212 4.69069 20.3819 4.47905 20.1948 4.2245L18.0996 3.05383C18.0996 3.12495 18.0996 3.19601 18.0723 3.27259L23.6684 6.39622L23.8435 6.27042L21.7921 5.12158Z" fill="#33322B"/>
<path d="M18.1123 3.9021C18.1123 3.97868 18.1123 4.06077 18.156 4.13736L22.7949 6.73578C22.8892 6.72211 22.9824 6.70201 23.0739 6.67562L18.1123 3.9021Z" fill="#33322B"/>
<path d="M20.0778 3.1572C20.1141 3.0921 20.1602 3.03307 20.2146 2.98218L18.5735 2.0686C18.5199 2.12116 18.4705 2.17789 18.4258 2.23822L20.0778 3.1572Z" fill="#33322B"/>
<path d="M18.0723 3.45801C18.0723 3.53459 18.0723 3.61114 18.0723 3.68772L23.28 6.598L23.4934 6.4995L18.0723 3.45801Z" fill="#33322B"/>
<path d="M19.9812 3.5141C19.9828 3.43786 19.9957 3.36226 20.0195 3.2898L18.3784 2.35986C18.3405 2.42 18.3058 2.48207 18.2744 2.54584L19.9812 3.5141Z" fill="#33322B"/>
<path d="M20.3251 1.40193L19.9531 1.44019L24.4334 3.94566C24.4118 3.87498 24.3862 3.80557 24.3568 3.73779C24.3568 3.68308 24.3075 3.62835 24.2802 3.57365L20.3962 1.3855H20.3251" fill="#33322B"/>
<path d="M19.2815 1.62231C19.1933 1.65682 19.1074 1.69701 19.0244 1.74265L20.753 2.71091C20.8825 2.68204 21.0144 2.66551 21.1469 2.66163L19.2815 1.62231Z" fill="#33322B"/>
<path d="M20.3286 2.89126C20.4047 2.83855 20.4875 2.79625 20.5748 2.76546L18.8899 1.81909C18.8192 1.86572 18.7516 1.9169 18.6875 1.97228L20.3286 2.89126Z" fill="#33322B"/>
<path d="M17.9885 5.0957C17.9372 5.1272 17.8878 5.16188 17.8408 5.19961L19.9415 6.37575C20.0659 6.34948 20.1945 6.34948 20.3189 6.37575L17.9885 5.0957Z" fill="#33322B"/>
<path d="M18.2188 4.39941C18.2188 4.43224 18.2188 4.46503 18.2461 4.50332C18.2547 4.54298 18.2547 4.58406 18.2461 4.62372L22.0754 6.76806C22.2067 6.76806 22.3325 6.76806 22.4638 6.76806L18.2188 4.39941Z" fill="#33322B"/>
<path d="M22.7435 3.5565C22.809 3.66902 22.8622 3.78824 22.9022 3.91209L24.5433 4.83662C24.5488 4.74735 24.5488 4.65784 24.5433 4.56857L22.7217 3.55103" fill="#33322B"/>
<path d="M17.6657 5.33496C17.6205 5.37087 17.573 5.4038 17.5234 5.43346L19.6131 6.59865C19.6436 6.55677 19.6784 6.51828 19.7171 6.48379L17.6657 5.33496Z" fill="#33322B"/>
<path d="M20.0492 3.97425C20.0117 3.88307 19.986 3.78746 19.9726 3.68977L18.1838 2.68872C18.1838 2.75437 18.14 2.82548 18.1182 2.8966L20.0492 3.97425Z" fill="#33322B"/>
<path d="M18.2185 4.80603C18.2015 4.85994 18.1777 4.91143 18.1475 4.95922L21.0468 6.60033C21.2327 6.64409 21.4133 6.68236 21.5938 6.70971L18.2185 4.80603Z" fill="#33322B"/>
<path d="M11.574 7.20636C11.574 7.13524 11.574 7.05864 11.574 6.98753L10.9231 6.62646C10.9231 6.68664 10.9231 6.74686 10.8848 6.80703L11.574 7.20636Z" fill="#33322B"/>
<path d="M24.9282 10.6482L24.7148 10.5333C24.7771 10.5862 24.8498 10.6254 24.9282 10.6482Z" fill="#33322B"/>
<path d="M26.5159 11.5442C26.497 11.5557 26.4803 11.5705 26.4666 11.5879L26.4229 11.6426L26.5049 11.6918C26.5202 11.647 26.533 11.6013 26.5432 11.5551L26.5159 11.5442Z" fill="#33322B"/>
<path d="M24.3828 9.93018L24.4156 10.0341L24.4485 10.1271L25.362 10.6414L25.5425 10.5757L24.3828 9.93018Z" fill="#33322B"/>
<path d="M24.4969 8.31116C24.4969 8.36586 24.4477 8.41505 24.4258 8.46975L26.5373 9.65137C26.5373 9.59667 26.592 9.54748 26.6139 9.49278L24.4969 8.31116Z" fill="#33322B"/>
<path d="M23.7538 13.8136L23.5459 13.9011L24.6072 14.4974L24.7439 14.3661L23.7538 13.8136Z" fill="#33322B"/>
<path d="M24.3547 8.65625C24.3547 8.71095 24.3547 8.76562 24.3164 8.82032L26.3295 9.94725C26.3658 9.90618 26.3987 9.86228 26.428 9.81597L24.3547 8.65625Z" fill="#33322B"/>
<path d="M24.293 9.03931C24.293 9.09401 24.293 9.15422 24.293 9.2144L26.0982 10.2209L26.2131 10.1061L24.293 9.03931Z" fill="#33322B"/>
<path d="M26.2875 11.8341L26.2109 11.9381L26.3969 12.042C26.409 11.9992 26.4237 11.9572 26.4407 11.9162L26.2875 11.8341Z" fill="#33322B"/>
<path d="M25.226 12.9346L25.0947 13.0331L25.6418 13.3448C25.6691 13.3066 25.702 13.2683 25.7293 13.2245L25.226 12.9346Z" fill="#33322B"/>
<path d="M24.8971 13.1515L24.7549 13.25L25.4223 13.6274L25.5262 13.5016L24.8971 13.1515Z" fill="#33322B"/>
<path d="M24.5469 13.4037L24.3828 13.5022L25.1705 13.9398L25.28 13.814L24.5469 13.4037Z" fill="#33322B"/>
<path d="M26.0616 12.124L25.9795 12.217L26.2585 12.3702L26.3077 12.2608L26.0616 12.124Z" fill="#33322B"/>
<path d="M25.8055 12.4021L25.707 12.5006L26.079 12.7084L26.1447 12.5881L25.8055 12.4021Z" fill="#33322B"/>
<path d="M25.5153 12.6707C25.4796 12.7081 25.4412 12.7429 25.4004 12.7746L25.8709 13.0317L25.9474 12.9114L25.5153 12.6707Z" fill="#33322B"/>
<path d="M24.2979 9.46118C24.2979 9.52136 24.2979 9.58698 24.2979 9.64716L25.742 10.4568L25.8842 10.3638L24.2979 9.46118Z" fill="#33322B"/>
<path d="M25.4619 4.2345C25.5002 4.34937 25.533 4.46426 25.5659 4.57913L26.4247 5.06053C26.359 4.92377 26.2879 4.78702 26.2114 4.65573L25.4619 4.2345Z" fill="#33322B"/>
<path d="M25.6885 5.2041C25.6939 5.29702 25.6939 5.39018 25.6885 5.4831L26.7826 6.10673C26.757 5.99732 26.7242 5.88792 26.6841 5.77852L25.6885 5.2041Z" fill="#33322B"/>
<path d="M25.2412 3.68774C25.3014 3.81903 25.3561 3.9449 25.4053 4.07619L26.1001 4.46456C26.0071 4.30592 25.8977 4.15276 25.7882 3.99959L25.2412 3.68774Z" fill="#33322B"/>
<path d="M25.6035 4.74121C25.6309 4.84515 25.6473 4.94912 25.6637 5.04758L26.6593 5.59462C26.6156 5.47427 26.5663 5.35391 26.5116 5.23356L25.6035 4.74121Z" fill="#33322B"/>
<path d="M20.2939 0.395752L20.9613 0.7677L21.4591 0.838818L21.7327 0.888032L21.2896 0.641892C20.9633 0.538664 20.6307 0.456466 20.2939 0.395752Z" fill="#33322B"/>
<path d="M24.9297 3.10327C25.0136 3.2455 25.0901 3.38775 25.1594 3.52998L25.6354 3.79802C25.4931 3.60473 25.34 3.42239 25.1759 3.25098L24.9297 3.10327Z" fill="#33322B"/>
<path d="M24.836 2.93964L24.9727 3.01623C24.8962 2.9287 24.8141 2.84119 24.7266 2.75366L24.836 2.93964Z" fill="#33322B"/>
<path d="M25.1524 7.41919L25.043 7.57785L26.8865 8.61169C26.8865 8.54058 26.8865 8.47494 26.9248 8.40929L25.1524 7.41919Z" fill="#33322B"/>
<path d="M25.707 5.62964C25.707 5.71716 25.707 5.7992 25.707 5.88673L26.9379 6.57053C26.9379 6.47206 26.8996 6.37358 26.8777 6.28058L25.707 5.62964Z" fill="#33322B"/>
<path d="M24.7096 8.01074C24.6684 8.05569 24.63 8.1032 24.5947 8.15298L26.6899 9.32365C26.6899 9.26894 26.7336 9.20874 26.7501 9.15403L24.7096 8.01074Z" fill="#33322B"/>
<path d="M25.4825 6.76306L25.4004 6.95458L26.9868 7.84625C26.9868 7.76967 26.9868 7.68759 26.9868 7.61647L25.4825 6.76306Z" fill="#33322B"/>
<path d="M25.3299 7.10242C25.2971 7.15712 25.2697 7.21733 25.2314 7.27751L26.9492 8.23482C26.9492 8.16371 26.9492 8.09258 26.9492 8.02147L25.3299 7.10242Z" fill="#33322B"/>
<path d="M25.5988 6.41309C25.5988 6.47873 25.5606 6.54985 25.5332 6.62096L26.9993 7.44152C26.9993 7.35399 26.9993 7.27189 26.9993 7.18984L25.5988 6.41309Z" fill="#33322B"/>
<path d="M25.6756 6.04199C25.6756 6.11858 25.6756 6.19519 25.6318 6.27177L26.9775 7.02669C26.9775 6.93369 26.9775 6.84069 26.9775 6.75317L25.6756 6.04199Z" fill="#33322B"/>
<path d="M11.5371 6.75173C11.5371 6.68608 11.5371 6.61497 11.5371 6.54933L10.9901 6.25391C10.9723 6.30956 10.9576 6.36614 10.9463 6.42345L11.5371 6.75173Z" fill="#33322B"/>
<path d="M11.5932 5.49236C11.5992 5.43898 11.6084 5.38599 11.6206 5.33369L11.3908 5.20789L11.3252 5.33917L11.5932 5.49236Z" fill="#33322B"/>
<path d="M11.5515 5.89319V5.72364L11.2233 5.5376L11.1631 5.68531L11.5515 5.89319Z" fill="#33322B"/>
<path d="M11.7485 4.69523C11.7485 4.65147 11.7485 4.60223 11.7485 4.55847L11.6719 4.66785L11.7485 4.69523Z" fill="#33322B"/>
<path d="M11.6622 5.0848L11.695 4.93708L11.5692 4.86597L11.498 4.99177L11.6622 5.0848Z" fill="#33322B"/>
<path d="M11.5289 6.31538C11.5289 6.2552 11.5289 6.18958 11.5289 6.1294L11.0967 5.88867C11.0967 5.94338 11.0584 5.99263 11.042 6.04733L11.5289 6.31538Z" fill="#33322B"/>
<path d="M11.6444 7.68006C11.6444 7.60348 11.6116 7.52687 11.6006 7.45029L10.8238 7.0127L10.791 7.20962L11.6444 7.68006Z" fill="#33322B"/>
<path d="M13.7078 8.1958C13.6789 8.24749 13.6459 8.29688 13.6094 8.34351L19.9113 11.8665C20.0808 11.8993 20.2559 11.9321 20.4583 11.954L13.7078 8.1958Z" fill="#33322B"/>
<path d="M11.7602 8.17993C11.7339 8.09543 11.712 8.00956 11.6946 7.92277L10.7646 7.37573C10.7646 7.44685 10.7646 7.51249 10.7646 7.58361L11.7602 8.17993Z" fill="#33322B"/>
<path d="M13.6113 6.86792C13.6442 6.94451 13.677 7.02111 13.7043 7.0977L22.2819 11.8897L22.4679 11.8186L13.6113 6.86792Z" fill="#33322B"/>
<path d="M13.792 7.39209C13.8078 7.45867 13.8188 7.52632 13.8248 7.59449L21.6967 11.9982C21.7885 11.993 21.8798 11.982 21.9702 11.9653L13.792 7.39209Z" fill="#33322B"/>
<path d="M13.2246 5.36792C13.2246 5.42262 13.2246 5.47729 13.2246 5.53199L23.1861 11.1009C23.2066 11.0618 23.2249 11.0216 23.2409 10.9805L13.2246 5.36792Z" fill="#33322B"/>
<path d="M13.8238 7.83521C13.8187 7.8945 13.8077 7.9531 13.791 8.01023L20.9025 11.9982C21.0283 11.9982 21.1487 11.9982 21.269 11.9982L13.8238 7.83521Z" fill="#33322B"/>
<path d="M13.416 6.32715C13.416 6.39826 13.4598 6.46939 13.4871 6.5405L22.6992 11.6881C22.7447 11.6601 22.787 11.6271 22.8251 11.5896L13.416 6.32715Z" fill="#33322B"/>
<path d="M13.293 5.83325C13.293 5.89343 13.3203 5.95358 13.3367 6.01923L22.9974 11.4185C23.0309 11.3836 23.0602 11.3451 23.0849 11.3036L13.293 5.83325Z" fill="#33322B"/>
<path d="M23.3309 13.9951L23.0957 14.0771L24.3211 14.7609L24.4742 14.6351L23.3309 13.9951Z" fill="#33322B"/>
<path d="M21.0946 14.4604H20.6953L22.8835 15.6968L23.0968 15.571L21.0946 14.4604Z" fill="#33322B"/>
<path d="M20.3763 14.4875H19.9004L22.5098 15.9427L22.745 15.8224L20.3763 14.4875Z" fill="#33322B"/>
<path d="M11.9781 8.73141C11.9234 8.63203 11.8741 8.52973 11.8304 8.42504L10.7363 7.80688C10.7363 7.88347 10.7363 7.9546 10.7363 8.02571L11.9781 8.73141Z" fill="#33322B"/>
<path d="M21.7288 14.3884L21.3896 14.4322L23.2824 15.4935L23.4793 15.3676L21.7288 14.3884Z" fill="#33322B"/>
<path d="M22.8316 14.1482L22.5635 14.2248L23.9858 15.0126L24.1499 14.8867L22.8316 14.1482Z" fill="#33322B"/>
<path d="M22.3038 14.2849L22.0029 14.3451L23.644 15.2587L23.8191 15.1328L22.3038 14.2849Z" fill="#33322B"/>
<path d="M19.5369 14.4436L18.9297 14.3616L22.0806 16.1231L22.3377 16.0082L19.5369 14.4436Z" fill="#33322B"/>
<path d="M16.2878 12.0149L16.4027 11.8344L10.708 8.65063C10.708 8.73269 10.708 8.81472 10.708 8.89677L16.2878 12.0149Z" fill="#33322B"/>
<path d="M16.4894 11.6915L16.5879 11.5439L12.4578 9.22987L12.2937 9.33931C12.2444 9.24085 12.1843 9.14236 12.1296 9.04937L10.6963 8.24524C10.6963 8.32182 10.6963 8.39837 10.6963 8.48043L16.4894 11.6915Z" fill="#33322B"/>
<path d="M18.4767 14.2745C18.1465 14.2047 17.8212 14.1134 17.5029 14.001L21.6221 16.304L21.9066 16.1946L18.4767 14.2745Z" fill="#33322B"/>
<path d="M16.0918 12.3438L16.1247 12.2836L16.2067 12.1523L10.7363 9.08887C10.7363 9.17639 10.7363 9.26398 10.7363 9.3515L16.0918 12.3438Z" fill="#33322B"/>
<path d="M15.9136 12.6766C15.9136 12.6164 15.9793 12.5453 16.0176 12.4742L10.7715 9.53662C10.7715 9.62962 10.7988 9.72809 10.8098 9.82109L15.9136 12.6766Z" fill="#33322B"/>
<path d="M15.8444 13.0696C15.8149 12.9846 15.8149 12.8921 15.8444 12.807L10.8281 10.0007C10.8281 10.0992 10.8609 10.2032 10.8828 10.3016L15.8444 13.0696Z" fill="#33322B"/>
<path d="M21.1858 2.48608C21.5332 2.50846 21.8704 2.61344 22.1691 2.79231C22.4679 2.97119 22.7196 3.21878 22.9034 3.51451C23.0341 3.67754 23.1154 3.87456 23.1376 4.08231C23.1599 4.29007 23.1222 4.49985 23.0289 4.68685C22.9357 4.87384 22.7909 5.03029 22.6117 5.13759C22.4324 5.24489 22.2261 5.29859 22.0172 5.29238C21.6028 5.29657 21.1941 5.19535 20.8295 4.99823C20.465 4.80111 20.1565 4.51452 19.933 4.16545C19.4462 3.25737 19.933 2.47513 21.1858 2.48608Z" fill="#33322B"/>
</svg>
