<svg viewBox="0 0 73 50" fill="none" xmlns="http://www.w3.org/2000/svg">
<path d="M12.375 43.8544H12.8578V46.1234H15.9572V43.8544H16.4399V49.078H15.9572V46.5434H12.8578V49.0731H12.375V43.8544Z" fill="#33322B"/>
<path d="M22.6242 43.7485C24.2608 43.7485 25.0815 45.0327 25.0815 46.4666C25.0815 47.9004 24.2608 49.1846 22.6242 49.1846C20.9876 49.1846 20.1572 47.9004 20.1572 46.4666C20.1572 45.0327 20.9876 43.7485 22.6242 43.7485ZM22.6242 48.7646C23.9953 48.7646 24.5843 47.6059 24.5843 46.4666C24.5843 45.3272 23.9953 44.1685 22.6242 44.1685C21.2531 44.1685 20.6545 45.3272 20.6545 46.4666C20.6545 47.6059 21.2483 48.7646 22.6242 48.7646Z" fill="#33322B"/>
<path d="M28.7899 43.8542H29.2727V48.653H32.1983V49.0779H28.7754L28.7899 43.8542Z" fill="#33322B"/>
<path d="M35.6582 43.8544H37.4638C39.0425 43.893 39.8777 44.7426 39.8777 46.4661C39.8777 48.1897 39.0569 49.0394 37.4638 49.078H35.6582V43.8544ZM36.141 48.6531H37.1982C38.6997 48.6531 39.3515 48.0303 39.3515 46.4661C39.3515 44.902 38.6997 44.2792 37.1982 44.2792H36.141V48.6531Z" fill="#33322B"/>
<path d="M43.6094 43.8542H44.0922V49.0779H43.6094V43.8542Z" fill="#33322B"/>
<path d="M48.1104 43.8544H48.6945L51.736 48.2717V43.8544H52.2188V49.078H51.6636L48.6172 44.6606V49.078H48.1345L48.1104 43.8544Z" fill="#33322B"/>
<path d="M60.6523 49.0786H60.2806L60.213 48.113C60.0498 48.4477 59.7914 48.7266 59.4701 48.9148C59.1488 49.1029 58.7791 49.1918 58.4074 49.1703C56.7611 49.1703 55.9404 47.8862 55.9404 46.4523C55.9404 45.0185 56.7611 43.7343 58.4074 43.7343C58.922 43.6956 59.4322 43.8526 59.8359 44.1739C60.2396 44.4953 60.5071 44.9573 60.5847 45.4674H60.102C60.0269 45.083 59.8157 44.7385 59.507 44.4972C59.1984 44.256 58.8131 44.1343 58.4219 44.1543C57.0412 44.1543 56.4521 45.313 56.4521 46.4523C56.4521 47.5917 57.0412 48.7503 58.4219 48.7503C58.6732 48.7625 58.9241 48.7198 59.1572 48.6253C59.3903 48.5308 59.6001 48.3866 59.7719 48.2029C59.9437 48.0191 60.0734 47.8002 60.1521 47.5613C60.2308 47.3223 60.2565 47.0691 60.2275 46.8192H58.4508V46.3943H60.6668L60.6523 49.0786Z" fill="#33322B"/>
<path d="M35.0059 6.94217L36.5121 0.907471L35.0059 6.94217Z" fill="#33322B"/>
<path d="M35.0059 19.0112L36.5121 25.0459L35.0059 19.0112Z" fill="#33322B"/>
<path d="M38.0228 6.94217L36.5117 0.907471L38.0228 6.94217Z" fill="#33322B"/>
<path d="M38.0228 19.0112L36.5117 25.0459L38.0228 19.0112Z" fill="#33322B"/>
<path d="M32.4922 17.0034V14.9903V10.9687V8.95556H34.5005L32.8447 6.94238H30.479V11.4708L24.4443 12.9771L30.479 14.4882V19.0118H32.8447L34.5005 17.0034H32.4922Z" fill="#33322B"/>
<path d="M38.0233 19.0115L38.5254 17.0031L34.499 12.1174V17.0031L35.006 19.0115L36.5122 25.0462L38.0233 19.0115Z" fill="#33322B"/>
<path d="M40.5356 8.95458V10.9678V14.9893V17.0025H38.5273L40.1832 19.0108H42.5488V14.4872L48.5835 12.9761L42.5488 11.4698V6.94141H40.1832L38.5273 8.95458H40.5356Z" fill="#33322B"/>
<path d="M38.5265 8.95556L38.0244 6.94238L38.5265 8.95556Z" fill="#33322B"/>
<path d="M34.499 8.95535L38.5254 13.841V8.95535L38.0233 6.94217L36.5122 0.907471L35.006 6.94217L34.499 8.95535Z" fill="#33322B"/>
<path d="M0.304688 28.6809H2.43852L7.71529 35.3384H7.74428V28.6809H9.53053V37.5495H7.43047L2.11993 30.892V37.5495H0.333623L0.304688 28.6809Z" fill="#33322B"/>
<path d="M14.8988 30.71C17.8438 30.71 18.9734 32.4383 18.9734 34.2487C18.9734 36.0592 17.8438 37.7875 14.8988 37.7875C11.9539 37.7875 10.8242 36.0736 10.8242 34.2487C10.8242 32.4239 12.0022 30.71 14.8988 30.71ZM14.8988 36.4743C16.5499 36.4743 17.1823 35.3929 17.1823 34.2487C17.1823 33.1046 16.5499 32.028 14.8988 32.028C13.2477 32.028 12.6153 33.1094 12.6153 34.2487C12.6153 35.3881 13.267 36.4743 14.8988 36.4743Z" fill="#33322B"/>
<path d="M20.0994 30.9599H21.8132V32.2345C22.0524 31.7872 22.411 31.415 22.849 31.1593C23.2871 30.9036 23.7875 30.7744 24.2947 30.7861C24.5243 30.7876 24.7536 30.807 24.9802 30.8441V32.5338C24.6263 32.42 24.2559 32.3662 23.8843 32.3745C23.0153 32.3745 21.7891 32.8186 21.7891 34.3587V37.5402H20.0752L20.0994 30.9599Z" fill="#33322B"/>
<path d="M26.3802 32.2017H25.0381V30.9609H26.4043V28.9236H28.1182V30.9609H29.9044V32.2017H28.1182V35.2045C28.1182 35.9625 28.1568 36.3728 28.741 36.3728C29.1755 36.3728 29.5569 36.3728 29.9672 36.3728V37.6136C29.5328 37.6813 29.0938 37.7152 28.6541 37.7149C26.5637 37.7149 26.4043 36.9666 26.4043 35.7259L26.3802 32.2017Z" fill="#33322B"/>
<path d="M30.8972 28.522H32.611V31.9497C32.9232 31.5665 33.3206 31.2618 33.7716 31.0597C34.2227 30.8577 34.7147 30.764 35.2084 30.7862C36.6567 30.7862 38.0037 31.2689 38.0037 33.0697V37.5402H36.2898V33.6152C36.2898 32.9055 36.0533 32.0993 34.6387 32.0993C33.7408 32.0993 32.5869 32.5821 32.5869 34.0015V37.5402H30.873L30.8972 28.522Z" fill="#33322B"/>
<path d="M39.627 28.6809H41.4905V36.0818H46.8831V37.5302H39.6415L39.627 28.6809Z" fill="#33322B"/>
<path d="M47.7256 28.522H49.4395V29.9124H47.7256V28.522ZM47.7256 30.9359H49.4395V37.5161H47.7256V30.9359Z" fill="#33322B"/>
<path d="M58.6614 30.9302V37.3173C58.6614 38.867 57.6573 40.2719 54.751 40.2719C52.7137 40.2719 51.0239 39.7892 50.8888 38.1236H52.6798C52.8392 38.9781 53.6454 39.0891 54.7026 39.0891C56.6627 39.0891 56.9476 38.0463 56.9476 37.187V36.4049H56.8993C56.548 36.755 56.1284 37.0291 55.6666 37.2102C55.2048 37.3912 54.7107 37.4754 54.215 37.4573C52.477 37.4573 50.5508 36.5787 50.5508 34.131C50.5508 32.4413 51.6564 30.7805 54.2054 30.7805C55.5427 30.7805 56.5131 31.2006 56.909 31.8958V30.9302H58.6614ZM54.7413 36.149C56.0448 36.149 56.9476 35.3138 56.9476 34.0875C56.9476 32.4992 55.4992 32.0985 54.5916 32.0985C53.2978 32.0985 52.3564 32.9337 52.3564 34.1117C52.3564 35.0821 52.9405 36.149 54.7413 36.149Z" fill="#33322B"/>
<path d="M60.1052 28.522H61.819V31.9497C62.1302 31.5666 62.5268 31.2618 62.977 31.0598C63.4272 30.8577 63.9186 30.764 64.4116 30.7862C65.8599 30.7862 67.2068 31.2689 67.2068 33.0697V37.5402H65.493V33.6152C65.493 32.9055 65.2564 32.0993 63.8419 32.0993C62.9488 32.0993 61.7949 32.5821 61.7949 34.0015V37.5402H60.0811L60.1052 28.522Z" fill="#33322B"/>
<path d="M69.1582 32.2018H67.792V30.961H69.1582V28.9237H70.872V30.961H72.6584V32.2018H70.872V35.2046C70.872 35.9626 70.9059 36.373 71.49 36.373C71.9245 36.373 72.3108 36.373 72.7211 36.373V37.6137C72.2851 37.6816 71.8444 37.7155 71.4031 37.715C69.3176 37.715 69.1582 36.9667 69.1582 35.726V32.2018Z" fill="#33322B"/>
</svg>
