<svg viewBox="0 0 63 65" fill="none" xmlns="http://www.w3.org/2000/svg">
<path d="M21.8696 46.3251C23.8256 45.6676 25.8317 45.1701 27.8683 44.8378C28.1009 44.8378 28.3406 44.7602 28.5732 44.7461C28.703 44.7426 28.8278 44.6955 28.9276 44.6124C29.0273 44.5293 29.0962 44.415 29.123 44.288C29.3402 43.6923 29.4823 43.0719 29.546 42.4411C29.8059 39.6088 29.2636 36.7606 27.9811 34.2219C27.0101 32.4194 25.5025 30.9635 23.6671 30.056C23.3174 29.8646 22.9573 29.6928 22.5886 29.5414C22.5517 29.5312 22.5176 29.5128 22.4888 29.4876C22.46 29.4623 22.4373 29.4309 22.4224 29.3957C22.4075 29.3604 22.4007 29.3222 22.4026 29.284C22.4046 29.2457 22.4151 29.2084 22.4335 29.1749C22.4462 29.1434 22.4655 29.115 22.49 29.0915C22.5145 29.0681 22.5437 29.0501 22.5757 29.0387C22.6077 29.0274 22.6417 29.023 22.6755 29.0258C22.7094 29.0286 22.7422 29.0386 22.7719 29.055C23.7439 29.3653 24.6873 29.7592 25.5915 30.2322C26.2964 30.634 27.0013 31.0146 27.7062 31.4023C27.8941 31.5126 28.0955 31.5979 28.3054 31.6561C28.82 31.7759 29.1442 31.5433 29.1372 31.0076C29.1114 30.3352 29.0502 29.6646 28.9539 28.9986C28.7102 27.3696 28.3306 25.7639 27.819 24.1982C27.3193 22.2946 27.2043 20.3103 27.4806 18.3616C27.4771 18.3359 27.4771 18.3098 27.4806 18.2841C27.4806 18.2136 27.5229 18.1219 27.6075 18.1219C27.6921 18.1219 27.671 18.2277 27.6851 18.2841C27.8965 19.137 28.108 19.99 28.3265 20.85C28.5907 22.0611 28.9781 23.2421 29.4826 24.3745C29.7521 24.9835 30.1108 25.5489 30.547 26.0521C30.6567 26.2182 30.8034 26.3568 30.9755 26.4567C31.1477 26.5567 31.3406 26.6155 31.5393 26.6285C31.738 26.6415 31.937 26.6083 32.1207 26.5315C32.3044 26.4548 32.4678 26.3365 32.5982 26.186C33.5244 25.3727 34.3935 24.4965 35.1993 23.5638C35.7914 22.9012 36.3554 22.2104 36.884 21.4914C37.0026 21.343 37.1087 21.185 37.2012 21.0191C37.2929 20.8641 37.3986 20.7865 37.5678 20.8711C37.7369 20.9557 37.7017 21.0826 37.6524 21.2376C37.0909 22.7941 36.3455 24.2778 35.4319 25.6574C34.727 26.8416 33.9798 28.0259 33.3172 29.2594C32.8057 30.2017 32.5734 31.2703 32.6476 32.3399C32.6825 32.9494 32.8509 33.5438 33.141 34.081C33.214 34.2462 33.3201 34.3946 33.4528 34.5171C33.5856 34.6396 33.7421 34.7335 33.9126 34.793C34.0831 34.8524 34.2641 34.8763 34.4442 34.8629C34.6243 34.8496 34.7997 34.7994 34.9596 34.7154C35.2618 34.5754 35.5478 34.4028 35.8126 34.2008C36.3851 33.7577 37.0354 33.4254 37.7299 33.221H37.8497C37.4902 33.651 37.1448 34.0528 36.8135 34.4616C35.595 35.9736 34.8278 37.7987 34.6002 39.7272C34.4276 40.9814 34.3921 42.2507 34.4944 43.5126C34.4906 43.5783 34.4906 43.6442 34.4944 43.71C34.5649 44.1822 34.6565 44.2668 35.1288 44.2527C36.4345 44.2255 37.7402 44.3009 39.034 44.4783C39.3582 44.5206 39.6825 44.5276 40.0067 44.5417C40.131 44.5389 40.2542 44.5655 40.3663 44.6193C40.5707 44.7109 40.6976 44.8237 40.6412 45.0915C40.629 45.3907 40.5889 45.688 40.5213 45.9797C40.5127 46.0239 40.4942 46.0655 40.4671 46.1013C40.44 46.1372 40.4051 46.1665 40.365 46.1869C40.3249 46.2073 40.2806 46.2182 40.2357 46.219C40.1907 46.2197 40.1462 46.2102 40.1054 46.1912C38.6694 45.7995 37.2026 45.5307 35.7209 45.3876C34.421 45.2583 33.115 45.1994 31.8087 45.2114C28.9945 45.1882 26.1877 45.5029 23.4486 46.1489C23.0866 46.2196 22.7307 46.3186 22.3842 46.445H22.2361C22.1375 46.3886 22.0317 46.445 21.933 46.445C21.8343 46.445 21.8555 46.4168 21.8696 46.3251Z" fill="#33322B"/>
<path d="M17.6674 27.2865C17.7224 27.2202 17.7914 27.1669 17.8693 27.1303C17.9473 27.0938 18.0325 27.0749 18.1186 27.075C18.6867 27.0034 19.2609 26.9916 19.8315 27.0398C20.1251 27.0564 20.4094 27.1489 20.6565 27.3083C20.9036 27.4677 21.1051 27.6884 21.2413 27.9491C21.3121 28.0499 21.3552 28.1674 21.3665 28.2901C21.3777 28.4127 21.3566 28.5362 21.3052 28.6481C21.2539 28.7601 21.1741 28.8566 21.0738 28.9282C20.9736 28.9997 20.8563 29.0437 20.7337 29.0558C20.3643 29.1378 19.9777 29.0879 19.6412 28.9148C18.9136 28.4954 18.2451 27.981 17.6533 27.3852L17.6674 27.2865Z" fill="#33322B"/>
<path d="M21.9717 46.3836C22.0704 46.3836 22.1831 46.3343 22.2748 46.4259H21.9717V46.3836Z" fill="#33322B"/>
<path d="M25.2881 14.5401V14.4978H25.5348V14.5401C25.519 14.557 25.4999 14.5704 25.4786 14.5795C25.4574 14.5887 25.4346 14.5935 25.4114 14.5935C25.3883 14.5935 25.3654 14.5887 25.3442 14.5795C25.323 14.5704 25.3039 14.557 25.2881 14.5401Z" fill="#33322B"/>
<path d="M21.9709 46.3815V46.4238H21.8229C21.8229 46.3674 21.7735 46.3181 21.8722 46.3251C21.9709 46.3322 21.9356 46.3815 21.9709 46.3815Z" fill="#33322B"/>
<path d="M30.5129 22.6137C30.5129 22.4375 30.5129 22.2683 30.5482 22.0921C30.5775 21.7666 30.7093 21.4589 30.9246 21.2132C31.14 20.9674 31.4277 20.7963 31.7465 20.7246C32.134 20.5852 32.5604 20.6014 32.9362 20.7696C33.3121 20.9378 33.6082 21.2451 33.7625 21.6269C33.9833 22.1397 34.0061 22.7162 33.8264 23.2449C33.6467 23.7735 33.2773 24.2167 32.7897 24.4888C32.595 24.5811 32.383 24.6317 32.1675 24.6371C31.952 24.6426 31.7378 24.6029 31.5386 24.5206C31.3394 24.4383 31.1596 24.3151 31.0109 24.1591C30.8622 24.003 30.7478 23.8176 30.675 23.6147C30.554 23.2954 30.4988 22.9549 30.5129 22.6137Z" fill="#33322B"/>
<path d="M27.5316 27.6536C27.5523 27.8284 27.5362 28.0056 27.4843 28.1737C27.4325 28.3419 27.346 28.4973 27.2305 28.6301C27.115 28.7629 26.973 28.87 26.8136 28.9446C26.6542 29.0192 26.481 29.0597 26.3051 29.0634C25.8684 29.0665 25.4459 28.9087 25.1182 28.62C24.7906 28.3313 24.5807 27.9321 24.5287 27.4985C24.4949 27.2783 24.527 27.053 24.6211 26.851C24.7152 26.649 24.867 26.4794 25.0574 26.3636C25.2838 26.2032 25.5514 26.1107 25.8285 26.097C26.1057 26.0833 26.3811 26.1489 26.6223 26.2861C26.8763 26.4196 27.0926 26.6148 27.2515 26.8538C27.4104 27.0927 27.5067 27.3677 27.5316 27.6536Z" fill="#33322B"/>
<path d="M35.791 29.4637C35.9594 29.4708 36.1226 29.5238 36.2631 29.617C36.4035 29.7102 36.5157 29.84 36.5876 29.9924C36.7483 30.2672 36.8234 30.5837 36.8033 30.9013C36.7832 31.219 36.6688 31.5235 36.4748 31.7758C36.3132 32.0422 36.0739 32.2526 35.789 32.3786C35.5041 32.5047 35.1875 32.5403 34.8817 32.4807C34.7066 32.4587 34.5415 32.3874 34.4055 32.275C34.2694 32.1627 34.1681 32.014 34.1134 31.8463C33.9479 31.4055 33.9479 30.9196 34.1134 30.4788C34.253 30.1563 34.4895 29.8853 34.7901 29.7034C35.0908 29.5215 35.4406 29.4378 35.791 29.4637Z" fill="#33322B"/>
<path d="M40.373 36.2324C40.3307 36.5073 40.3024 36.7893 40.2461 37.0642C40.1897 37.3391 40.0628 37.4025 39.8372 37.2827C39.3458 37.051 38.892 36.7468 38.4909 36.3804C38.3271 36.2252 38.2086 36.0285 38.1478 35.8113C38.087 35.5941 38.0861 35.3645 38.1455 35.1468C38.1661 35.0303 38.2217 34.9228 38.3047 34.8384C38.3878 34.7541 38.4945 34.697 38.6107 34.6746C38.7911 34.6211 38.9808 34.6066 39.1673 34.6321C39.3537 34.6577 39.5326 34.7226 39.692 34.8226C39.8513 34.9226 39.9875 35.0555 40.0916 35.2123C40.1957 35.369 40.2651 35.5462 40.2954 35.7319C40.3394 35.8954 40.3655 36.0632 40.373 36.2324Z" fill="#33322B"/>
<path d="M28.5598 16.5878C28.5566 16.4596 28.5851 16.3327 28.6429 16.2183C28.7007 16.1039 28.786 16.0056 28.8911 15.9322C29.1267 15.7615 29.3886 15.6306 29.6665 15.5445L30.7239 15.185C30.759 15.1639 30.7992 15.1527 30.8402 15.1527C30.8812 15.1527 30.9213 15.1639 30.9565 15.185C31.0411 15.2485 31.0058 15.3331 30.9565 15.4106C30.8507 15.7842 30.7521 16.1648 30.6393 16.5384C30.5398 16.8731 30.3523 17.1749 30.0965 17.4125C29.9781 17.5397 29.817 17.6186 29.6439 17.6342C29.4709 17.6499 29.2982 17.601 29.159 17.4971C28.9913 17.4074 28.8486 17.2773 28.744 17.1185C28.6394 16.9597 28.5761 16.7772 28.5598 16.5878Z" fill="#33322B"/>
<path d="M39.3868 19.594C39.3793 19.3428 39.4454 19.095 39.5769 18.8808C39.7084 18.6667 39.8995 18.4956 40.1269 18.3886C40.4988 18.2211 40.8893 18.0981 41.29 18.0221C41.6072 17.9516 41.7482 18.0784 41.6848 18.3604C41.6461 18.7375 41.529 19.1022 41.3408 19.4313C41.1526 19.7603 40.8976 20.0462 40.5922 20.2707C40.498 20.3558 40.3805 20.4106 40.2549 20.4282C40.1292 20.4458 40.0012 20.4253 39.8873 20.3694C39.7331 20.3089 39.6017 20.2016 39.5119 20.0624C39.4221 19.9233 39.3783 19.7594 39.3868 19.594Z" fill="#33322B"/>
<path d="M25.2891 14.5403H25.5429C25.9024 14.5896 26.2478 14.5403 26.6284 14.5966C26.8326 14.6273 27.0261 14.7076 27.1921 14.8305C27.358 14.9534 27.4912 15.1152 27.58 15.3015C27.6312 15.3839 27.6603 15.4781 27.6645 15.575C27.6686 15.6719 27.6477 15.7682 27.6038 15.8547C27.5599 15.9411 27.4943 16.0148 27.4136 16.0685C27.3329 16.1223 27.2397 16.1543 27.143 16.1616C26.959 16.1953 26.7702 16.1922 26.5874 16.1522C26.4047 16.1123 26.2317 16.0364 26.0786 15.9289L25.1411 15.2663C24.993 15.1676 24.8591 15.0408 24.8944 14.8434C24.9176 14.7565 24.9689 14.6796 25.0403 14.6248C25.1117 14.57 25.1991 14.5403 25.2891 14.5403Z" fill="#33322B"/>
<path d="M24.6349 21.8022C24.999 21.7932 25.363 21.824 25.7204 21.8938C25.9281 21.9146 26.1234 22.002 26.2771 22.1431C26.4309 22.2841 26.5348 22.4712 26.5734 22.6762C26.7073 23.1838 26.7003 23.2613 26.1645 23.2966C25.7657 23.325 25.3659 23.258 24.9981 23.1011C24.6304 22.9441 24.3053 22.7018 24.0498 22.3943C23.9997 22.3286 23.9616 22.2546 23.9371 22.1757C23.8595 21.9572 23.937 21.8163 24.1838 21.8022C24.4305 21.7881 24.4869 21.8022 24.6349 21.8022Z" fill="#33322B"/>
<path d="M21.5042 30.1686C21.6452 30.1686 21.8496 30.0911 21.9201 30.3096C22.0002 30.4659 22.0385 30.6402 22.031 30.8157C22.0236 30.9911 21.9708 31.1616 21.8778 31.3106C21.7577 31.46 21.6205 31.5949 21.469 31.7124C21.1259 31.975 20.7629 32.2107 20.3834 32.4173C20.3154 32.4602 20.2345 32.4781 20.1547 32.4678C20.0749 32.4575 20.0012 32.4197 19.9464 32.3609C19.8265 32.2481 19.8618 32.1212 19.9464 31.9943C20.172 31.5097 20.4262 31.039 20.7077 30.5845C20.9473 30.218 21.0108 30.1686 21.5042 30.1686Z" fill="#33322B"/>
<path d="M25.3596 34.7234C26.0011 34.7234 26.1139 34.8714 26.0645 35.3507C26.0438 35.5417 25.9781 35.725 25.8727 35.8855C25.7673 36.0461 25.6253 36.1792 25.4583 36.2741L24.5701 36.8169C24.5031 36.8764 24.4166 36.9092 24.327 36.9092C24.2373 36.9092 24.1508 36.8764 24.0837 36.8169C24.0268 36.7556 23.9951 36.675 23.9951 36.5914C23.9951 36.5077 24.0268 36.4271 24.0837 36.3658C24.2882 36.0204 24.3939 35.6609 24.6054 35.2944C24.6768 35.1462 24.7824 35.0171 24.9135 34.9178C25.0447 34.8185 25.1976 34.7519 25.3596 34.7234Z" fill="#33322B"/>
<path d="M42.2073 32.5659C41.5872 32.91 40.9266 33.1753 40.2406 33.3554C40.0495 33.3728 39.8584 33.3213 39.702 33.2101C39.5455 33.0989 39.434 32.9354 39.3877 32.7491C39.3974 32.559 39.4731 32.3783 39.6018 32.238C39.7305 32.0978 39.904 32.0068 40.0926 31.9808C40.2223 31.9491 40.3577 31.9491 40.4873 31.9808L42.2073 32.5659Z" fill="#33322B"/>
<path d="M38.6047 17.4796C38.6194 17.7879 38.5885 18.0967 38.513 18.396C38.417 18.7108 38.2055 18.9777 37.9209 19.1432C37.8549 19.1945 37.7755 19.2259 37.6922 19.2335C37.6088 19.2411 37.5251 19.2246 37.4508 19.186C37.3766 19.1474 37.315 19.0883 37.2734 19.0157C37.2318 18.9431 37.2118 18.8602 37.216 18.7766C37.196 18.5892 37.2137 18.3997 37.2682 18.2193C37.3227 18.0389 37.4128 17.8713 37.5332 17.7263C37.7943 17.4116 38.1316 17.1689 38.513 17.0214C38.6399 16.965 38.6752 17.0214 38.654 17.1342C38.6329 17.247 38.6117 17.4091 38.6047 17.4796Z" fill="#33322B"/>
<path d="M38.902 21.0062C39.0865 21.0196 39.2687 21.0551 39.4447 21.112L40.1496 21.3234C40.2081 21.3337 40.2616 21.3626 40.3022 21.4058C40.3429 21.449 40.3685 21.5041 40.3752 21.5631C40.3752 21.6829 40.3752 21.8239 40.2554 21.8592C39.7593 22.0936 39.2179 22.2163 38.6693 22.2186H38.5707C38.4281 22.1823 38.3005 22.1023 38.2057 21.9898C38.1108 21.8773 38.0536 21.738 38.042 21.5913C38.042 21.3657 38.2534 21.1613 38.5777 21.0697L38.902 21.0062Z" fill="#33322B"/>
<path d="M56.0588 26.1441C56.0593 21.9597 55.0199 17.8408 53.034 14.1577C51.0481 10.4745 48.178 7.34269 44.6818 5.04371C41.1855 2.74473 37.1727 1.3507 33.0041 0.986949C28.8356 0.623199 24.642 1.30113 20.8003 2.95981C16.9587 4.61848 13.5896 7.20586 10.9958 10.4894C8.40197 13.7729 6.66487 17.6495 5.94064 21.7708C5.21641 25.892 5.52778 30.1287 6.84672 34.0998C8.16566 38.0709 10.4508 41.6519 13.4968 44.5209C10.6607 41.2104 8.83327 37.1561 8.23114 32.8386C7.62901 28.5211 8.27741 24.1215 10.0995 20.1613C11.9216 16.2011 14.8409 12.8464 18.5115 10.4947C22.182 8.14312 26.4499 6.89322 30.8092 6.89322C35.1685 6.89322 39.4363 8.14312 43.1069 10.4947C46.7774 12.8464 49.6968 16.2011 51.5189 20.1613C53.3409 24.1215 53.9893 28.5211 53.3872 32.8386C52.7851 37.1561 50.9577 41.2104 48.1216 44.5209C50.6311 42.1635 52.6303 39.3163 53.9955 36.1555C55.3607 32.9946 56.063 29.5872 56.0588 26.1441Z" fill="#33322B"/>
<path d="M6.25566 59.6906L4.37359 56.2859H2.8792V59.6906H0.834961V50.1109H5.31813C5.73881 50.078 6.16171 50.1342 6.55924 50.2757C6.95677 50.4172 7.32001 50.6409 7.62529 50.9322C7.93056 51.2235 8.17105 51.5759 8.33101 51.9664C8.49096 52.3569 8.56682 52.7767 8.55365 53.1985C8.58185 53.8405 8.38646 54.4725 8.00084 54.9866C7.61522 55.5008 7.06324 55.8654 6.43895 56.0181L8.61006 59.6624L6.25566 59.6906ZM6.45306 53.1843C6.45082 53.0059 6.41176 52.8298 6.33836 52.6671C6.26495 52.5044 6.15876 52.3587 6.02643 52.2389C5.8941 52.1191 5.73848 52.028 5.5693 51.9711C5.40013 51.9143 5.22105 51.8929 5.04325 51.9085H2.89326V54.4955H5.04325C5.22208 54.5071 5.40136 54.4817 5.56995 54.4209C5.73854 54.3602 5.89282 54.2653 6.02312 54.1423C6.15342 54.0193 6.25697 53.8707 6.3273 53.7059C6.39763 53.5411 6.43324 53.3636 6.43189 53.1843H6.45306Z" fill="#33322B"/>
<path d="M17.3754 59.6911L15.6978 53.1144L14.0342 59.6911H11.8983L9.15625 50.1115H11.4401L13.1178 57.0336L14.9435 50.1115H16.5366L18.3482 57.0336L20.0259 50.1115H22.3098L19.5818 59.6911H17.3754Z" fill="#33322B"/>
<path d="M29.2237 59.6911L28.6245 58.0698H24.515L23.9087 59.6911H21.5967L25.2904 50.1115H27.8492L31.5358 59.6911H29.2237ZM26.5662 52.1557L25.0718 56.2723H28.0606L26.5662 52.1557Z" fill="#33322B"/>
<path d="M39.0363 59.691L34.4544 53.4315V59.6769H32.4102V50.0973H34.5249L38.9587 56.1172V50.0973H41.0029V59.6769L39.0363 59.691Z" fill="#33322B"/>
<path d="M42.4311 54.9115C42.4311 51.8804 44.7291 49.9772 47.5487 49.9772C48.3346 49.9512 49.1134 50.1331 49.8065 50.5044C50.4995 50.8757 51.0824 51.4233 51.4962 52.0919L49.8185 53.0153C49.5709 52.6377 49.2345 52.3265 48.8389 52.109C48.4432 51.8915 48.0002 51.7743 47.5487 51.7676C46.7149 51.7676 45.9153 52.0988 45.3257 52.6884C44.7361 53.278 44.4049 54.0777 44.4049 54.9115C44.4049 55.7453 44.7361 56.5449 45.3257 57.1345C45.9153 57.7241 46.7149 58.0554 47.5487 58.0554C48.2843 58.0616 48.9993 57.8125 49.5718 57.3505V56.2015H47.0412V54.4181H51.609V58.0977C51.103 58.6738 50.4778 59.133 49.7767 59.4434C49.0756 59.7537 48.3154 59.9079 47.5487 59.8952C46.879 59.9294 46.2095 59.8249 45.582 59.5883C44.9545 59.3517 44.3827 58.9881 43.9023 58.5202C43.4219 58.0524 43.0432 57.4904 42.7901 56.8694C42.5369 56.2484 42.4147 55.5819 42.4311 54.9115Z" fill="#33322B"/>
<path d="M59.7538 59.6911L59.1546 58.0698H55.045L54.4458 59.6911H52.1338L55.8204 50.1115H58.3792L62.0658 59.6911H59.7538ZM57.0963 52.1557L55.6019 56.2512H58.5836L57.0963 52.1557Z" fill="#33322B"/>
<path d="M0.21582 64.2854V61.3318H1.22383C1.42634 61.3178 1.62956 61.3456 1.82087 61.4135C2.01218 61.4814 2.1875 61.5879 2.33591 61.7264C2.48431 61.8649 2.60267 62.0324 2.68358 62.2186C2.76449 62.4047 2.8062 62.6056 2.8062 62.8086C2.8062 63.0116 2.76449 63.2124 2.68358 63.3985C2.60267 63.5847 2.48431 63.7523 2.33591 63.8908C2.1875 64.0293 2.01218 64.1358 1.82087 64.2037C1.62956 64.2716 1.42634 64.2994 1.22383 64.2854H0.21582ZM2.33053 62.8121C2.34073 62.6598 2.31849 62.507 2.26526 62.3639C2.21203 62.2208 2.12902 62.0907 2.02175 61.9821C1.91447 61.8735 1.78538 61.7889 1.64296 61.7339C1.50055 61.6789 1.34808 61.6548 1.19565 61.6631H0.61762V63.961H1.25906C1.4083 63.9632 1.55639 63.9347 1.69408 63.8771C1.83176 63.8194 1.95611 63.7341 2.05931 63.6262C2.1625 63.5184 2.24235 63.3905 2.29387 63.2504C2.34539 63.1103 2.36745 62.9611 2.35871 62.8121H2.33053Z" fill="#33322B"/>
<path d="M3.71289 64.2866V61.333H5.64432V61.6644H4.07941V62.5948H5.61614V62.919H4.07941V63.9412H5.64432V64.2654L3.71289 64.2866Z" fill="#33322B"/>
<path d="M6.51354 62.8123C6.50676 62.6108 6.54124 62.41 6.61482 62.2223C6.6884 62.0346 6.79955 61.8639 6.94146 61.7206C7.08337 61.5774 7.25303 61.4647 7.44006 61.3894C7.62709 61.3141 7.82754 61.2778 8.0291 61.2827C8.2502 61.2771 8.46906 61.3279 8.66512 61.4302C8.86119 61.5326 9.028 61.6831 9.14987 61.8677L8.84677 62.0439C8.75547 61.9114 8.63335 61.803 8.49092 61.7281C8.34849 61.6532 8.19002 61.6141 8.0291 61.614C7.71128 61.614 7.40648 61.7402 7.18175 61.9649C6.95701 62.1897 6.83076 62.4945 6.83076 62.8123C6.83076 63.1302 6.95701 63.4349 7.18175 63.6596C7.40648 63.8844 7.71128 64.0106 8.0291 64.0106C8.18969 64.0088 8.34752 63.9688 8.48967 63.894C8.63182 63.8193 8.75421 63.7119 8.84677 63.5807L9.15693 63.7498C9.03207 63.9331 8.86365 64.0825 8.6668 64.1846C8.46995 64.2867 8.25084 64.3383 8.0291 64.3349C7.82788 64.3408 7.62758 64.3054 7.44058 64.2308C7.25357 64.1563 7.08382 64.0443 6.9418 63.9016C6.79979 63.7589 6.68852 63.5887 6.61486 63.4013C6.54121 63.214 6.50671 63.0135 6.51354 62.8123Z" fill="#33322B"/>
<path d="M10.0195 64.2866V61.333H10.3861V64.2866H10.0195Z" fill="#33322B"/>
<path d="M11.4756 64.2854V61.3318H12.4906C12.6932 61.3178 12.8964 61.3456 13.0877 61.4135C13.279 61.4814 13.4543 61.5879 13.6027 61.7264C13.7511 61.8649 13.8695 62.0324 13.9504 62.2186C14.0313 62.4047 14.073 62.6056 14.073 62.8086C14.073 63.0116 14.0313 63.2124 13.9504 63.3985C13.8695 63.5847 13.7511 63.7523 13.6027 63.8908C13.4543 64.0293 13.279 64.1358 13.0877 64.2037C12.8964 64.2716 12.6932 64.2994 12.4906 64.2854H11.4756ZM13.5903 62.8121C13.6016 62.6602 13.5803 62.5075 13.5279 62.3644C13.4755 62.2213 13.3931 62.0911 13.2864 61.9824C13.1796 61.8736 13.0509 61.7889 12.9088 61.7339C12.7668 61.6788 12.6146 61.6547 12.4624 61.6631H11.821V63.961H12.4624C12.6163 63.9713 12.7706 63.9488 12.915 63.8948C13.0595 63.8408 13.1908 63.7566 13.3002 63.6479C13.4096 63.5392 13.4945 63.4084 13.5494 63.2643C13.6043 63.1202 13.6278 62.9661 13.6185 62.8121H13.5903Z" fill="#33322B"/>
<path d="M14.9795 64.2866V61.333H16.9109V61.6644H15.3461V62.5948H16.8827V62.919H15.3461V63.9412H16.9109V64.2654L14.9795 64.2866Z" fill="#33322B"/>
<path d="M17.8131 64.0883C17.8071 64.0529 17.8088 64.0166 17.8182 63.982C17.8277 63.9473 17.8445 63.9151 17.8677 63.8876C17.8909 63.8602 17.9198 63.8382 17.9523 63.823C17.9849 63.8079 18.0204 63.8 18.0563 63.8C18.0922 63.8 18.1277 63.8079 18.1603 63.823C18.1928 63.8382 18.2217 63.8602 18.2448 63.8876C18.268 63.9151 18.2849 63.9473 18.2943 63.982C18.3038 64.0166 18.3055 64.0529 18.2995 64.0883C18.2897 64.1457 18.2599 64.1978 18.2154 64.2354C18.1709 64.2729 18.1145 64.2934 18.0563 64.2934C17.998 64.2934 17.9417 64.2729 17.8972 64.2354C17.8527 64.1978 17.8229 64.1457 17.8131 64.0883Z" fill="#33322B"/>
<path d="M19.1913 62.8123C19.1845 62.6108 19.219 62.41 19.2926 62.2223C19.3661 62.0346 19.4773 61.8639 19.6192 61.7206C19.7611 61.5774 19.9308 61.4647 20.1178 61.3894C20.3048 61.3141 20.5053 61.2778 20.7068 61.2827C20.9279 61.2771 21.1468 61.3279 21.3429 61.4302C21.5389 61.5326 21.7058 61.6831 21.8276 61.8677L21.5245 62.0439C21.4332 61.9114 21.3111 61.803 21.1687 61.7281C21.0262 61.6532 20.8678 61.6141 20.7068 61.614C20.389 61.614 20.0842 61.7402 19.8595 61.9649C19.6347 62.1897 19.5085 62.4945 19.5085 62.8123C19.5085 63.1302 19.6347 63.4349 19.8595 63.6596C20.0842 63.8844 20.389 64.0106 20.7068 64.0106C20.8674 64.0088 21.0253 63.9688 21.1674 63.894C21.3096 63.8193 21.4319 63.7119 21.5245 63.5807L21.8347 63.7498C21.7098 63.9331 21.5414 64.0825 21.3445 64.1846C21.1477 64.2867 20.9286 64.3383 20.7068 64.3349C20.5056 64.3408 20.3053 64.3054 20.1183 64.2308C19.9313 64.1563 19.7616 64.0443 19.6195 63.9016C19.4775 63.7589 19.3663 63.5887 19.2926 63.4013C19.2189 63.214 19.1844 63.0135 19.1913 62.8123Z" fill="#33322B"/>
<path d="M22.5827 62.8124C22.5938 62.5251 22.6891 62.2473 22.8568 62.0137C23.0245 61.7801 23.2571 61.601 23.5258 61.4986C23.7945 61.3963 24.0874 61.3752 24.368 61.438C24.6486 61.5008 24.9046 61.6447 25.104 61.8518C25.3035 62.0589 25.4376 62.32 25.4897 62.6028C25.5419 62.8856 25.5098 63.1775 25.3973 63.4421C25.2849 63.7068 25.0971 63.9325 24.8574 64.0913C24.6176 64.25 24.3365 64.3347 24.049 64.3349C23.8492 64.3436 23.65 64.3097 23.4644 64.2355C23.2788 64.1612 23.1111 64.0484 22.9724 63.9044C22.8338 63.7604 22.7273 63.5886 22.6601 63.4003C22.593 63.212 22.5666 63.0117 22.5827 62.8124ZM25.1345 62.8124C25.1141 62.6017 25.0328 62.4015 24.9007 62.2362C24.7685 62.0708 24.5912 61.9474 24.3903 61.8809C24.1893 61.8144 23.9734 61.8077 23.7687 61.8616C23.564 61.9155 23.3794 62.0277 23.2373 62.1846C23.0952 62.3415 23.0017 62.5362 22.9682 62.7452C22.9347 62.9542 22.9626 63.1685 23.0486 63.3619C23.1346 63.5553 23.2749 63.7196 23.4525 63.8348C23.6301 63.9499 23.8373 64.0111 24.049 64.0107C24.2012 64.0105 24.3517 63.9783 24.4908 63.9165C24.6299 63.8547 24.7546 63.7645 24.8568 63.6516C24.959 63.5388 25.0365 63.4059 25.0843 63.2613C25.1322 63.1168 25.1493 62.9639 25.1345 62.8124Z" fill="#33322B"/>
<path d="M29.0089 64.2866V61.8053L28.0079 64.2866H27.8529L26.8519 61.8053V64.2866H26.4854V61.333H27.014L27.9304 63.6098L28.8468 61.333H29.3754V64.2866H29.0089Z" fill="#33322B"/>
<path d="M32.9874 64.2866V61.8053L31.9864 64.2866H31.8384L30.8304 61.8053V64.2866H30.4639V61.333H30.9925L31.916 63.6098L32.8323 61.333H33.354V64.2866H32.9874Z" fill="#33322B"/>
<path d="M34.4541 64.2866V61.333H34.8207V64.2866H34.4541Z" fill="#33322B"/>
<path d="M36.6297 64.2866V61.6644H35.6992V61.333H37.9337V61.6644H36.9962V64.2866H36.6297Z" fill="#33322B"/>
<path d="M38.3336 64.0883C38.3276 64.0529 38.3293 64.0166 38.3387 63.982C38.3482 63.9473 38.365 63.9151 38.3882 63.8876C38.4114 63.8602 38.4403 63.8382 38.4728 63.823C38.5054 63.8079 38.5409 63.8 38.5768 63.8C38.6127 63.8 38.6482 63.8079 38.6808 63.823C38.7133 63.8382 38.7422 63.8602 38.7654 63.8876C38.7886 63.9151 38.8054 63.9473 38.8149 63.982C38.8243 64.0166 38.826 64.0529 38.82 64.0883C38.8102 64.1457 38.7804 64.1978 38.7359 64.2354C38.6914 64.2729 38.635 64.2934 38.5768 64.2934C38.5186 64.2934 38.4622 64.2729 38.4177 64.2354C38.3732 64.1978 38.3434 64.1457 38.3336 64.0883Z" fill="#33322B"/>
<path d="M39.6543 63.8708L39.8728 63.5888C39.9873 63.7215 40.129 63.828 40.2884 63.901C40.4477 63.9739 40.621 64.0117 40.7962 64.0117C41.3249 64.0117 41.5011 63.7297 41.5011 63.4971C41.5011 62.7358 39.753 63.1588 39.753 62.0873C39.7625 61.9654 39.7967 61.8466 39.8535 61.7382C39.9104 61.6299 39.9886 61.5343 40.0835 61.4571C40.1785 61.38 40.2881 61.3229 40.4058 61.2895C40.5235 61.256 40.6467 61.2469 40.7681 61.2626C40.9623 61.2557 41.1559 61.2892 41.3367 61.3607C41.5174 61.4323 41.6814 61.5404 41.8184 61.6784L41.5928 61.9533C41.4856 61.8347 41.3536 61.741 41.2063 61.6789C41.0589 61.6167 40.8996 61.5877 40.7398 61.5938C40.3874 61.5938 40.1336 61.7842 40.1336 62.0662C40.1336 62.7288 41.8818 62.3481 41.8818 63.476C41.8818 63.906 41.5928 64.343 40.7962 64.343C40.5829 64.3531 40.3699 64.316 40.1725 64.2344C39.9751 64.1528 39.7982 64.0286 39.6543 63.8708Z" fill="#33322B"/>
<path d="M42.8232 63.1376V61.333H43.1969V63.1305C43.1862 63.2467 43.1998 63.3637 43.237 63.4743C43.2741 63.5849 43.3338 63.6866 43.4125 63.7727C43.4911 63.8589 43.5868 63.9277 43.6935 63.9748C43.8002 64.0219 43.9155 64.0462 44.0322 64.0462C44.1488 64.0462 44.2641 64.0219 44.3709 63.9748C44.4776 63.9277 44.5732 63.8589 44.6518 63.7727C44.7304 63.6866 44.7903 63.5849 44.8274 63.4743C44.8645 63.3637 44.8782 63.2467 44.8675 63.1305V61.333H45.2411V63.1376C45.2178 63.4423 45.0803 63.7269 44.8562 63.9346C44.632 64.1422 44.3377 64.2576 44.0322 64.2576C43.7266 64.2576 43.4323 64.1422 43.2081 63.9346C42.984 63.7269 42.8465 63.4423 42.8232 63.1376Z" fill="#33322B"/>
<path d="M46.2059 62.8125C46.1991 62.6104 46.2338 62.409 46.3078 62.2208C46.3818 62.0326 46.4936 61.8615 46.6363 61.7182C46.7789 61.5748 46.9495 61.4623 47.1373 61.3874C47.3252 61.3125 47.5264 61.277 47.7285 61.2829C47.9487 61.2772 48.1666 61.328 48.3616 61.4304C48.5565 61.5328 48.722 61.6834 48.8423 61.8679L48.5392 62.0441C48.4485 61.9126 48.3276 61.8048 48.1865 61.73C48.0453 61.6551 47.8883 61.6154 47.7285 61.6141C47.4107 61.6141 47.1059 61.7404 46.8812 61.9651C46.6565 62.1899 46.5302 62.4947 46.5302 62.8125C46.5302 63.1303 46.6565 63.4351 46.8812 63.6598C47.1059 63.8846 47.4107 64.0108 47.7285 64.0108C47.8881 64.0084 48.0447 63.9682 48.1856 63.8935C48.3266 63.8187 48.4477 63.7115 48.5392 63.5808L48.8493 63.75C48.726 63.9332 48.5589 64.0826 48.3632 64.1848C48.1675 64.287 47.9493 64.3386 47.7285 64.3351C47.5267 64.3419 47.3257 64.3073 47.1378 64.2332C46.95 64.1591 46.7794 64.0472 46.6366 63.9044C46.4938 63.7616 46.3819 63.591 46.3078 63.4032C46.2337 63.2153 46.1991 63.0143 46.2059 62.8125Z" fill="#33322B"/>
<path d="M49.5946 62.8125C49.5878 62.6104 49.6224 62.409 49.6964 62.2208C49.7705 62.0326 49.8823 61.8615 50.0249 61.7182C50.1676 61.5748 50.3381 61.4623 50.526 61.3874C50.7138 61.3125 50.9151 61.277 51.1172 61.2829C51.3374 61.2772 51.5553 61.328 51.7502 61.4304C51.9452 61.5328 52.1107 61.6834 52.2309 61.8679L51.9278 62.0441C51.8372 61.9126 51.7162 61.8048 51.5751 61.73C51.434 61.6551 51.2769 61.6154 51.1172 61.6141C50.7994 61.6141 50.4946 61.7404 50.2699 61.9651C50.0451 62.1899 49.9189 62.4947 49.9189 62.8125C49.9189 63.1303 50.0451 63.4351 50.2699 63.6598C50.4946 63.8846 50.7994 64.0108 51.1172 64.0108C51.2767 64.0084 51.4334 63.9682 51.5743 63.8935C51.7152 63.8187 51.8364 63.7115 51.9278 63.5808L52.238 63.75C52.1147 63.9332 51.9476 64.0826 51.7519 64.1848C51.5561 64.287 51.338 64.3386 51.1172 64.3351C50.9154 64.3419 50.7143 64.3073 50.5265 64.2332C50.3387 64.1591 50.1681 64.0472 50.0253 63.9044C49.8825 63.7616 49.7706 63.591 49.6965 63.4032C49.6224 63.2153 49.5877 63.0143 49.5946 62.8125Z" fill="#33322B"/>
<path d="M53.1045 64.2866V61.333H55.043V61.6644H53.4851V62.5948H55.0218V62.919H53.4851V63.9412H55.057V64.2654L53.1045 64.2866Z" fill="#33322B"/>
<path d="M56.0273 64.2866V61.333H57.9588V61.6644H56.3939V62.5948H57.9306V62.919H56.3939V63.9412H57.9588V64.2654L56.0273 64.2866Z" fill="#33322B"/>
<path d="M58.9395 64.2855V61.3319H59.9475C60.15 61.3179 60.3532 61.3458 60.5445 61.4136C60.7359 61.4815 60.9111 61.588 61.0595 61.7265C61.2079 61.865 61.3263 62.0325 61.4072 62.2187C61.4881 62.4049 61.5299 62.6057 61.5299 62.8087C61.5299 63.0117 61.4881 63.2125 61.4072 63.3987C61.3263 63.5848 61.2079 63.7524 61.0595 63.8909C60.9111 64.0294 60.7359 64.1359 60.5445 64.2038C60.3532 64.2717 60.15 64.2995 59.9475 64.2855H58.9395ZM61.0542 62.8123C61.0644 62.6599 61.0421 62.5071 60.9889 62.364C60.9357 62.221 60.8527 62.0908 60.7454 61.9822C60.6381 61.8736 60.509 61.789 60.3666 61.734C60.2242 61.679 60.0717 61.6549 59.9193 61.6633H59.2778V63.9612H59.9193C60.0737 63.9725 60.2288 63.9508 60.3741 63.8972C60.5194 63.8437 60.6516 63.7597 60.7617 63.6509C60.8719 63.542 60.9575 63.4109 61.0128 63.2662C61.0681 63.1216 61.0919 62.9668 61.0824 62.8123H61.0542Z" fill="#33322B"/>
<path d="M62.2383 64.0892C62.2383 64.025 62.2633 63.9633 62.3081 63.9172C62.3528 63.8711 62.4138 63.8444 62.478 63.8425C62.5434 63.8425 62.6062 63.8685 62.6524 63.9148C62.6987 63.9611 62.7247 64.0238 62.7247 64.0892C62.7228 64.1534 62.696 64.2144 62.65 64.2592C62.6039 64.3039 62.5422 64.3289 62.478 64.3289C62.4465 64.3289 62.4153 64.3227 62.3862 64.3106C62.3572 64.2986 62.3308 64.281 62.3085 64.2587C62.2862 64.2365 62.2686 64.21 62.2565 64.181C62.2445 64.1519 62.2383 64.1207 62.2383 64.0892Z" fill="#33322B"/>
</svg>
