<svg viewBox="0 0 63 29" fill="none" xmlns="http://www.w3.org/2000/svg">
<path d="M21.49 4.74647C20.0465 4.74301 18.6419 5.2139 17.4923 6.08678V2.26476C17.47 1.9299 17.3212 1.61601 17.0761 1.38672C16.8311 1.15744 16.508 1.02991 16.1724 1.02991C15.8368 1.02991 15.5138 1.15744 15.2687 1.38672C15.0236 1.61601 14.8749 1.9299 14.8525 2.26476V16.6984C14.8749 17.0333 15.0236 17.3472 15.2687 17.5765C15.5138 17.8058 15.8368 17.9334 16.1724 17.9334C16.508 17.9334 16.8311 17.8058 17.0761 17.5765C17.3212 17.3472 17.47 17.0333 17.4923 16.6984V11.378C17.4923 10.3178 17.9135 9.30097 18.6632 8.55126C19.4129 7.80156 20.4297 7.38036 21.49 7.38036C22.5502 7.38036 23.567 7.80156 24.3167 8.55126C25.0664 9.30097 25.4876 10.3178 25.4876 11.378V16.6984C25.4876 17.0477 25.6264 17.3827 25.8734 17.6297C26.1203 17.8767 26.4553 18.0154 26.8045 18.0154C27.1538 18.0154 27.4888 17.8767 27.7358 17.6297C27.9828 17.3827 28.1215 17.0477 28.1215 16.6984V11.378C28.1199 9.61967 27.4208 7.93384 26.1775 6.69052C24.9342 5.4472 23.2483 4.74802 21.49 4.74647Z" fill="#33322B"/>
<path d="M7.37485 18.0152C4.89899 18.0152 1.64467 16.6924 0.497459 14.2341C0.413255 14.0757 0.362158 13.9018 0.347309 13.7229C0.33246 13.5441 0.354162 13.3641 0.411077 13.1939C0.467992 13.0237 0.558923 12.8669 0.678368 12.733C0.797812 12.5991 0.943253 12.4908 1.10585 12.4149C1.26844 12.339 1.44481 12.2969 1.62417 12.2913C1.80353 12.2857 1.98215 12.3166 2.14918 12.3822C2.31621 12.4478 2.46814 12.5467 2.59574 12.6729C2.72333 12.7991 2.8239 12.9499 2.89136 13.1162C3.51178 14.4507 5.75354 15.3755 7.37485 15.3755C8.29378 15.3755 10.436 15.1589 10.436 13.122C10.436 11.7583 9.48195 11.3134 6.59638 10.6579C4.25514 10.1311 1.04762 9.40535 1.04762 6.06323C1.04762 2.86159 3.9332 0.947635 6.72513 0.947635C7.73504 0.939493 8.73648 1.13243 9.67104 1.5153C10.6056 1.89817 11.4546 2.46327 12.1685 3.17763C12.3771 3.4424 12.4768 3.77682 12.4472 4.11261C12.4176 4.4484 12.2608 4.76022 12.0091 4.98436C11.7573 5.20849 11.4294 5.32804 11.0925 5.31859C10.7555 5.30915 10.4348 5.17144 10.196 4.93356C9.73486 4.49093 9.1909 4.14371 8.5953 3.91169C7.9997 3.67968 7.36417 3.56747 6.72513 3.58153C5.55451 3.58153 3.68737 4.25463 3.68737 6.06323C3.68737 7.11679 4.55948 7.49137 7.19923 8.08838C8.49136 8.31065 9.74247 8.72701 10.9101 9.32338C11.5913 9.6909 12.1564 10.2411 12.5421 10.9122C12.9277 11.5832 13.1186 12.3485 13.0933 13.122C13.064 16.0486 10.7872 18.0152 7.37485 18.0152Z" fill="#33322B"/>
<path d="M57.3477 18.0141C57.0847 18.0144 56.8277 17.9359 56.6096 17.7889C56.3916 17.6418 56.2226 17.4328 56.1244 17.1888L53.075 9.5798L50.0255 17.1888C49.9267 17.4324 49.7575 17.6409 49.5396 17.7879C49.3218 17.9348 49.065 18.0136 48.8022 18.0141C48.5392 18.0144 48.2821 17.9359 48.0641 17.7889C47.8461 17.6418 47.6771 17.4328 47.5789 17.1888L43.3003 6.55373C43.19 6.23285 43.2073 5.88188 43.3485 5.57338C43.4898 5.26488 43.7441 5.02245 44.059 4.89618C44.3739 4.76992 44.7254 4.76948 45.0406 4.89497C45.3558 5.02046 45.6107 5.2623 45.7527 5.57045L48.8022 13.1795L51.8517 5.57045C51.9493 5.32573 52.118 5.11588 52.336 4.96806C52.5541 4.82024 52.8115 4.74121 53.075 4.74121C53.3384 4.74121 53.5958 4.82024 53.8139 4.96806C54.032 5.11588 54.2007 5.32573 54.2983 5.57045L57.3477 13.1795L60.3972 5.57045C60.5276 5.24601 60.7815 4.98659 61.1031 4.84938C61.4248 4.71218 61.7877 4.70841 62.1121 4.83881C62.4366 4.96921 62.6959 5.22311 62.8331 5.54473C62.9703 5.86634 62.9742 6.22929 62.8438 6.55373L58.571 17.1888C58.4728 17.4328 58.3038 17.6418 58.0858 17.7889C57.8678 17.9359 57.6107 18.0144 57.3477 18.0141Z" fill="#33322B"/>
<path d="M36.3718 18.0158C34.6129 18.0127 32.9271 17.3123 31.6839 16.068C30.4408 14.8238 29.7418 13.1373 29.7402 11.3784C29.7402 11.0291 29.879 10.6942 30.126 10.4472C30.3729 10.2002 30.7079 10.0615 31.0572 10.0615C31.4065 10.0615 31.7414 10.2002 31.9884 10.4472C32.2354 10.6942 32.3741 11.0291 32.3741 11.3784C32.3745 12.0318 32.535 12.6752 32.8416 13.2522C33.1482 13.8292 33.5915 14.3223 34.1329 14.6883C34.6742 15.0542 35.297 15.2819 35.9467 15.3514C36.5964 15.4209 37.2533 15.33 37.8598 15.0868C38.4662 14.8436 39.0038 14.4554 39.4255 13.9563C39.8472 13.4572 40.1401 12.8623 40.2786 12.2237C40.4171 11.5852 40.397 10.9224 40.22 10.2934C40.043 9.66441 39.7145 9.08838 39.2632 8.61577C39.1381 8.49201 39.039 8.34441 38.9719 8.18172C38.9047 8.01903 38.8709 7.84457 38.8723 7.66857C38.8738 7.49258 38.9105 7.31864 38.9803 7.15707C39.0501 6.9955 39.1516 6.84956 39.2787 6.72788C39.4059 6.60619 39.5562 6.51121 39.7206 6.44858C39.8851 6.38596 40.0605 6.35697 40.2364 6.36327C40.4123 6.36957 40.5851 6.41107 40.7447 6.48531C40.9043 6.55954 41.0474 6.665 41.1655 6.79547C42.0652 7.73409 42.6691 8.91647 42.9021 10.1956C43.1352 11.4747 42.9871 12.794 42.4763 13.9897C41.9655 15.1853 41.1145 16.2044 40.0292 16.9202C38.9438 17.636 37.672 18.017 36.3718 18.0158Z" fill="#33322B"/>
<path d="M33.9367 10.6978C33.5875 10.6975 33.2528 10.5586 33.006 10.3116L31.4725 8.77807C31.3503 8.65547 31.2535 8.50998 31.1875 8.34994C31.1215 8.18991 31.0876 8.01841 31.0879 7.8453C31.0882 7.67219 31.1225 7.50084 31.189 7.34101C31.2555 7.18119 31.3529 7.03603 31.4755 6.91382C31.5981 6.79161 31.7435 6.69473 31.9036 6.62874C32.0636 6.56275 32.2351 6.52894 32.4082 6.52921C32.5813 6.52948 32.7526 6.56381 32.9124 6.63031C33.0723 6.69681 33.2175 6.79415 33.3397 6.91675L33.925 7.50206L36.2662 5.16082C36.5159 4.9282 36.8461 4.80156 37.1872 4.80758C37.5284 4.8136 37.854 4.95183 38.0952 5.19312C38.3365 5.4344 38.4747 5.75991 38.4807 6.10109C38.4868 6.44227 38.3601 6.77249 38.1275 7.02214L34.8732 10.2823C34.7526 10.4103 34.6076 10.5131 34.4468 10.5844C34.286 10.6558 34.1126 10.6943 33.9367 10.6978Z" fill="#33322B"/>
<path d="M29.7402 28.4041V21.0059H30.0387L33.2931 25.7937L36.5181 21.0059H36.7991V28.4041H36.2138V22.5159L33.3926 26.7009H33.2404L30.4075 22.5277V28.3807L29.7402 28.4041Z" fill="#33322B"/>
<path d="M42.9833 23.0487H43.5687V28.4042H42.9833V27.339C42.763 27.7006 42.4523 27.9988 42.0818 28.204C41.7114 28.4092 41.2939 28.5146 40.8704 28.5096C40.5141 28.518 40.1601 28.4503 39.8321 28.311C39.5041 28.1717 39.2095 27.9641 38.9681 27.7019C38.4599 27.152 38.1868 26.4252 38.2072 25.6767C38.1859 24.9442 38.4552 24.233 38.9564 23.6984C39.2006 23.4369 39.4974 23.2303 39.8273 23.092C40.1573 22.9538 40.5128 22.8872 40.8704 22.8965C41.2941 22.8904 41.712 22.9951 42.0827 23.2005C42.4534 23.4059 42.7639 23.7046 42.9833 24.0671V23.0487ZM42.4332 27.3214C42.8273 26.8751 43.0366 26.2953 43.0185 25.7001C43.0351 25.1174 42.8253 24.551 42.4332 24.1198C42.2392 23.9077 42.0018 23.7399 41.7372 23.6278C41.4726 23.5157 41.1869 23.4619 40.8996 23.4701C40.6157 23.4614 40.3334 23.5151 40.0725 23.6273C39.8116 23.7396 39.5785 23.9077 39.3895 24.1198C39.015 24.5714 38.81 25.1397 38.81 25.7264C38.81 26.3132 39.015 26.8815 39.3895 27.3331C39.5785 27.5452 39.8116 27.7133 40.0725 27.8255C40.3334 27.9378 40.6157 27.9914 40.8996 27.9828C41.1867 27.9936 41.4727 27.9416 41.7376 27.8304C42.0024 27.7192 42.2398 27.5515 42.4332 27.339V27.3214Z" fill="#33322B"/>
<path d="M45.2012 28.4024V23.0469H45.7865V23.9073C45.904 23.5953 46.1188 23.3294 46.3993 23.1491C46.6797 22.9688 47.0108 22.8838 47.3434 22.9064C47.5666 22.9083 47.7888 22.9378 48.0048 22.9942L47.9346 23.5795C47.7451 23.5206 47.5477 23.491 47.3492 23.4917C46.3776 23.4917 45.8099 24.2526 45.8099 25.3588V28.4141L45.2012 28.4024Z" fill="#33322B"/>
<path d="M52.3976 28.4044L50.0973 25.6125L49.4652 26.1978V28.4278H48.8799V20.8715H49.4652V25.4662L52.1401 23.0722H52.9478L50.5246 25.2321L53.1878 28.4044H52.3976Z" fill="#33322B"/>
<path d="M58.442 25.964H53.9351C53.9392 26.2407 53.9997 26.5137 54.1128 26.7664C54.226 27.019 54.3894 27.2459 54.5932 27.4332C54.7969 27.6205 55.0367 27.7644 55.298 27.856C55.5592 27.9475 55.8363 27.9848 56.1124 27.9657C56.8178 27.9649 57.5047 27.7394 58.0732 27.3219L58.3542 27.7843C57.7013 28.2656 56.9119 28.526 56.1008 28.5276C55.7262 28.5512 55.351 28.4943 55.0003 28.3607C54.6496 28.2272 54.3316 28.0201 54.0676 27.7534C53.8037 27.4866 53.5999 27.1664 53.47 26.8144C53.3402 26.4623 53.2872 26.0865 53.3147 25.7123C53.2868 24.9749 53.5495 24.2562 54.0463 23.7106C54.2923 23.4474 54.5923 23.2406 54.9256 23.1042C55.259 22.9678 55.618 22.9051 55.9778 22.9203C56.3024 22.9119 56.6253 22.9693 56.927 23.089C57.2288 23.2087 57.5032 23.3883 57.7338 23.6169C57.974 23.8638 58.1608 24.1575 58.2827 24.4797C58.4045 24.8019 58.4587 25.1458 58.442 25.4899C58.4713 25.5835 58.4654 25.724 58.442 25.964ZM53.9351 25.4138H57.8508C57.87 25.1597 57.8352 24.9044 57.7488 24.6647C57.6624 24.425 57.5263 24.2062 57.3495 24.0227C57.1727 23.8392 56.9591 23.6952 56.7227 23.6C56.4863 23.5049 56.2325 23.4608 55.9778 23.4706C55.4507 23.4626 54.9415 23.6616 54.5596 24.0249C54.1776 24.3883 53.9534 24.8869 53.9351 25.4138Z" fill="#33322B"/>
<path d="M62.9372 28.0657C62.5318 28.3816 62.0285 28.5453 61.5149 28.5282C60.4438 28.5282 59.9053 27.8257 59.9053 26.6551V23.5822H58.957V23.0497H59.9169V21.1591H60.5023V23.0497H62.703V23.5822H60.5023V26.6727C60.5023 27.5448 60.8534 27.9779 61.5617 27.9779C61.9671 27.9792 62.3619 27.8476 62.6855 27.6033L62.9372 28.0657Z" fill="#33322B"/>
</svg>
