<svg viewBox="0 0 45 38" fill="none" xmlns="http://www.w3.org/2000/svg">
<path fill-rule="evenodd" clip-rule="evenodd" d="M26.6507 29.3644C24.502 29.3644 22.7539 31.1037 22.7539 33.2541L22.7574 33.2489C22.7574 35.3975 24.4967 37.1368 26.6507 37.1368C28.8046 37.1368 30.5475 35.394 30.5475 33.2489C30.5475 31.1037 28.8046 29.3644 26.6507 29.3644ZM26.6524 35.712C25.4507 35.712 24.4792 34.6087 24.4792 33.2489C24.4792 31.889 25.4542 30.7857 26.6542 30.7857C27.8559 30.7857 28.8292 31.889 28.8292 33.2489C28.8275 34.6104 27.8524 35.712 26.6524 35.712Z" fill="#33322B"/>
<path fill-rule="evenodd" clip-rule="evenodd" d="M11.3169 29.3644C9.16646 29.3644 7.42188 31.1037 7.42188 33.2541V33.2489C7.42188 35.3975 9.16646 37.1368 11.3186 37.1368C13.4708 37.1368 15.2137 35.394 15.2137 33.2489C15.2137 31.1037 13.4673 29.3644 11.3169 29.3644ZM11.3169 35.712C10.1134 35.712 9.14011 34.6087 9.14011 33.2489C9.14011 31.889 10.1134 30.7857 11.3151 30.7857C12.5168 30.7857 13.4902 31.889 13.4902 33.2489C13.4902 34.6104 12.5168 35.712 11.3169 35.712Z" fill="#33322B"/>
<path fill-rule="evenodd" clip-rule="evenodd" d="M4.71238 30.9828V36.965H3.07145V30.9845H0.782227V29.6317H7.0016V30.9845H4.71238V30.9828Z" fill="#33322B"/>
<path fill-rule="evenodd" clip-rule="evenodd" d="M34.9653 30.9828V36.965H33.3244V30.9845H31.0352V29.6317H37.2563V30.9845H34.9653V30.9828Z" fill="#33322B"/>
<path fill-rule="evenodd" clip-rule="evenodd" d="M41.7659 29.6295H39.7226L36.692 36.961L36.6885 36.9645H38.6052L39.2342 35.3166L39.236 35.3148H42.2438L42.2455 35.3166L42.8745 36.9645H44.7912L41.7659 29.6295ZM39.7138 34.0744L40.7381 31.3899H40.7522L41.7782 34.0744H39.7138Z" fill="#33322B"/>
<path fill-rule="evenodd" clip-rule="evenodd" d="M18.1585 36.9614V34.1785L15.293 29.6317H17.2097L18.9877 32.7133L20.7657 29.6317H22.6824L19.817 34.1803V36.9632H18.1514L18.1585 36.9614Z" fill="#33322B"/>
<path fill-rule="evenodd" clip-rule="evenodd" d="M3.2373 13.6549C3.2373 6.63262 11.9919 0.940308 22.7897 0.940308C33.5875 0.940308 42.3421 6.63262 42.3421 13.6549C42.3421 20.6737 33.5875 26.3677 22.7897 26.3677C11.9919 26.3677 3.2373 20.6737 3.2373 13.6531V13.6549ZM27.5702 13.5407C27.5737 13.7287 27.5755 13.9202 27.5755 14.1117C27.5755 19.3648 26.0628 23.7833 24.0072 25.0641L24.0441 25.0518C32.7934 24.5985 39.698 19.4561 39.698 13.1823C39.698 11.0494 38.9003 9.04834 37.5019 7.31781L37.4843 7.28091C37.3754 10.178 33.259 12.6306 27.5579 13.5231L27.5702 13.5407ZM18.0092 13.5407C12.3116 12.6464 8.19875 10.1956 8.08983 7.29848L8.07577 7.33186C6.67026 9.06415 5.87439 11.0635 5.87439 13.1963C5.87439 19.4702 12.7754 24.6108 21.5282 25.0659L21.5651 25.0729C19.5149 23.7904 18.0039 19.3683 18.0039 14.1134C18.0039 13.9202 18.0039 13.7269 18.0092 13.5337V13.5407ZM19.8803 13.7603C19.9523 17.8468 21.2313 21.1059 22.8002 21.1059C24.3691 21.1059 25.6481 17.8451 25.7167 13.7603H25.7219L25.7149 13.755V13.7568C24.7715 13.8411 23.7911 13.8903 22.7915 13.8903C21.7918 13.8903 20.8167 13.8429 19.8733 13.7568V13.748H19.868H19.8733L19.8803 13.7603ZM20.0894 10.547C20.9573 10.6225 21.8656 10.6612 22.7985 10.6612C23.7296 10.6612 24.6379 10.6243 25.5076 10.547C25.0719 7.72365 24.023 5.73309 22.7985 5.73309C21.5704 5.73309 20.5216 7.7254 20.0894 10.5382V10.547ZM22.8002 2.77274C24.8804 2.77274 26.6566 5.92459 27.3119 10.3309L27.3154 10.3186C31.3686 9.69136 34.2112 8.23314 34.2112 6.54126C34.2112 4.27136 29.0987 2.4319 22.795 2.4319C16.4913 2.4319 11.3787 4.27488 11.3787 6.54478C11.3787 8.2349 14.2143 9.68784 18.2692 10.3186L18.2727 10.3238C18.9263 5.92108 20.7043 2.76571 22.7844 2.76571L22.8002 2.77274Z" fill="#33322B"/>
</svg>
