<svg viewBox="0 0 97 18" fill="none" xmlns="http://www.w3.org/2000/svg">
<path d="M28.8585 0.881104H29.0287C29.1038 0.881104 29.1788 0.921122 29.2589 0.926126C29.3805 0.918334 29.5026 0.918334 29.6242 0.926126L29.7193 0.956152L29.8694 0.996196L29.9695 1.03624C30.0846 1.06627 30.2097 1.06126 30.3198 1.09629C30.4299 1.13132 30.455 1.19138 30.535 1.2214C30.6151 1.25143 30.7953 1.26143 30.9104 1.31148L31.0555 1.39154L31.2507 1.47162C31.3057 1.50666 31.3508 1.55168 31.4058 1.58171C31.4969 1.62685 31.5854 1.67697 31.671 1.73184C31.7444 1.7986 31.813 1.87051 31.8762 1.94702L32.0914 2.1422C32.1615 2.21727 32.2115 2.29736 32.2816 2.37743C32.3898 2.48699 32.4901 2.60403 32.5819 2.72772C32.6419 2.8178 32.6719 2.92289 32.7319 3.01297C32.796 3.10142 32.8645 3.18661 32.9371 3.26821C32.9591 3.30552 32.9792 3.34396 32.9972 3.38333L33.1073 3.54344C33.1573 3.64854 33.2074 3.75363 33.2625 3.85873C33.3188 3.953 33.3674 4.05177 33.4076 4.154C33.464 4.35835 33.4992 4.56798 33.5127 4.77956C33.5282 4.86221 33.5383 4.9458 33.5427 5.02978C33.5504 5.10633 33.5504 5.18345 33.5427 5.26C33.5405 5.29165 33.5405 5.3234 33.5427 5.35505V5.47518L33.5127 5.79545C33.5152 5.83544 33.5152 5.87558 33.5127 5.91558C33.5148 5.93721 33.5148 5.95898 33.5127 5.98061L33.4826 6.13077C33.4814 6.25332 33.4697 6.37553 33.4476 6.49608C33.4059 6.58704 33.3591 6.6756 33.3075 6.76133C33.3075 6.82139 33.2624 6.88642 33.2374 6.95147C33.2113 7.0102 33.1813 7.06706 33.1474 7.12164L33.0773 7.26178C33.0669 7.2849 33.0516 7.30541 33.0323 7.32183L32.9822 7.36685L32.9522 7.46194C32.9226 7.52079 32.8892 7.57764 32.8521 7.6321C32.7483 7.75776 32.6362 7.87644 32.5168 7.9874C32.4757 8.03409 32.4389 8.08435 32.4067 8.13756L32.3467 8.23762L32.0664 8.45782L31.9563 8.51787C31.8812 8.57792 31.8462 8.66301 31.7761 8.72307C31.651 8.80345 31.5206 8.87534 31.3858 8.93826C31.3122 8.99452 31.2354 9.04633 31.1556 9.09339C31.0028 9.14536 30.8452 9.18222 30.6851 9.20348L30.565 9.24352L30.49 9.27855C30.4299 9.27855 30.3699 9.27855 30.3048 9.27855C30.2263 9.29087 30.1492 9.31099 30.0746 9.33861H29.9345H29.8344L29.7543 9.37865C29.7143 9.37865 29.6642 9.37865 29.6242 9.40868C29.4665 9.48622 29.2977 9.53857 29.1238 9.56381C29.0083 9.56621 28.8933 9.54931 28.7835 9.51378C28.7106 9.47834 28.6331 9.45307 28.5532 9.4387H28.308H28.223C28.055 9.42742 27.8879 9.40569 27.7226 9.37364C27.6797 9.36 27.6379 9.34329 27.5974 9.32361C27.5341 9.29425 27.4689 9.26916 27.4023 9.24853C27.233 9.20711 27.0659 9.15701 26.9018 9.0984C26.8117 9.06337 26.7317 9.01333 26.6416 8.97329C26.4446 8.87978 26.2525 8.77622 26.066 8.66302C25.971 8.59796 25.8859 8.51789 25.7908 8.44783L25.6407 8.35274C25.4803 8.24456 25.3325 8.11866 25.2003 7.97741C25.088 7.83937 24.9828 7.6957 24.885 7.547C24.7815 7.43949 24.6846 7.32585 24.5948 7.20671C24.5618 7.15332 24.5317 7.09822 24.5047 7.04158C24.5047 6.99154 24.4396 6.9565 24.4196 6.91146C24.3995 6.86642 24.3495 6.69627 24.2995 6.59618C24.2494 6.49609 24.2394 6.50608 24.2144 6.45604C24.1894 6.40599 24.2144 6.38597 24.2144 6.35594C24.1849 6.27906 24.1598 6.20054 24.1393 6.12075C24.1393 6.05569 24.1393 5.99062 24.1393 5.92557V5.82547C24.1393 5.76041 24.1093 5.69037 24.1043 5.6203C24.0967 5.53372 24.0967 5.44664 24.1043 5.36006V5.13489C24.1043 5.04481 24.1394 4.95471 24.1544 4.86463C24.1694 4.77455 24.1543 4.80959 24.1894 4.77956V4.64443C24.1957 4.58182 24.2074 4.51987 24.2244 4.45927C24.2594 4.34416 24.3095 4.23408 24.3495 4.12398C24.3895 4.01388 24.3846 4.02887 24.3996 3.97883C24.4146 3.92878 24.4496 3.90878 24.4596 3.86875C24.4645 3.80545 24.4645 3.74187 24.4596 3.67857V3.6085C24.4596 3.56847 24.4596 3.53345 24.4596 3.49341C24.4911 3.39803 24.5279 3.30447 24.5697 3.21316C24.5819 3.15036 24.5819 3.0858 24.5697 3.02299C24.5653 2.92565 24.5916 2.82938 24.6448 2.74775C24.6716 2.70842 24.7055 2.67446 24.7449 2.64766L24.7849 2.58761L24.865 2.52255C24.9135 2.48448 24.9654 2.45096 25.0201 2.42245C25.1188 2.39558 25.2119 2.35153 25.2953 2.29233C25.3554 2.24229 25.3955 2.17725 25.4555 2.12721C25.499 2.09101 25.546 2.05916 25.5957 2.03212L25.7007 1.98206L25.8759 1.83193C25.9917 1.74165 26.1138 1.65971 26.2412 1.58672C26.2812 1.58672 26.3313 1.51164 26.3863 1.51164C26.4414 1.51164 26.5215 1.4616 26.5815 1.42657C26.6416 1.39154 26.8117 1.28143 26.9368 1.22638C26.985 1.20449 27.0353 1.18773 27.087 1.17635L27.3322 1.09629C27.4173 1.06626 27.4873 1.00121 27.5874 1.00121C27.6153 0.993776 27.6446 0.993776 27.6725 1.00121C27.7055 0.994178 27.7396 0.994178 27.7726 1.00121H27.8126H27.8726H27.9227H27.9577L28.1028 0.966171C28.1276 0.961045 28.1532 0.961045 28.1779 0.966171H28.4382C28.4842 0.973736 28.5294 0.985465 28.5733 1.00121H28.7134H28.7584H28.7985C28.8331 0.993611 28.869 0.993611 28.9036 1.00121L28.8585 0.881104ZM29.7643 2.16224C29.7093 2.16224 29.5642 2.22728 29.5692 2.29734C29.5692 2.29734 29.5742 2.3674 29.5692 2.29734L29.7343 2.50254C29.7793 2.56259 29.8094 2.63764 29.8494 2.7027C29.8895 2.76776 29.9095 2.78277 29.9395 2.82781L30.0896 3.11808C30.1397 3.20315 30.2097 3.27822 30.2598 3.36329C30.3098 3.44837 30.3999 3.5935 30.465 3.7086C30.4961 3.73773 30.5245 3.76955 30.55 3.80369C30.6151 3.89877 30.6551 4.02889 30.7602 4.09395C30.7917 4.11811 30.8306 4.13051 30.8703 4.12899C30.9123 4.12413 30.9513 4.10462 30.9804 4.07391L31.0555 4.0339C31.1556 3.95883 31.3207 3.79367 31.4458 3.79367H31.4858C31.681 3.72861 31.8913 4.04891 31.8512 4.21405C31.8319 4.25691 31.8027 4.29461 31.7661 4.32414C31.6427 4.42802 31.5122 4.52333 31.3758 4.60939C31.3407 4.63442 31.2857 4.66445 31.2657 4.70949C31.258 4.73392 31.258 4.76014 31.2657 4.78457C31.2861 4.84401 31.313 4.90104 31.3458 4.9547L31.5059 5.26498C31.5409 5.31002 31.5709 5.35507 31.611 5.40011L31.7611 5.63533L31.9063 5.83048C32.0314 6.01064 32.1114 6.22084 32.2365 6.401L32.3066 6.48105L32.3716 6.58115C32.3716 6.58115 32.4317 6.64122 32.4668 6.6262C32.5018 6.61119 32.5068 6.57615 32.5168 6.55112C32.5268 6.5261 32.5668 6.44603 32.5869 6.39599C32.6069 6.34594 32.6169 6.24086 32.6369 6.16079C32.6735 5.99571 32.7002 5.8286 32.717 5.66035C32.717 5.56026 32.717 5.46015 32.717 5.36006C32.717 5.25997 32.752 5.13487 32.752 5.01976C32.7507 4.94312 32.7319 4.86778 32.6969 4.79957C32.6918 4.74464 32.6918 4.68937 32.6969 4.63444C32.6867 4.59994 32.6733 4.56643 32.6569 4.53435C32.6219 4.44427 32.6019 4.34919 32.5618 4.25911C32.4752 4.08659 32.3783 3.91947 32.2716 3.75866L32.2415 3.67857C32.2415 3.67857 32.2415 3.63854 32.2415 3.61852L32.1865 3.56348L32.0964 3.4684L31.8812 3.19316C31.8362 3.13811 31.7762 3.09805 31.7261 3.04801C31.6921 3.0024 31.6553 2.95894 31.616 2.91789C31.5152 2.81842 31.4046 2.72956 31.2857 2.65267L31.1556 2.54756L30.515 2.33739C30.4878 2.32427 30.4625 2.30744 30.4399 2.28735L30.3499 2.2423C30.1737 2.17699 29.9873 2.14311 29.7993 2.1422L29.7643 2.16224ZM28.7434 2.1422C28.6383 2.1422 28.5082 2.1422 28.3981 2.1422L28.268 2.19725C28.176 2.2328 28.0803 2.25799 27.9827 2.27232H27.8226H27.7475L27.6825 2.32236C27.6508 2.35181 27.6155 2.37706 27.5774 2.39744C27.4847 2.43138 27.3944 2.47151 27.3071 2.51754L27.157 2.63764C27.122 2.66266 27.0769 2.66769 27.0469 2.69271L26.8868 2.8228C26.7817 2.90287 26.6716 2.97296 26.5665 3.06304C26.4614 3.15312 26.4514 3.19816 26.3913 3.25822L26.3213 3.30825C26.2685 3.34847 26.2214 3.39558 26.1811 3.44836C26.1169 3.52249 26.0631 3.60501 26.021 3.6936C25.9975 3.76074 25.9655 3.82464 25.9259 3.88377C25.8682 3.94355 25.8005 3.99267 25.7257 4.02889C25.6833 4.04384 25.643 4.06401 25.6056 4.08894C25.5105 4.17902 25.4905 4.34415 25.4154 4.44925C25.3404 4.55434 25.2103 4.63943 25.1302 4.74452C25.1072 4.78128 25.0872 4.81975 25.0702 4.85962C24.9841 5.09165 24.9286 5.3339 24.905 5.58026C24.905 5.67034 24.905 5.76044 24.87 5.85052C24.8724 5.88885 24.8724 5.92728 24.87 5.96561C24.8747 6.13419 24.8965 6.30186 24.935 6.46606C24.9618 6.58516 24.9969 6.70223 25.0401 6.81637C25.0993 6.9209 25.168 7.01972 25.2453 7.11162C25.2904 7.18669 25.3254 7.26677 25.3804 7.34184C25.4355 7.4169 25.4455 7.41191 25.4755 7.44694C25.5552 7.54515 25.6404 7.63872 25.7307 7.72719C25.8864 7.86796 26.0539 7.99517 26.2312 8.1075C26.3522 8.19045 26.4793 8.26407 26.6115 8.3277C26.7867 8.39776 26.9769 8.45782 27.157 8.51787L27.4222 8.56292C27.6602 8.61904 27.9035 8.64924 28.1479 8.653C28.196 8.64533 28.2449 8.64533 28.293 8.653H28.3581C28.4081 8.62798 28.4531 8.65299 28.4782 8.57792C28.5032 8.50285 28.5032 8.48786 28.5132 8.44783V7.8523C28.5132 7.71718 28.5132 7.58704 28.5132 7.45693C28.5184 7.39699 28.5184 7.33672 28.5132 7.27677C28.5159 7.27221 28.5173 7.26705 28.5173 7.26178C28.5173 7.25651 28.5159 7.25131 28.5132 7.24675C28.3723 7.22421 28.2288 7.22421 28.0879 7.24675H27.9877C27.9469 7.23211 27.9051 7.2204 27.8626 7.21171C27.775 7.21577 27.6879 7.22749 27.6024 7.24675C27.5323 7.24675 27.4573 7.21672 27.3772 7.24675C27.3189 7.24842 27.2613 7.26028 27.2071 7.28178C27.1455 7.31407 27.082 7.34247 27.0169 7.36685C26.9302 7.38733 26.84 7.3876 26.7532 7.36765C26.6665 7.34769 26.5855 7.30804 26.5165 7.25176C26.4615 7.20052 26.4142 7.14149 26.3763 7.07658L26.2863 6.95648C26.2587 6.8874 26.2587 6.81038 26.2863 6.74129C26.3053 6.70964 26.3289 6.68098 26.3563 6.65623C26.3963 6.60618 26.4264 6.55114 26.4714 6.50109L26.6616 6.30591C26.6966 6.23084 26.7317 6.15076 26.7717 6.07569C26.8117 6.00063 26.8367 5.99064 26.8567 5.9456C26.8767 5.90056 26.8568 5.84549 26.8968 5.79545C26.9368 5.7454 26.9819 5.65533 27.0169 5.58026L27.092 5.3951C27.1384 5.33236 27.1754 5.26326 27.2021 5.18993C27.2083 5.17662 27.2115 5.16208 27.2115 5.14738C27.2115 5.13267 27.2083 5.11814 27.2021 5.10483C27.1891 5.08181 27.17 5.06278 27.147 5.04979C27.092 5.00975 27.0169 4.99474 26.9569 4.95971C26.8225 4.87799 26.712 4.76236 26.6366 4.62442C26.6294 4.59652 26.6294 4.56726 26.6366 4.53936C26.6366 4.49932 26.6766 4.45926 26.7016 4.42423C26.7583 4.35912 26.8364 4.3165 26.9218 4.30413H26.9619C27.162 4.23907 27.4623 4.67445 27.5624 4.57436C27.6003 4.5168 27.6306 4.45456 27.6525 4.3892L27.7926 4.13897L27.8827 3.95882L28.0979 3.6035C28.1197 3.57393 28.1431 3.54554 28.1679 3.51843C28.1679 3.47839 28.1979 3.41835 28.233 3.37832C28.268 3.33828 28.3531 3.22817 28.3981 3.14309L28.4382 3.05302C28.4497 3.03188 28.4631 3.01179 28.4782 2.99297C28.4782 2.95293 28.5183 2.9129 28.5383 2.87286L28.6233 2.63266C28.6491 2.56249 28.6792 2.49395 28.7134 2.42746C28.7485 2.3574 28.8385 2.30735 28.8735 2.23729C28.9086 2.16723 28.8735 2.18225 28.8135 2.18225L28.7434 2.1422ZM28.9687 3.47838C28.8851 3.51142 28.8112 3.56476 28.7534 3.63355L28.6784 3.69858L28.6183 3.78869L28.5333 3.88377L28.4682 3.98384L28.3931 4.05391C28.3819 4.08646 28.3685 4.11823 28.3531 4.14899C28.293 4.24908 28.248 4.34916 28.1879 4.45426C28.1279 4.55935 28.1379 4.5093 28.1229 4.54433L28.0678 4.69947C28.0678 4.74451 27.9777 4.8396 27.9927 4.89465C28.0078 4.9497 28.1479 4.98976 28.1929 5.00977C28.4334 5.14168 28.6911 5.23935 28.9586 5.30001C28.9986 5.30322 29.0388 5.30322 29.0787 5.30001H29.1288H29.1738H29.2139C29.2489 5.30001 29.2989 5.25497 29.2989 5.20493C29.2989 5.15488 29.1588 5.20493 29.0837 5.1749C29.0131 5.17544 28.9431 5.161 28.8784 5.13253C28.8137 5.10407 28.7558 5.06225 28.7084 5.00977C28.6805 4.98786 28.6538 4.96446 28.6283 4.93971L28.5983 4.86964C28.5615 4.81241 28.5368 4.74829 28.5256 4.68117C28.5144 4.61406 28.517 4.54534 28.5333 4.47927C28.5333 4.42422 28.6033 4.3842 28.6283 4.32915C28.6533 4.2741 28.6283 4.21905 28.6884 4.17401C28.7622 4.0984 28.8508 4.03879 28.9486 3.99887L29.0387 3.97385C29.0633 3.95658 29.0902 3.94307 29.1188 3.93381C29.1964 3.9183 29.2763 3.9183 29.3539 3.93381C29.4041 3.95863 29.4584 3.97389 29.5141 3.97883C29.4017 3.74748 29.2046 3.56827 28.9636 3.47838H28.9687ZM29.8144 4.40423C29.8069 4.48078 29.8069 4.55789 29.8144 4.63444C29.8169 4.6594 29.8169 4.68453 29.8144 4.70949C29.8144 4.77955 29.7693 4.84961 29.7493 4.92468C29.7293 4.99974 29.6842 4.98474 29.6742 5.02978C29.6642 5.07482 29.6743 5.0748 29.7193 5.0748C29.8294 5.00975 30.1246 4.89965 30.0546 4.7295C30.0546 4.66444 29.9745 4.62943 29.9395 4.56938C29.9045 4.50933 29.8794 4.41924 29.7993 4.40423H29.8144ZM30.49 5.35007C30.3806 5.40224 30.2752 5.46245 30.1747 5.53023C29.9755 5.62193 29.8032 5.76323 29.6742 5.9406C29.63 6.04892 29.6047 6.16401 29.5992 6.28089C29.5992 6.32093 29.5692 6.45604 29.5992 6.48606C29.6473 6.494 29.6963 6.494 29.7443 6.48606H30.0896C30.1847 6.48606 30.2698 6.51109 30.3649 6.5211H30.8103H30.9754C31.032 6.50065 31.0908 6.48719 31.1506 6.48105H31.1806C31.2156 6.45603 31.2757 6.43102 31.2707 6.37097C31.2657 6.31092 31.2257 6.29091 31.2106 6.26089C31.1343 6.12926 31.0454 6.00522 30.9454 5.89053L30.7853 5.65033L30.6801 5.52522C30.6801 5.52522 30.6802 5.48017 30.6401 5.45515C30.6148 5.40715 30.5846 5.3619 30.55 5.32005C30.55 5.32005 30.51 5.32005 30.475 5.29002L30.49 5.35007ZM27.7075 5.29002C27.6878 5.28534 27.6672 5.28534 27.6475 5.29002C27.6202 5.31752 27.5982 5.34974 27.5824 5.38511L27.4823 5.54522L27.4222 5.70537C27.4222 5.7404 27.3772 5.77044 27.3572 5.81047C27.3372 5.85051 27.3122 5.92058 27.2822 5.97563C27.2521 6.03068 27.157 6.16578 27.107 6.26587C27.0885 6.29696 27.075 6.33073 27.0669 6.36596C27.0669 6.45604 27.0669 6.49608 27.172 6.49608H27.5624C27.6606 6.48638 27.7594 6.48638 27.8576 6.49608H27.9027H27.9678C28.0178 6.49608 28.1279 6.49608 28.1929 6.49608H28.4632L28.5032 6.47107C28.5382 6.43103 28.5032 6.28591 28.5032 6.22585C28.5032 6.1658 28.5032 6.02567 28.5032 5.93559C28.516 5.86611 28.516 5.79489 28.5032 5.72541C28.4772 5.68368 28.4411 5.64924 28.3981 5.62531C28.3344 5.57924 28.2655 5.54063 28.1929 5.51022L27.9577 5.42512C27.8802 5.37631 27.7959 5.33922 27.7075 5.31504V5.29002ZM30.6501 7.17668C30.5818 7.18186 30.5132 7.18186 30.4449 7.17668C30.2598 7.17668 30.0596 7.17668 29.8694 7.17668C29.8078 7.17171 29.7459 7.17171 29.6843 7.17668C29.6647 7.18364 29.6474 7.19574 29.6342 7.21171C29.6079 7.2393 29.5905 7.27418 29.5842 7.31181C29.5715 7.43325 29.5715 7.55568 29.5842 7.67712C29.5792 7.77381 29.5792 7.8707 29.5842 7.96739C29.5842 8.12253 29.5842 8.28266 29.5842 8.42779C29.5739 8.5096 29.5915 8.59251 29.6342 8.66302C29.6893 8.72808 29.9045 8.71806 29.9995 8.71806H30.0696H30.1096L30.2397 8.67801C30.3201 8.65152 30.3988 8.61976 30.475 8.58293L30.8153 8.40779L30.9604 8.33271L31.0455 8.24764C31.0889 8.20702 31.1358 8.1702 31.1856 8.13756C31.3396 8.05488 31.4854 7.95767 31.621 7.84729C31.6806 7.77158 31.7342 7.69124 31.7812 7.60706C31.8389 7.5338 31.883 7.45074 31.9113 7.36184C31.9091 7.35118 31.9036 7.34151 31.8955 7.33429C31.8873 7.32707 31.877 7.3227 31.8662 7.32183C31.5235 7.26 31.1777 7.21656 30.8303 7.19171C30.7702 7.19171 30.7352 7.14665 30.6701 7.14665" fill="#33322B"/>
<path d="M26.9199 11.97C27.3653 11.3344 28.7065 10.6488 30.0227 10.6488C31.3389 10.6488 32.7702 11.3895 33.3407 10.9941C32.8289 11.3475 32.2154 11.5233 31.5941 11.4946C30.4281 11.4946 29.9877 10.9291 29.1769 10.9291C28.7786 10.9662 28.3931 11.0898 28.0474 11.2912C27.7017 11.4926 27.404 11.7669 27.1752 12.0951L26.9199 11.97Z" fill="#33322B"/>
<path d="M31.0859 10.5541C31.3351 10.3999 31.5388 10.1823 31.6764 9.92358C31.9919 9.35356 32.4212 8.85447 32.9376 8.45728C32.9376 8.45728 32.3371 10.2839 31.7215 10.369C31.7215 10.369 31.6264 10.424 31.8015 10.399C31.9767 10.374 32.7624 10.0887 33.0427 10.0437C33.4458 9.99578 33.8353 9.8682 34.1887 9.66837C34.3438 9.51824 34.4489 9.53825 34.4489 9.53825C34.2163 9.89677 33.9026 10.1955 33.5331 10.4102C33.1636 10.625 32.7487 10.7497 32.322 10.7743C31.9047 10.7343 31.4914 10.6606 31.0859 10.5541Z" fill="#33322B"/>
<path d="M32.7051 9.92236C32.8082 9.74527 32.8682 9.54642 32.8802 9.34185C33.0022 8.56969 33.3153 7.84029 33.7911 7.21997C33.8381 8.04872 33.6112 8.86993 33.1455 9.55704C33.1455 9.55704 33.0954 9.68716 33.1955 9.59207C33.6653 9.09157 34.1967 8.65269 34.7769 8.28592C34.7769 8.28592 35.3074 7.86555 35.3324 7.72543C35.1921 8.32706 34.8599 8.86672 34.386 9.26302C33.912 9.65931 33.3221 9.89073 32.7051 9.92236Z" fill="#33322B"/>
<path d="M33.9885 8.54736C34.0206 8.406 34.0391 8.26188 34.0436 8.11698C34.0436 7.92181 33.9585 7.2462 33.9585 6.95094C33.9394 6.5192 34.0326 6.0899 34.2287 5.70483C34.2253 5.87469 34.2506 6.04391 34.3038 6.20528C34.3901 6.47333 34.4456 6.75038 34.4689 7.03103C34.467 7.32147 34.4145 7.60936 34.3138 7.88179C34.4004 7.81309 34.4705 7.72588 34.519 7.62656C34.727 7.27869 34.9831 6.96195 35.2797 6.68572C35.509 6.48736 35.6816 6.23182 35.7801 5.94507C35.812 6.44042 35.6645 6.93068 35.3647 7.32627C34.8643 8.04191 34.6441 7.9168 34.3638 8.20706C34.3638 8.20706 34.0435 8.5824 34.0085 8.56239" fill="#33322B"/>
<path d="M34.7864 6.93016C34.7811 6.74429 34.7473 6.56035 34.6863 6.38469C34.3481 5.7835 34.1949 5.09584 34.2459 4.40793C34.2459 4.40793 34.321 4.33786 34.4662 4.74322C34.6113 5.14858 34.8164 5.24365 34.8815 5.66903C34.9163 5.8558 34.938 6.04475 34.9466 6.23454C34.9466 6.23454 34.9966 6.29459 34.9966 6.23454C35.0289 5.85948 35.1237 5.49245 35.2769 5.14858C35.5071 4.64813 35.8174 4.18772 35.7773 3.85742C35.7773 3.85742 35.9124 3.85743 35.8924 4.39791C35.8381 5.3402 35.4412 6.23013 34.7764 6.90014" fill="#33322B"/>
<path d="M35.0351 5.29305C34.9611 5.11605 34.8671 4.94813 34.7548 4.79261C34.3206 4.26671 33.9818 3.66883 33.7539 3.02605C33.7539 3.02605 33.824 2.98602 33.8991 3.12114C34.0621 3.32058 34.2393 3.5079 34.4295 3.68163C34.6937 3.92672 34.8696 4.25215 34.9299 4.60744C34.9299 4.60744 34.97 4.6525 34.8949 3.90684C34.8199 3.16118 35.1452 2.67073 34.8949 2.14526C34.8949 2.14526 35.2703 2.20531 35.4705 3.73667C35.4436 4.15291 35.3436 4.56119 35.1752 4.94276C35.1752 4.94276 35.0751 5.28807 35.0301 5.28807" fill="#33322B"/>
<path d="M34.7622 3.61879C34.5974 3.45406 34.4163 3.3065 34.2217 3.1784C33.7179 2.82237 33.327 2.32905 33.0957 1.75715C33.0957 1.75715 33.1457 1.69709 33.3809 1.99736C33.6161 2.29762 33.7613 2.12245 34.3067 2.79806C34.3067 2.79806 34.3868 2.94319 34.4268 2.93319C34.4669 2.92318 34.4268 2.77304 34.4268 2.77304C34.3805 2.58654 34.3438 2.39779 34.3168 2.20753C34.2504 1.84896 34.1464 1.49839 34.0065 1.16162C34.261 1.33753 34.4703 1.57112 34.6173 1.84335C34.7642 2.11558 34.8448 2.4187 34.8523 2.72799C34.8379 3.02629 34.8078 3.32365 34.7622 3.61879Z" fill="#33322B"/>
<path d="M34.1131 2.3778C34.1131 2.3778 34.1582 1.37691 32.792 0.876465C32.9961 1.31368 33.2775 1.71039 33.6227 2.04749C33.7998 2.15073 33.9673 2.26965 34.1231 2.40282" fill="#33322B"/>
<path d="M30.6042 11.97C30.1588 11.3344 28.8226 10.6488 27.5014 10.6488C26.1802 10.6488 24.754 11.3895 24.1885 10.9941C24.6979 11.3485 25.3102 11.5244 25.93 11.4946C27.0961 11.4946 27.5365 10.9291 28.3472 10.9291C28.7452 10.9676 29.1302 11.0917 29.4757 11.293C29.8212 11.4942 30.1191 11.7679 30.349 12.0951L30.6042 11.97Z" fill="#33322B"/>
<path d="M26.4421 10.5541C26.1929 10.3999 25.9891 10.1823 25.8515 9.92358C25.5361 9.35356 25.1069 8.85447 24.5905 8.45728C24.5905 8.45728 25.191 10.2839 25.8065 10.369C25.8065 10.369 25.9016 10.424 25.7314 10.399C25.5613 10.374 24.7656 10.0887 24.4853 10.0437C24.0826 9.99412 23.6934 9.86664 23.3393 9.66837C23.1842 9.51824 23.0791 9.53825 23.0791 9.53825C23.3117 9.89677 23.6255 10.1955 23.995 10.4102C24.3645 10.625 24.7793 10.7497 25.206 10.7743C25.6233 10.7347 26.0367 10.661 26.4421 10.5541Z" fill="#33322B"/>
<path d="M24.8178 9.92236C24.715 9.74544 24.6566 9.54626 24.6476 9.34185C24.5207 8.57023 24.2062 7.84159 23.7318 7.21997C23.6848 8.04872 23.9116 8.86993 24.3774 9.55704C24.3774 9.55704 24.4274 9.68716 24.3273 9.59207C23.8599 9.09103 23.3301 8.65206 22.7509 8.28592C22.7509 8.28592 22.2205 7.86555 22.1904 7.72543C22.3323 8.3263 22.6649 8.86508 23.1385 9.26112C23.6121 9.65716 24.2013 9.88913 24.8178 9.92236Z" fill="#33322B"/>
<path d="M23.538 8.54626C23.5059 8.4049 23.4875 8.26078 23.483 8.11588C23.483 7.92071 23.5681 7.2451 23.5681 6.94984C23.5871 6.5181 23.494 6.0888 23.2978 5.70374C23.3013 5.8736 23.2759 6.04281 23.2227 6.20418C23.1388 6.47285 23.0835 6.74964 23.0576 7.02993C23.0596 7.32037 23.1121 7.60826 23.2128 7.88069C23.1262 7.81199 23.0561 7.72478 23.0076 7.62546C22.8013 7.2764 22.545 6.95942 22.2469 6.68462C22.0176 6.48626 21.8449 6.23072 21.7465 5.94397C21.7146 6.43932 21.862 6.92958 22.1618 7.32517C22.6623 8.04081 22.8824 7.9157 23.1627 8.20596C23.1627 8.20596 23.483 8.5813 23.5181 8.56129" fill="#33322B"/>
<path d="M22.7497 6.93016C22.7527 6.74448 22.7848 6.56043 22.8448 6.38469C23.183 5.7835 23.3362 5.09584 23.2852 4.40793C23.2852 4.40793 23.2101 4.33786 23.065 4.74322C22.9199 5.14858 22.7197 5.24365 22.6497 5.66903C22.6149 5.8558 22.5931 6.04475 22.5846 6.23454C22.5846 6.23454 22.5345 6.29459 22.5345 6.23454C22.5049 5.85902 22.4101 5.49154 22.2543 5.14858C22.0057 4.75454 21.8357 4.31608 21.7538 3.85742C21.7538 3.85742 21.6187 3.85743 21.6387 4.39791C21.693 5.34121 22.0919 6.2317 22.7597 6.90014" fill="#33322B"/>
<path d="M22.492 5.29305C22.5659 5.117 22.6582 4.94925 22.7673 4.79261C23.2015 4.26671 23.5403 3.66883 23.7682 3.02605C23.7682 3.02605 23.6981 2.98602 23.623 3.12114C23.46 3.32058 23.2828 3.5079 23.0926 3.68163C22.8319 3.92939 22.6566 4.25359 22.5922 4.60744C22.5922 4.60744 22.5521 4.6525 22.6322 3.90684C22.7122 3.16118 22.3819 2.67073 22.6322 2.14526C22.6322 2.14526 22.2568 2.20531 22.0566 3.73667C22.084 4.15338 22.1857 4.56185 22.3569 4.94276C22.3569 4.94276 22.452 5.28807 22.502 5.28807" fill="#33322B"/>
<path d="M22.7774 3.61879C22.9421 3.45406 23.1232 3.3065 23.3178 3.1784C23.8216 2.82237 24.2125 2.32905 24.4438 1.75715C24.4438 1.75715 24.3938 1.69709 24.1586 1.99736C23.9234 2.29762 23.7832 2.12245 23.2327 2.79806C23.2327 2.79806 23.1527 2.94319 23.1176 2.93319C23.0826 2.92318 23.1176 2.77304 23.1176 2.77304C23.1176 2.77304 23.2227 2.35767 23.2377 2.20753C23.3025 1.84914 23.4048 1.49857 23.543 1.16162C23.2885 1.33753 23.0792 1.57112 22.9322 1.84335C22.7852 2.11558 22.7047 2.4187 22.6973 2.72799C22.7033 3.02585 22.7251 3.32321 22.7623 3.61879" fill="#33322B"/>
<path d="M23.4141 2.3778C23.4141 2.3778 23.3691 1.37691 24.7353 0.876465C24.5319 1.3128 24.2523 1.70934 23.9096 2.04749C23.7323 2.15038 23.5648 2.26933 23.4092 2.40282" fill="#33322B"/>
<path d="M0.842773 0.836182H3.0197V6.84152C3.0197 8.6181 3.60522 9.78414 5.2717 9.78414C6.93818 9.78414 7.52871 8.6181 7.52871 6.84152V0.836182H9.7057V7.4971C9.7057 10.2896 8.05417 11.4356 5.2717 11.4356C2.48923 11.4356 0.842773 10.2896 0.842773 7.4971V0.836182Z" fill="#33322B"/>
<path d="M11.2637 0.815186H13.936L18.0747 8.76726H18.1048V0.815186H20.1866V11.4496H17.5293L13.3755 3.49757H13.3455V11.4496H11.2637V0.815186Z" fill="#33322B"/>
<path d="M37.3145 0.824707H39.4914V5.11853H43.8453V0.824707H46.0222V11.4592H43.8453V6.79502H39.4914V11.4592H37.3145V0.824707Z" fill="#33322B"/>
<path d="M51.2141 0.824707H53.6713L57.9351 11.4542H55.5229L54.5871 9.01699H50.1882L49.2424 11.4542H46.9854L51.2141 0.824707ZM52.4152 2.95661H52.3801L50.8137 7.34552H53.9816L52.4152 2.95661Z" fill="#33322B"/>
<path d="M59.0205 0.824707H62.8139C64.2102 0.824707 66.317 1.22006 66.317 3.55214C66.317 4.81326 65.4462 5.69905 64.1551 5.92925C65.6564 6.06938 66.6573 7.04526 66.6573 8.35142C66.6573 11.0338 64.2051 11.4341 62.8339 11.4341H59.0405L59.0205 0.824707ZM61.1974 5.11853H62.0832C63.004 5.11853 64.1401 4.92335 64.1401 3.82237C64.1401 2.59127 63.0341 2.49621 62.0382 2.49621H61.1974V5.11853ZM61.1974 9.78269H62.1983C63.1992 9.78269 64.4354 9.53747 64.4354 8.28135C64.4354 6.89512 63.2893 6.68493 62.1983 6.68493H61.1974V9.78269Z" fill="#33322B"/>
<path d="M70.1984 0.824707H68.0215V11.4592H70.1984V0.824707Z" fill="#33322B"/>
<path d="M74.5081 2.49619H71.4004V0.824707H79.7978V2.49619H76.6851V11.4592H74.5081V2.49619Z" fill="#33322B"/>
<path d="M82.7328 0.824707H85.185L89.4488 11.4542H87.0366L86.1058 9.01699H81.7019L80.756 11.4542H78.499L82.7328 0.824707ZM83.9288 2.95661H83.8938L82.3274 7.34552H85.5002L83.9288 2.95661Z" fill="#33322B"/>
<path d="M91.1917 2.49619H88.084V0.824707H96.4765V2.49619H93.3687V11.4592H91.1917V2.49619Z" fill="#33322B"/>
<path d="M0.842773 13.0759H3.36504V13.6765H1.52343V15.0627H3.28495V15.6582H1.52343V17.8201H0.842773V13.0759Z" fill="#33322B"/>
<path d="M6.31526 12.9958C7.75654 12.9958 8.60227 14.0418 8.60227 15.448C8.60227 16.8543 7.76655 17.9052 6.31526 17.9052C4.86397 17.9052 4.0332 16.9043 4.0332 15.448C4.0332 13.9917 4.87398 12.9958 6.31526 12.9958ZM6.31526 17.3047C7.41124 17.3047 7.88166 16.3939 7.88166 15.448C7.88166 14.5022 7.38121 13.5864 6.31526 13.5914C5.24931 13.5964 4.75388 14.4822 4.75388 15.448C4.75388 16.4139 5.21929 17.3047 6.31526 17.3047Z" fill="#33322B"/>
<path d="M9.52974 13.0759H10.6858C11.6266 13.0759 12.5324 13.226 12.5324 14.362C12.5264 14.6334 12.4213 14.8931 12.2369 15.0923C12.0525 15.2914 11.8016 15.4162 11.5315 15.443C11.6382 15.4826 11.7349 15.5453 11.8145 15.6266C11.8941 15.7079 11.9547 15.8059 11.992 15.9134L12.8928 17.8051H12.1171L11.3914 16.1587C11.1763 15.6982 10.956 15.6983 10.5907 15.6983H10.1854V17.8051H9.50977L9.52974 13.0759ZM10.2054 15.1177H10.7859C11.4314 15.1177 11.7868 14.8325 11.7868 14.3721C11.7868 13.9117 11.4665 13.6764 10.8409 13.6764H10.1854L10.2054 15.1177Z" fill="#33322B"/>
<path d="M17.1146 13.0759H17.8302L19.832 17.8201H19.0963L18.5959 16.6241H16.2688L15.7684 17.8201H15.0527L17.1146 13.0759ZM17.4499 13.7165L16.504 16.0686H18.3907L17.4499 13.7165Z" fill="#33322B"/>
<path d="M22.3667 13.0759H23.6529C24.6538 13.0759 25.3194 13.3962 25.3194 14.272C25.327 14.5522 25.2278 14.8249 25.042 15.0349C24.8562 15.2449 24.5976 15.3764 24.3185 15.403C24.4661 15.4043 24.6119 15.4349 24.7476 15.4932C24.8832 15.5515 25.0058 15.6363 25.1084 15.7425C25.2109 15.8487 25.2912 15.9743 25.3446 16.1119C25.398 16.2495 25.4234 16.3964 25.4194 16.544C25.4194 17.5449 24.5737 17.8101 23.6128 17.8101H22.3467L22.3667 13.0759ZM23.0473 15.1027H23.4226C24.0782 15.1027 24.6388 15.0427 24.6388 14.342C24.6388 13.7765 24.1383 13.6314 23.758 13.6314H23.0473V15.1027ZM23.0473 17.2646H23.5478C24.1583 17.2646 24.7088 17.1345 24.7088 16.4939C24.7088 15.7633 24.0632 15.6582 23.4777 15.6582H23.0373L23.0473 17.2646Z" fill="#33322B"/>
<path d="M26.5947 13.0759H29.2521V13.6765H27.2753V15.0627H29.0769V15.6582H27.2753V17.2246H29.2521V17.8201H26.5947V13.0759Z" fill="#33322B"/>
<path d="M31.2898 13.6765H29.8135V13.0759H33.4417V13.6765H31.9654V17.8201H31.2898V13.6765Z" fill="#33322B"/>
<path d="M35.0652 13.6765H33.5889V13.0759H37.2171V13.6765H35.7408V17.8201H35.0652V13.6765Z" fill="#33322B"/>
<path d="M37.9346 13.0759H40.592V13.6765H38.6152V15.0627H40.4168V15.6582H38.6152V17.2246H40.592V17.8201H37.9346V13.0759Z" fill="#33322B"/>
<path d="M41.6377 13.0759H42.7988C43.7346 13.0759 44.6404 13.226 44.6404 14.362C44.6354 14.6337 44.5307 14.8941 44.3461 15.0934C44.1615 15.2928 43.91 15.4172 43.6395 15.443C43.8547 15.5231 43.9548 15.6232 44.1049 15.9134L45.0007 17.8051H44.27L43.5444 16.1587C43.3342 15.6982 43.109 15.6983 42.7487 15.6983H42.3383V17.8051H41.6627L41.6377 13.0759ZM42.3133 15.1177H42.8938C43.5394 15.1177 43.8947 14.8325 43.8947 14.3721C43.8947 13.9117 43.5694 13.6764 42.9438 13.6764H42.2883L42.3133 15.1177Z" fill="#33322B"/>
<path d="M51.4128 15.8584C51.4128 17.1896 50.7371 17.9052 49.5711 17.9052C48.4051 17.9052 47.7295 17.1896 47.7295 15.8584V13.0759H48.4051V15.7683C48.4051 16.6791 48.6953 17.3047 49.5711 17.3047C50.4469 17.3047 50.7322 16.6791 50.7322 15.7683V13.0759H51.4128V15.8584Z" fill="#33322B"/>
<path d="M52.5918 13.0759H53.7528C54.6936 13.0759 55.5945 13.226 55.5945 14.362C55.5903 14.6298 55.489 14.887 55.3095 15.0858C55.1301 15.2846 54.8846 15.4115 54.6186 15.443C54.8288 15.5231 54.9289 15.6232 55.079 15.9134L55.9748 17.8051H55.2041L54.4735 16.1587C54.2633 15.6982 54.0381 15.6983 53.6778 15.6983H53.2824V17.8051H52.6018L52.5918 13.0759ZM53.2824 15.1277H53.8579C54.5035 15.1277 54.8588 14.8425 54.8588 14.3821C54.8588 13.9217 54.5335 13.6865 53.908 13.6865H53.2824V15.1277Z" fill="#33322B"/>
<path d="M56.7399 13.0759H58.021C59.0219 13.0759 59.6875 13.3962 59.6875 14.272C59.6963 14.5526 59.5976 14.8259 59.4115 15.0362C59.2255 15.2464 58.9662 15.3776 58.6866 15.403C58.8342 15.4043 58.9801 15.4349 59.1157 15.4932C59.2513 15.5515 59.374 15.6363 59.4765 15.7425C59.579 15.8487 59.6593 15.9743 59.7127 16.1119C59.7661 16.2495 59.7916 16.3964 59.7876 16.544C59.7876 17.5449 58.9418 17.8101 57.976 17.8101H56.7148L56.7399 13.0759ZM57.4155 15.1027H57.7908C58.4514 15.1027 59.0119 15.0427 59.0119 14.342C59.0119 13.7765 58.5114 13.6314 58.1311 13.6314H57.4155V15.1027ZM57.4155 17.2646H57.9159C58.5315 17.2646 59.0819 17.1345 59.0819 16.4939C59.0819 15.7633 58.4364 15.6582 57.8509 15.6582H57.4055L57.4155 17.2646Z" fill="#33322B"/>
<path d="M62.437 13.0759H63.1526L65.1543 17.8201H64.4137L63.9132 16.6241H61.5862L61.0857 17.8201H60.3701L62.437 13.0759ZM62.7722 13.7165L61.8264 16.0686H63.7131L62.7722 13.7165Z" fill="#33322B"/>
<path d="M65.835 13.0759H66.7608L68.8527 16.8943H68.8677V13.0759H69.5483V17.8201H68.6775L66.5306 13.9167H66.5156V17.8201H65.835V13.0759Z" fill="#33322B"/>
<path d="M72.6025 13.0759H75.1248V13.6765H73.2831V15.0627H75.0447V15.6582H73.2831V17.8201H72.6025V13.0759Z" fill="#33322B"/>
<path d="M79.7262 15.8584C79.7262 17.1896 79.0557 17.9052 77.8846 17.9052C76.7136 17.9052 76.043 17.1896 76.043 15.8584V13.0759H76.7236V15.7683C76.7236 16.6791 77.0089 17.3047 77.8846 17.3047C78.7604 17.3047 79.0456 16.6791 79.0456 15.7683V13.0759H79.7262V15.8584Z" fill="#33322B"/>
<path d="M81.8933 13.6765H80.417V13.0759H84.0452V13.6765H82.5689V17.8201H81.8933V13.6765Z" fill="#33322B"/>
<path d="M88.4157 15.8584C88.4157 17.1896 87.7451 17.9052 86.5741 17.9052C85.403 17.9052 84.7324 17.1896 84.7324 15.8584V13.0759H85.413V15.7683C85.413 16.6791 85.6983 17.3047 86.5741 17.3047C87.4499 17.3047 87.7401 16.6791 87.7401 15.7683V13.0759H88.4157V15.8584Z" fill="#33322B"/>
<path d="M89.5943 13.0759H90.7553C91.6961 13.0759 92.6019 13.226 92.6019 14.362C92.5959 14.6334 92.4908 14.8931 92.3064 15.0923C92.122 15.2914 91.8711 15.4162 91.601 15.443C91.7077 15.4826 91.8043 15.5453 91.884 15.6266C91.9636 15.7079 92.0242 15.8059 92.0614 15.9134L92.9622 17.8051H92.1865L91.4559 16.1587C91.2457 15.6982 91.0205 15.6983 90.6601 15.6983H90.2548V17.8051H89.5742L89.5943 13.0759ZM90.2749 15.1177H90.8503C91.5009 15.1177 91.8512 14.8325 91.8512 14.3721C91.8512 13.9117 91.526 13.6764 90.9004 13.6764H90.2498L90.2749 15.1177Z" fill="#33322B"/>
<path d="M93.8203 13.0759H96.4777V13.6765H94.5009V15.0627H96.3025V15.6582H94.5009V17.2246H96.4777V17.8201H93.8203V13.0759Z" fill="#33322B"/>
</svg>
