<svg viewBox="0 0 69 39" fill="none" xmlns="http://www.w3.org/2000/svg">
<path d="M6.76433 28.8544V23.1523C6.76433 22.9594 6.93421 22.8125 7.19131 22.8125H8.38961C8.43909 22.8074 8.48908 22.8122 8.5367 22.8266C8.58432 22.8409 8.62863 22.8646 8.66705 22.8962C8.70547 22.9278 8.73725 22.9667 8.76055 23.0106C8.78385 23.0546 8.79822 23.1027 8.80281 23.1523V28.8085C8.80281 32.0224 7.13163 33.3997 4.67077 33.3997C2.49915 33.3997 0.717773 32.0729 0.717773 28.8728V23.1706C0.72444 23.1176 0.741779 23.0666 0.768744 23.0205C0.795709 22.9744 0.831738 22.9343 0.874654 22.9025C0.91757 22.8708 0.966481 22.848 1.01843 22.8357C1.07038 22.8234 1.12428 22.8217 1.17689 22.8308H2.34764C2.60474 22.8308 2.80675 22.9777 2.80675 23.1706V28.8728C2.80675 30.3007 3.33933 31.5816 4.70749 31.5816C6.21799 31.5633 6.76433 30.5394 6.76433 28.8544Z" fill="#33322B"/>
<path d="M11.513 32.8894C11.5063 32.9423 11.489 32.9934 11.462 33.0395C11.435 33.0855 11.399 33.1257 11.3561 33.1574C11.3132 33.1892 11.2643 33.2119 11.2123 33.2242C11.1604 33.2366 11.1065 33.2382 11.0539 33.2291H9.9474C9.69029 33.2291 9.48828 33.0822 9.48828 32.8894V23.1515C9.48828 22.9587 9.67193 22.8118 9.9474 22.8118H11.2559L16.1776 26.8291V23.1561C16.1776 22.9633 16.3613 22.8163 16.6367 22.8163H17.7753C17.8279 22.8072 17.8818 22.8089 17.9338 22.8212C17.9857 22.8335 18.0347 22.8563 18.0776 22.888C18.1205 22.9198 18.1565 22.9599 18.1835 23.006C18.2104 23.0521 18.2278 23.1032 18.2345 23.1561V32.894C18.2278 32.9469 18.2104 32.998 18.1835 33.0441C18.1565 33.0901 18.1205 33.1303 18.0776 33.162C18.0347 33.1938 17.9857 33.2165 17.9338 33.2288C17.8818 33.2412 17.8279 33.2428 17.7753 33.2337H16.6184C16.3613 33.2337 16.1592 33.0868 16.1592 32.894V29.1705L11.513 25.4241V32.8894Z" fill="#33322B"/>
<path d="M22.3382 33.2301H19.4044C19.3518 33.2392 19.2979 33.2376 19.246 33.2253C19.194 33.2129 19.1451 33.1902 19.1022 33.1585C19.0593 33.1267 19.0232 33.0866 18.9963 33.0405C18.9693 32.9944 18.952 32.9434 18.9453 32.8904V23.1526C18.952 23.0996 18.9693 23.0485 18.9963 23.0024C19.0232 22.9563 19.0593 22.9162 19.1022 22.8844C19.1451 22.8527 19.194 22.8299 19.246 22.8176C19.2979 22.8053 19.3518 22.8037 19.4044 22.8128H22.306C25.2857 22.8128 27.3563 24.9109 27.3563 28.0054C27.3655 30.7142 25.8183 33.1108 22.3382 33.2301ZM20.9608 31.458H22.2969C24.2252 31.4166 25.3362 29.7914 25.3362 28.0054C25.3362 26.2194 24.5328 24.585 22.2969 24.585H20.97L20.9608 31.458Z" fill="#33322B"/>
<path d="M34.9044 31.4762C35.1615 31.4762 35.3636 31.5956 35.3636 31.816V32.8903C35.3636 33.0831 35.1799 33.23 34.9044 33.23H28.4171C28.1554 33.23 27.958 33.0831 27.958 32.8903V23.1524C27.958 22.9596 28.1371 22.8127 28.4171 22.8127H34.7805C34.8331 22.8036 34.887 22.8052 34.9389 22.8175C34.9909 22.8298 35.0398 22.8526 35.0827 22.8843C35.1256 22.9161 35.1617 22.9562 35.1886 23.0023C35.2156 23.0484 35.2329 23.0995 35.2396 23.1524V24.2543C35.2396 24.4792 35.0422 24.5986 34.7805 24.5986H29.9965V26.6692H34.2387C34.2913 26.6601 34.3452 26.6618 34.3972 26.6741C34.4491 26.6864 34.498 26.7091 34.541 26.7409C34.5839 26.7727 34.6199 26.8128 34.6469 26.8589C34.6738 26.905 34.6912 26.956 34.6978 27.009V28.0237C34.6978 28.244 34.5004 28.3772 34.2387 28.3772H29.9965V31.4762H34.9044Z" fill="#33322B"/>
<path d="M38.0656 32.8891C38.059 32.9421 38.0416 32.9931 38.0147 33.0392C37.9877 33.0853 37.9517 33.1254 37.9087 33.1572C37.8658 33.1889 37.8169 33.2117 37.765 33.224C37.713 33.2363 37.6591 33.238 37.6065 33.2288H36.4679C36.2062 33.2288 36.0088 33.0819 36.0088 32.8891V23.1513C36.0088 22.9584 36.1878 22.8115 36.4679 22.8115H39.0941C41.4631 22.8115 43.2261 23.794 43.2261 26.1584C43.2261 27.6643 42.542 28.7065 41.2198 29.1978L43.3041 32.7238C43.4373 32.9763 43.3041 33.2288 42.9369 33.2288H41.5871C41.5015 33.2294 41.4175 33.2061 41.3445 33.1615C41.2714 33.1169 41.2124 33.0527 41.1738 32.9763L39.2134 29.5513H38.0473L38.0656 32.8891ZM39.1262 27.8388C40.6918 27.8388 41.2978 27.1364 41.2978 26.1722C41.2978 25.6029 41.0728 24.5469 39.0986 24.5469H38.0656V27.8388H39.1262Z" fill="#33322B"/>
<path d="M44.4622 23.0873C44.4668 23.0378 44.4812 22.9896 44.5045 22.9457C44.5278 22.9017 44.5596 22.8628 44.598 22.8312C44.6364 22.7997 44.6807 22.776 44.7283 22.7616C44.7759 22.7473 44.8259 22.7425 44.8754 22.7476H49.9257C49.9752 22.7425 50.0252 22.7473 50.0728 22.7616C50.1204 22.776 50.1647 22.7997 50.2031 22.8312C50.2416 22.8628 50.2733 22.9017 50.2966 22.9457C50.32 22.9896 50.3343 23.0378 50.3389 23.0873V24.1295C50.3296 24.2299 50.2809 24.3224 50.2034 24.387C50.126 24.4515 50.0261 24.4828 49.9257 24.4738H46.3262V26.1817C48.8651 26.1817 50.7934 27.2836 50.7934 29.6067C50.7934 32.1548 48.957 33.3118 46.767 33.3118C45.8666 33.3019 44.9853 33.0514 44.2143 32.5864C44.1744 32.5593 44.1404 32.5245 44.1141 32.4841C44.0879 32.4436 44.07 32.3984 44.0614 32.3509C44.0529 32.3034 44.0539 32.2548 44.0643 32.2077C44.0748 32.1606 44.0946 32.1161 44.1225 32.0768L44.6275 31.2733C44.6583 31.2287 44.6976 31.1906 44.7432 31.1612C44.7889 31.1319 44.8399 31.112 44.8933 31.1026C44.9467 31.0932 45.0015 31.0945 45.0544 31.1065C45.1073 31.1185 45.1572 31.1408 45.2014 31.1723C45.6535 31.493 46.1994 31.6545 46.7532 31.6315C47.8 31.6315 48.8055 31.0484 48.8055 29.6389C48.8055 28.1468 47.5429 27.8346 46.3721 27.8346C45.8947 27.8449 45.4181 27.8801 44.9443 27.9401C44.7193 27.9401 44.4576 27.7886 44.4576 27.5958L44.4622 23.0873Z" fill="#33322B"/>
<path d="M59.4193 27.9269C59.4193 30.7092 58.4781 33.3124 55.2872 33.3124C52.0964 33.3124 51.123 30.7092 51.123 27.9269C51.123 25.1447 52.1102 22.5691 55.2872 22.5691C58.4643 22.5691 59.4193 25.1447 59.4193 27.9269ZM53.0972 27.9269C53.0972 29.6257 53.4921 31.5999 55.2735 31.5999C57.0548 31.5999 57.4451 29.6394 57.4451 27.9269C57.4451 26.2144 57.0502 24.2954 55.2735 24.2954C53.4967 24.2954 53.0972 26.2144 53.0972 27.9269Z" fill="#33322B"/>
<path d="M68.2347 27.9269C68.2347 30.7092 67.2935 33.3124 64.1027 33.3124C60.9118 33.3124 59.9385 30.7092 59.9385 27.9269C59.9385 25.1447 60.9256 22.5691 64.1027 22.5691C67.2797 22.5691 68.2347 25.1447 68.2347 27.9269ZM61.9173 27.9269C61.9173 29.6257 62.3121 31.5999 64.0889 31.5999C65.8657 31.5999 66.2605 29.6394 66.2605 27.9269C66.2605 26.2144 65.8657 24.2954 64.0889 24.2954C62.3121 24.2954 61.9173 26.2144 61.9173 27.9269Z" fill="#33322B"/>
<path d="M14.4812 36.8657C14.4788 36.664 14.5166 36.4638 14.5925 36.277C14.6684 36.0901 14.7809 35.9203 14.9233 35.7775C15.0657 35.6347 15.2351 35.5218 15.4218 35.4453C15.6084 35.3688 15.8084 35.3303 16.0101 35.3322C16.4291 35.3134 16.8391 35.4583 17.1533 35.7362L16.8227 36.131C16.7121 36.0258 16.5817 35.9437 16.439 35.8893C16.2964 35.8349 16.1443 35.8094 15.9917 35.8143C15.8596 35.8196 15.7299 35.8509 15.61 35.9064C15.49 35.9619 15.3821 36.0405 15.2926 36.1378C15.203 36.235 15.1335 36.3489 15.0881 36.473C15.0426 36.5971 15.022 36.729 15.0276 36.8611C15.018 36.9986 15.0371 37.1365 15.0838 37.2661C15.1305 37.3958 15.2037 37.5143 15.2987 37.6141C15.3938 37.7139 15.5086 37.7928 15.6358 37.8457C15.763 37.8987 15.8999 37.9245 16.0376 37.9216C16.2943 37.9253 16.5454 37.8464 16.7539 37.6967V37.1411H15.9963V36.682H17.2589V37.9262C16.9137 38.2223 16.474 38.3851 16.0193 38.3853C15.8165 38.3943 15.614 38.3613 15.4246 38.2883C15.2351 38.2154 15.0628 38.104 14.9184 37.9613C14.774 37.8187 14.6606 37.6477 14.5854 37.4591C14.5102 37.2706 14.4747 37.0686 14.4812 36.8657Z" fill="#33322B"/>
<path d="M17.7061 36.1033H18.2203V36.6083C18.2744 36.4428 18.3815 36.2996 18.525 36.2009C18.6686 36.1022 18.8406 36.0534 19.0145 36.062V36.6037H18.9824C18.5233 36.6037 18.2203 36.8976 18.2203 37.4899V38.3392H17.7061V36.1033Z" fill="#33322B"/>
<path d="M19.0863 37.2342C19.0789 37.0853 19.1016 36.9364 19.1529 36.7964C19.2043 36.6564 19.2833 36.5282 19.3853 36.4193C19.4872 36.3105 19.6101 36.2233 19.7464 36.163C19.8828 36.1027 20.0299 36.0704 20.179 36.0681C20.3312 36.0685 20.4815 36.1008 20.6203 36.1632C20.7591 36.2255 20.8832 36.3164 20.9846 36.4298C21.0859 36.5433 21.1622 36.6769 21.2085 36.8218C21.2549 36.9667 21.2701 37.1198 21.2534 37.271C21.2534 37.3169 21.2534 37.3628 21.2534 37.4133H19.6005C19.6145 37.5724 19.689 37.7201 19.8085 37.826C19.9281 37.9318 20.0837 37.9879 20.2433 37.9826C20.3574 37.9835 20.4704 37.9603 20.5748 37.9144C20.6793 37.8685 20.7728 37.801 20.8493 37.7163L21.1524 37.9826C21.0415 38.1178 20.901 38.2259 20.7418 38.2983C20.5826 38.3707 20.4089 38.4056 20.2341 38.4004C20.0806 38.405 19.9277 38.3778 19.7852 38.3206C19.6426 38.2634 19.5134 38.1773 19.4057 38.0678C19.2979 37.9584 19.214 37.8278 19.159 37.6844C19.1041 37.5409 19.0793 37.3877 19.0863 37.2342ZM20.7437 37.069C20.7462 36.9151 20.6877 36.7665 20.5811 36.6556C20.4745 36.5446 20.3283 36.4803 20.1744 36.4767C20.0209 36.4836 19.8757 36.5487 19.7683 36.6587C19.6609 36.7686 19.5993 36.9153 19.596 37.069H20.7437Z" fill="#33322B"/>
<path d="M21.4531 37.6969C21.4531 37.2378 21.8296 36.9761 22.3714 36.9761C22.5758 36.9745 22.7791 37.0071 22.9728 37.0725V37.0174C22.9728 36.696 22.78 36.5307 22.4173 36.5307C22.1973 36.5318 21.9799 36.5787 21.7791 36.6685L21.646 36.2645C21.9086 36.1413 22.1961 36.08 22.4861 36.0854C22.6204 36.0748 22.7554 36.0913 22.8832 36.1339C23.0109 36.1765 23.1289 36.2443 23.2299 36.3333C23.3146 36.4257 23.3795 36.5345 23.4205 36.653C23.4616 36.7714 23.478 36.897 23.4686 37.022V38.3489H22.9728V38.0688C22.8841 38.174 22.7728 38.258 22.6472 38.3144C22.5217 38.3708 22.385 38.3983 22.2474 38.3948C22.1484 38.4063 22.0481 38.397 21.9529 38.3674C21.8577 38.3377 21.7699 38.2883 21.695 38.2225C21.6201 38.1567 21.5599 38.076 21.5182 37.9854C21.4766 37.8949 21.4544 37.7966 21.4531 37.6969ZM22.9866 37.5362V37.3847C22.8239 37.3228 22.6511 37.2916 22.477 37.2929C22.1464 37.2929 21.9536 37.4352 21.9536 37.6694C21.9536 37.8852 22.1464 38.0091 22.4127 38.0091C22.7295 38.0137 22.9866 37.8209 22.9866 37.5362Z" fill="#33322B"/>
<path d="M24.0044 37.724V36.544H23.7197V36.0849H24.0044V35.4697H24.514V36.0849H25.1154V36.544H24.514V37.6413C24.5078 37.6791 24.5106 37.7178 24.5222 37.7543C24.5338 37.7907 24.5538 37.824 24.5807 37.8513C24.6075 37.8786 24.6404 37.8991 24.6767 37.9113C24.713 37.9235 24.7516 37.9269 24.7895 37.9214C24.8998 37.9211 25.0084 37.8944 25.1063 37.8434V38.2657C24.9659 38.3434 24.8076 38.383 24.6471 38.3805C24.5587 38.3923 24.4688 38.3832 24.3845 38.3542C24.3002 38.3251 24.2238 38.2768 24.1615 38.2131C24.0991 38.1494 24.0524 38.072 24.0251 37.9871C23.9979 37.9022 23.9908 37.8121 24.0044 37.724Z" fill="#33322B"/>
<path d="M27.2831 35.8607H26.3281V35.374H28.7339V35.8607H27.8157V38.3399H27.2831V35.8607Z" fill="#33322B"/>
<path d="M28.4395 37.6968C28.4395 37.2377 28.8159 36.9761 29.3577 36.9761C29.5621 36.9752 29.7653 37.0077 29.9591 37.0724V37.0174C29.9591 36.696 29.7617 36.5307 29.4036 36.5307C29.1836 36.5318 28.9663 36.5787 28.7654 36.6684L28.6277 36.2644C28.892 36.1413 29.1809 36.0801 29.4725 36.0853C29.606 36.0748 29.7403 36.0914 29.8673 36.134C29.9943 36.1766 30.1114 36.2444 30.2116 36.3333C30.2972 36.4253 30.3629 36.5339 30.4047 36.6524C30.4466 36.7709 30.4637 36.8966 30.455 37.022V38.3488H29.9545V38.0688C29.8653 38.1746 29.7533 38.2589 29.6269 38.3153C29.5005 38.3718 29.3629 38.3989 29.2245 38.3947C29.1263 38.4049 29.0269 38.3946 28.9329 38.3643C28.8388 38.334 28.7521 38.2844 28.6782 38.2188C28.6044 38.1531 28.545 38.0728 28.5039 37.9829C28.4628 37.8931 28.4408 37.7956 28.4395 37.6968ZM29.9729 37.5362V37.3847C29.8099 37.3237 29.6373 37.2925 29.4633 37.2928C29.1327 37.2928 28.9399 37.4352 28.9399 37.6693C28.9399 37.8851 29.1281 38.0091 29.399 38.0091C29.7112 38.0137 29.9729 37.8208 29.9729 37.5362Z" fill="#33322B"/>
<path d="M30.7207 38.05L30.9503 37.701C31.1593 37.8691 31.4168 37.9657 31.6848 37.9765C31.9006 37.9765 32.0292 37.8847 32.0292 37.7332C32.0292 37.5633 31.795 37.5036 31.5287 37.421C31.2625 37.3383 30.8309 37.1914 30.8309 36.7644C30.8353 36.6661 30.8599 36.5698 30.9031 36.4814C30.9464 36.393 31.0074 36.3145 31.0824 36.2507C31.1573 36.187 31.2446 36.1394 31.3388 36.1108C31.433 36.0823 31.532 36.0735 31.6298 36.0849C31.9219 36.091 32.2065 36.1785 32.4516 36.3375L32.245 36.7047C32.0578 36.5791 31.8409 36.5047 31.616 36.489C31.414 36.489 31.3038 36.5854 31.3038 36.7093C31.3038 36.8746 31.5425 36.9435 31.8042 37.0262C32.0659 37.1088 32.5021 37.2786 32.5021 37.6781C32.5021 38.1372 32.1348 38.3805 31.6711 38.3805C31.3267 38.3772 30.9928 38.2611 30.7207 38.05Z" fill="#33322B"/>
<path d="M32.9214 37.724V36.544H32.6367V36.0849H32.9214V35.4697H33.4356V36.0849H34.037V36.544H33.4356V37.6413C33.4294 37.6791 33.4322 37.7178 33.4438 37.7543C33.4554 37.7907 33.4754 37.824 33.5022 37.8513C33.5291 37.8786 33.562 37.8991 33.5983 37.9113C33.6345 37.9235 33.6732 37.9269 33.7111 37.9214C33.8214 37.9211 33.93 37.8944 34.0278 37.8434V38.2657C33.8875 38.3434 33.7292 38.383 33.5687 38.3805C33.48 38.393 33.3895 38.3846 33.3046 38.3559C33.2197 38.3272 33.1427 38.2791 33.0798 38.2152C33.0169 38.1514 32.9697 38.0737 32.9422 37.9884C32.9147 37.9031 32.9076 37.8126 32.9214 37.724Z" fill="#33322B"/>
<path d="M34.2038 37.2342C34.1957 37.0851 34.2179 36.936 34.269 36.7957C34.3201 36.6554 34.3991 36.5269 34.5012 36.4179C34.6033 36.309 34.7264 36.2218 34.8631 36.1617C34.9997 36.1016 35.1472 36.0698 35.2965 36.0681C35.4484 36.0684 35.5986 36.1008 35.7372 36.1632C35.8758 36.2255 35.9997 36.3165 36.1006 36.4301C36.2016 36.5436 36.2775 36.6772 36.3233 36.8221C36.369 36.9671 36.3837 37.12 36.3662 37.271C36.3662 37.3169 36.3662 37.3628 36.3662 37.4133H34.7226C34.7366 37.5732 34.8117 37.7216 34.9322 37.8276C35.0528 37.9336 35.2095 37.9891 35.3699 37.9826C35.4833 37.9834 35.5956 37.9601 35.6993 37.9142C35.803 37.8683 35.8958 37.8009 35.9714 37.7163L36.2744 37.9826C36.1639 38.1184 36.0236 38.2268 35.8643 38.2992C35.705 38.3717 35.5311 38.4063 35.3561 38.4004C35.2022 38.4056 35.0489 38.3789 34.9058 38.322C34.7627 38.2651 34.6329 38.1791 34.5247 38.0696C34.4164 37.96 34.332 37.8293 34.2768 37.6855C34.2216 37.5417 34.1967 37.3881 34.2038 37.2342ZM35.8566 37.069C35.8584 36.993 35.8453 36.9174 35.8179 36.8465C35.7905 36.7756 35.7494 36.7109 35.6969 36.6559C35.6445 36.6009 35.5817 36.5567 35.5122 36.5259C35.4427 36.4952 35.3678 36.4785 35.2919 36.4767C35.1375 36.4825 34.9912 36.5471 34.8828 36.6571C34.7744 36.7672 34.7122 36.9145 34.7088 37.069H35.8566Z" fill="#33322B"/>
<path d="M36.6357 37.7554H37.2005V38.3385H36.6357V37.7554Z" fill="#33322B"/>
<path d="M38.1611 35.374H38.6203L40.2088 37.4263V35.374H40.723V38.3399H40.2639L38.6294 36.2326V38.3399H38.1152L38.1611 35.374Z" fill="#33322B"/>
<path d="M41.1602 37.2326C41.179 36.9294 41.3127 36.6448 41.5341 36.4368C41.7555 36.2288 42.0478 36.1129 42.3516 36.1129C42.6554 36.1129 42.9477 36.2288 43.1691 36.4368C43.3905 36.6448 43.5242 36.9294 43.543 37.2326C43.5418 37.3879 43.5098 37.5415 43.4487 37.6843C43.3876 37.8271 43.2987 37.9563 43.1872 38.0644C43.0756 38.1725 42.9437 38.2573 42.7991 38.3139C42.6545 38.3706 42.5 38.3979 42.3447 38.3942C42.1899 38.3985 42.0358 38.3716 41.8917 38.3151C41.7475 38.2585 41.6163 38.1735 41.5057 38.0651C41.3951 37.9566 41.3076 37.827 41.2482 37.684C41.1888 37.541 41.1589 37.3875 41.1602 37.2326ZM43.0288 37.2326C43.0331 37.1399 43.0187 37.0473 42.9863 36.9603C42.9539 36.8733 42.9043 36.7938 42.8404 36.7264C42.7765 36.6591 42.6997 36.6054 42.6145 36.5685C42.5293 36.5316 42.4375 36.5124 42.3447 36.5118C42.2527 36.511 42.1615 36.5292 42.0769 36.5651C41.9922 36.6011 41.9158 36.6541 41.8525 36.7208C41.7892 36.7876 41.7403 36.8667 41.7089 36.9531C41.6774 37.0396 41.6641 37.1316 41.6698 37.2234C41.6661 37.3158 41.681 37.408 41.7137 37.4944C41.7464 37.5809 41.7961 37.6598 41.8599 37.7267C41.9238 37.7935 42.0004 37.8468 42.0853 37.8834C42.1701 37.92 42.2615 37.9391 42.3539 37.9397C42.4453 37.9398 42.5358 37.9213 42.6198 37.8854C42.7039 37.8495 42.7798 37.7969 42.8429 37.7308C42.906 37.6647 42.955 37.5864 42.987 37.5008C43.0189 37.4152 43.0332 37.3239 43.0288 37.2326Z" fill="#33322B"/>
<path d="M44.6199 36.8657C44.6174 36.664 44.6553 36.4638 44.7312 36.277C44.8071 36.0901 44.9195 35.9203 45.0619 35.7775C45.2043 35.6347 45.3738 35.5218 45.5604 35.4453C45.7471 35.3688 45.9471 35.3303 46.1488 35.3322C46.5678 35.3134 46.9778 35.4583 47.292 35.7362L46.9614 36.131C46.8508 36.0258 46.7203 35.9437 46.5777 35.8893C46.435 35.8349 46.283 35.8094 46.1304 35.8143C45.9983 35.8196 45.8686 35.8509 45.7486 35.9064C45.6287 35.9619 45.5208 36.0405 45.4313 36.1378C45.3417 36.235 45.2722 36.3489 45.2267 36.473C45.1813 36.5971 45.1607 36.729 45.1663 36.8611C45.1567 36.9986 45.1758 37.1365 45.2225 37.2661C45.2692 37.3958 45.3424 37.5143 45.4374 37.6141C45.5325 37.7139 45.6472 37.7928 45.7745 37.8457C45.9017 37.8987 46.0385 37.9245 46.1763 37.9216C46.433 37.9253 46.684 37.8464 46.8925 37.6967V37.1411H46.135V36.682H47.3976V37.9262C47.0524 38.2223 46.6127 38.3851 46.1579 38.3853C45.9551 38.3943 45.7527 38.3613 45.5632 38.2883C45.3738 38.2154 45.2015 38.104 45.0571 37.9613C44.9127 37.8187 44.7993 37.6477 44.7241 37.4591C44.6488 37.2706 44.6134 37.0686 44.6199 36.8657Z" fill="#33322B"/>
<path d="M47.8185 37.5264V36.1031H48.3327V37.3611C48.3327 37.71 48.5025 37.9029 48.7918 37.9029C48.8628 37.9054 48.9335 37.8925 48.999 37.8651C49.0646 37.8376 49.1234 37.7963 49.1714 37.7439C49.2194 37.6915 49.2555 37.6294 49.2771 37.5617C49.2988 37.494 49.3055 37.4224 49.2968 37.3519V36.0894H49.811V38.3253H49.2968V37.9809C49.2243 38.1009 49.1219 38.2 48.9995 38.2684C48.8772 38.3368 48.7391 38.3722 48.599 38.3712C48.4902 38.3737 48.3821 38.3531 48.282 38.3106C48.1818 38.2682 48.0918 38.2049 48.018 38.1249C47.9442 38.045 47.8882 37.9503 47.8538 37.8471C47.8194 37.7439 47.8074 37.6346 47.8185 37.5264Z" fill="#33322B"/>
<path d="M50.3125 35.2728H50.8634V35.7595H50.3125V35.2728ZM50.3125 36.1039H50.8267V38.3397H50.3125V36.1039Z" fill="#33322B"/>
<path d="M51.373 35.2493H51.8873V38.3391H51.373V35.2493Z" fill="#33322B"/>
<path d="M52.4966 37.724V36.544H52.2119V36.0849H52.4966V35.4697H53.0062V36.0849H53.6076V36.544H53.0016V37.6413C52.9964 37.6789 52.9999 37.7172 53.0118 37.7533C53.0238 37.7893 53.0438 37.8221 53.0704 37.8492C53.097 37.8762 53.1295 37.8968 53.1653 37.9093C53.2012 37.9219 53.2394 37.926 53.2771 37.9214C53.3889 37.9211 53.499 37.8944 53.5984 37.8434V38.2657C53.4581 38.3434 53.2998 38.383 53.1393 38.3805C53.0509 38.3923 52.961 38.3832 52.8767 38.3542C52.7924 38.3251 52.716 38.2768 52.6536 38.2131C52.5913 38.1494 52.5446 38.072 52.5173 37.9871C52.4901 37.9022 52.4829 37.8121 52.4966 37.724Z" fill="#33322B"/>
<path d="M53.9248 37.7554H54.4849V38.3385H53.9248V37.7554Z" fill="#33322B"/>
<path fill-rule="evenodd" clip-rule="evenodd" d="M38.3721 12.7893C38.4043 12.8796 38.4179 12.9756 38.412 13.0713C38.4062 13.167 38.3811 13.2605 38.3382 13.3463C38.2953 13.4321 38.2356 13.5083 38.1625 13.5704C38.0894 13.6324 38.0046 13.6791 37.913 13.7076L34.9012 14.7681C34.8108 14.799 34.7152 14.8116 34.6199 14.8051C34.5246 14.7987 34.4315 14.7734 34.346 14.7306C34.2606 14.6879 34.1845 14.6287 34.1222 14.5563C34.0598 14.4839 34.0125 14.3999 33.983 14.309C33.9521 14.2186 33.9395 14.123 33.946 14.0277C33.9524 13.9324 33.9777 13.8393 34.0204 13.7538C34.0632 13.6684 34.1224 13.5923 34.1948 13.53C34.2672 13.4677 34.3512 13.4203 34.4421 13.3908L37.4539 12.3348C37.5442 12.3026 37.6401 12.2891 37.7358 12.2949C37.8315 12.3007 37.9251 12.3258 38.0108 12.3687C38.0966 12.4116 38.1728 12.4713 38.2349 12.5444C38.297 12.6175 38.3437 12.7024 38.3721 12.7939V12.7893Z" fill="#33322B"/>
<path d="M37.409 4.84703C37.5146 4.84703 37.5513 4.77813 37.611 4.70467C37.6611 4.64027 37.7071 4.57283 37.7487 4.50269C37.8373 4.34482 37.914 4.18059 37.9783 4.0114C38.0965 3.69186 38.1405 3.34962 38.1069 3.01056C38.0823 2.80393 38.0298 2.60157 37.9508 2.40909C37.8229 2.09708 37.6286 1.81663 37.3815 1.58726C37.1362 1.35767 36.8452 1.18245 36.5275 1.07305C36.189 0.958006 35.8276 0.927563 35.4746 0.984385C35.1217 1.04121 34.788 1.1836 34.5028 1.39906C34.0513 1.08429 33.5028 0.93967 32.9548 0.990942C32.4068 1.04221 31.8947 1.28605 31.5094 1.67911C31.0768 2.12067 30.8372 2.71589 30.8432 3.33399C30.8493 3.9521 31.1004 4.54249 31.5415 4.97554C31.9376 5.38083 32.3694 5.74962 32.8316 6.07743C30.3959 6.47326 28.1806 7.72312 26.5822 9.60324C24.9839 11.4834 24.107 13.871 24.1084 16.3387V17.11H44.888V16.3387C44.8876 14.3289 44.305 12.3624 43.2108 10.6767C42.1166 8.99093 40.5575 7.65819 38.7221 6.83958C36.5596 5.87543 34.2686 5.64587 32.5883 3.80023C32.4518 3.64781 32.3806 3.4479 32.3901 3.24354C32.3995 3.03918 32.4888 2.8467 32.6388 2.70753C32.7897 2.57555 32.9851 2.5059 33.1855 2.51272C33.3859 2.51954 33.5761 2.60231 33.7177 2.74424C33.9014 2.90952 34.2457 3.43754 34.5212 3.41459C34.916 3.38245 35.141 2.78099 35.4761 2.59734C35.5623 2.54781 35.6581 2.51723 35.7571 2.50773C35.8561 2.49823 35.956 2.51002 36.05 2.54225C36.1592 2.58073 36.2615 2.63653 36.353 2.70753C36.5041 2.84607 36.5941 3.03876 36.6036 3.24348C36.6131 3.44821 36.5411 3.64834 36.4035 3.80023C36.328 3.87965 36.2467 3.9533 36.1602 4.02059C36.0362 4.13078 35.9811 4.23176 36.1602 4.33736C36.3193 4.42598 36.487 4.49832 36.6606 4.55318C36.8305 4.61746 36.9958 4.69549 37.1657 4.75976C37.2423 4.80017 37.3242 4.82957 37.409 4.84703ZM28.2267 10.0855C29.4155 8.8877 30.9224 8.05515 32.5692 7.68613C34.216 7.31711 35.934 7.42702 37.5203 8.00295C39.1066 8.57887 40.495 9.59674 41.5215 10.9363C42.548 12.2759 43.1697 13.8813 43.3132 15.5628H25.6878C25.8677 13.4917 26.7753 11.5512 28.2496 10.0855H28.2267Z" fill="#33322B"/>
<path d="M33.9624 8.50597C35.2649 8.31447 36.5949 8.51841 37.7802 9.09141C38.9655 9.6644 39.9514 10.5801 40.6104 11.7198C40.709 11.8896 40.7361 12.0917 40.6858 12.2816C40.6354 12.4714 40.5117 12.6335 40.3418 12.7321C40.1719 12.8307 39.9699 12.8579 39.78 12.8075C39.5901 12.7571 39.4281 12.6334 39.3294 12.4635C38.8215 11.5799 38.058 10.8706 37.1395 10.4289C36.2209 9.98723 35.1901 9.83385 34.1828 9.9889C34.0866 10.0034 33.9885 9.99877 33.8941 9.97534C33.7997 9.95191 33.7109 9.91009 33.6327 9.85232C33.5544 9.79456 33.4884 9.72193 33.4382 9.63863C33.388 9.55532 33.3547 9.46298 33.3403 9.36681C33.3258 9.27064 33.3304 9.17256 33.3538 9.07818C33.3773 8.9838 33.4191 8.89496 33.4768 8.81673C33.5346 8.7385 33.6072 8.67237 33.6905 8.6222C33.7738 8.57203 33.8662 8.53876 33.9624 8.52429V8.50597Z" fill="#33322B"/>
<path d="M46.2368 18.0787H22.776C22.6694 18.0705 22.5622 18.0844 22.4612 18.1196C22.3603 18.1547 22.2677 18.2104 22.1892 18.283C22.1107 18.3556 22.0481 18.4437 22.0053 18.5416C21.9625 18.6396 21.9404 18.7454 21.9404 18.8523C21.9404 18.9593 21.9625 19.065 22.0053 19.163C22.0481 19.261 22.1107 19.349 22.1892 19.4216C22.2677 19.4943 22.3603 19.5499 22.4612 19.5851C22.5622 19.6202 22.6694 19.6341 22.776 19.6259H46.2368C46.3434 19.6341 46.4506 19.6202 46.5516 19.5851C46.6525 19.5499 46.7451 19.4943 46.8236 19.4216C46.9021 19.349 46.9647 19.261 47.0075 19.163C47.0503 19.065 47.0724 18.9593 47.0724 18.8523C47.0724 18.7454 47.0503 18.6396 47.0075 18.5416C46.9647 18.4437 46.9021 18.3556 46.8236 18.283C46.7451 18.2104 46.6525 18.1547 46.5516 18.1196C46.4506 18.0844 46.3434 18.0705 46.2368 18.0787Z" fill="#33322B"/>
</svg>
